<?xml version="1.0" standalone="no"?>
<!DOCTYPE svg PUBLIC "-//W3C//DTD SVG 1.1//EN" "http://www.w3.org/Graphics/SVG/1.1/DTD/svg11.dtd" >
<svg>
<metadata>
Created by FontForge 20090622 at Tue Sep 22 11:12:12 2015
 By deploy user
Copyright &#194;&#169; 2011 ParaType Inc., ParaType Ltd. All rights reserved.
</metadata>
<defs>
<font id="Circe-ExtraBold" horiz-adv-x="600" >
  <font-face 
    font-family="Circe Extra Bold"
    font-weight="800"
    font-stretch="normal"
    units-per-em="1000"
    panose-1="2 11 8 2 2 2 3 2 2 3"
    ascent="773"
    descent="-227"
    x-height="450"
    cap-height="700"
    bbox="-533 -454 1671 1020"
    underline-thickness="50"
    underline-position="-50"
    unicode-range="U+0020-U+FB02"
  />
<missing-glyph horiz-adv-x="200" 
 />
    <glyph glyph-name="uniF350.var.accented" unicode="&#xf350;`" horiz-adv-x="632" 
d="M0 0l244 525h144l244 -525h-171l-33 75h-234l-33 -75h-161zM312 340l-51 -115h101zM453 671l-162 -110l-71 83l141 142z" />
    <glyph glyph-name="uniF355.var.accented" unicode="&#xf355;`" horiz-adv-x="508" 
d="M72 0v525h379v-150h-219v-37h194v-150h-194v-38h228v-150h-388zM388 671l-162 -110l-71 83l141 142z" />
    <glyph glyph-name="uniF358.var.accented" unicode="&#xf358;`" horiz-adv-x="671" 
d="M212 0h-140v525h160v-270l227 270h140v-525h-160v270zM468 671l-162 -110l-71 83l141 142z" />
    <glyph glyph-name="uniF35E.var.accented" unicode="&#xf35e;`" horiz-adv-x="664" 
d="M31 261q0 117 83 194.5t218 77.5q133 0 217 -73t84 -199q0 -121 -85 -197t-216 -76q-134 0 -217.5 73t-83.5 200zM201 261q0 -52 38 -87.5t93 -35.5q67 0 99 34t32 89q0 56 -37 89t-94 33q-59 0 -95 -32.5t-36 -89.5zM478 671l-162 -110l-71 83l141 142z" />
    <glyph glyph-name="uniF363.var.accented" unicode="&#xf363;`" horiz-adv-x="587" 
d="M583 525l-197 -393q-65 -132 -188 -132q-48 0 -86 26l56 136q21 -12 39 -12q19 0 28 12l8 12l-236 351h201l117 -193l94 193h164zM463 671l-162 -110l-71 83l141 142z" />
    <glyph glyph-name="uniF36B.var.accented" unicode="&#xf36b;`" horiz-adv-x="766" 
d="M534 0v525h160v-525h-160zM260 235q-16 0 -28 -1v-84q12 -2 28 -2q60 0 60 45q0 42 -60 42zM232 525v-142q17 2 43 2q106 0 160.5 -50t54.5 -138t-65.5 -143.5t-183.5 -55.5q-36 0 -95.5 1t-73.5 1v525h160zM510 671l-162 -110l-71 83l141 142z" />
    <glyph glyph-name="uniF36D.var.accented" unicode="&#xf36d;`" horiz-adv-x="567" 
d="M150 193v150h201q-36 42 -122 42q-99 0 -154 -35l-61 120q87 65 222 65q129 0 214.5 -76.5t85.5 -197.5q0 -130 -86.5 -200.5t-236.5 -70.5q-63 0 -119.5 16.5t-81.5 38.5l68 135q56 -40 154 -40q100 0 128 53h-212zM378 671l-162 -110l-71 83l141 142z" />
    <glyph glyph-name="uniF36E.var.accented" unicode="&#xf36e;`" horiz-adv-x="884" 
d="M72 0v525h160v-182h56q23 87 93 139.5t179 52.5q139 0 216 -71.5t77 -200.5q0 -123 -78 -198t-215 -75q-107 0 -181 53.5t-94 149.5h-53v-193h-160zM448 263q0 -54 31.5 -88.5t85.5 -34.5q61 0 89.5 34t28.5 89q0 58 -31 90t-87 32q-53 0 -85 -32.5t-32 -89.5zM509 671
l-162 -110l-71 83l141 142z" />
    <glyph glyph-name="uniF36F.var.accented" unicode="&#xf36f;`" horiz-adv-x="584" 
d="M352 0v140h-71l-88 -140h-189l123 179q-75 51 -75 144q0 86 62.5 146t191.5 60q44 0 119 -2t87 -2v-525h-160zM268 290h84v85q-10 4 -61 4q-69 0 -69 -45q0 -35 46 -44zM448 671l-162 -110l-71 83l141 142z" />
    <glyph glyph-name="uniF371.var.accented" unicode="&#xf371;`" horiz-adv-x="508" 
d="M74 637q0 34 23.5 54.5t58.5 20.5q29 0 51.5 -20.5t22.5 -54.5q0 -36 -22.5 -57.5t-51.5 -21.5q-35 0 -58.5 21t-23.5 58zM295 637q0 34 23.5 54.5t56.5 20.5q31 0 53.5 -20.5t22.5 -54.5q0 -36 -22.5 -57.5t-53.5 -21.5q-33 0 -56.5 21t-23.5 58zM72 0v525h379v-150
h-219v-37h194v-150h-194v-38h228v-150h-388zM418 781l-162 -110l-71 83l141 142z" />
    <glyph glyph-name="afii10017.var.accented" unicode="&#x410;`" horiz-adv-x="725" 
d="M0 0l291 700h143l291 -700h-171l-58 147h-277l-58 -147h-161zM358 495l-79 -198h157zM547 806l-249 -78l-41 89l234 118z" />
    <glyph glyph-name="afii10022.var.accented" unicode="&#x415;`" horiz-adv-x="575" 
d="M90 0v700h415v-150h-255v-123h225v-150h-225v-127h265v-150h-425zM517 806l-249 -78l-41 89l234 118z" />
    <glyph glyph-name="afii10026.var.accented" unicode="&#x418;`" horiz-adv-x="790" 
d="M230 0h-140v700h160v-435l310 435h140v-700h-160v435zM607 806l-249 -78l-41 89l234 118z" />
    <glyph glyph-name="afii10032.var.accented" unicode="&#x41e;`" horiz-adv-x="824" 
d="M40 350q0 155 103.5 258.5t268.5 103.5q163 0 267.5 -99t104.5 -263q0 -158 -105.5 -260t-266.5 -102q-163 0 -267.5 99t-104.5 263zM210 350q0 -90 59 -151t143 -61q96 0 149 59.5t53 152.5q0 94 -58 153t-144 59q-88 0 -145 -58.5t-57 -153.5zM617 806l-249 -78l-41 89
l234 118z" />
    <glyph glyph-name="afii10037.var.accented" unicode="&#x423;`" horiz-adv-x="701" 
d="M691 700l-235 -534q-37 -84 -86 -125t-119 -41q-29 0 -60 9.5t-46 21.5l56 136q25 -17 49 -17q39 0 52 28l9 21l-301 501h181l197 -342l142 342h161zM567 806l-249 -78l-41 89l234 118z" />
    <glyph glyph-name="afii10045.var.accented" unicode="&#x42b;`" horiz-adv-x="885" 
d="M635 0v700h160v-700h-160zM298 335q-15 0 -48 -5v-178q36 -4 47 -4q100 0 100 97q0 45 -26.5 67.5t-72.5 22.5zM250 700v-219q33 4 62 4q126 0 190.5 -63t64.5 -173q0 -114 -76 -182.5t-213 -68.5q-40 0 -105.5 1t-82.5 1v700h160zM627 806l-249 -78l-41 89l234 118z" />
    <glyph glyph-name="afii10047.var.accented" unicode="&#x42d;`" horiz-adv-x="670" 
d="M181 282v150h275q-23 63 -80 96.5t-138 33.5q-84 0 -152 -51l-61 120q93 81 252 81q154 0 253.5 -100t99.5 -262q0 -168 -101 -265t-273 -97q-73 0 -138 21t-98 52l68 135q70 -58 165 -58q75 0 132.5 35.5t76.5 108.5h-281zM477 806l-249 -78l-41 89l234 118z" />
    <glyph glyph-name="afii10048.var.accented" unicode="&#x42e;`" horiz-adv-x="1084" 
d="M90 0v700h160v-268h88q25 125 117 202.5t227 77.5q162 0 262 -98.5t100 -263.5q0 -159 -101 -260.5t-261 -101.5q-132 0 -229 79.5t-118 214.5h-85v-282h-160zM500 350q0 -89 55 -150.5t132 -61.5q95 0 141 58.5t46 153.5q0 96 -51 154t-136 58q-81 0 -134 -58.5
t-53 -153.5zM767 806l-249 -78l-41 89l234 118z" />
    <glyph glyph-name="afii10049.var.accented" unicode="&#x42f;`" horiz-adv-x="643" 
d="M393 0v225h-71l-133 -225h-179l164 260q-108 64 -108 191q0 109 74 181t227 72q22 0 94 -2t92 -2v-700h-160zM309 375h84v175q-20 4 -58 4q-41 0 -70 -25t-29 -67q0 -37 21 -58.5t52 -28.5zM557 806l-249 -78l-41 89l234 118z" />
    <glyph glyph-name="afii10023.var.accented" unicode="&#x401;`" horiz-adv-x="575" 
d="M70 836q0 36 21 57.5t53 21.5q28 0 49 -21.5t21 -57.5q0 -40 -21 -62.5t-49 -22.5q-32 0 -53 22.5t-21 62.5zM395 836q0 36 22 57.5t53 21.5q28 0 48.5 -21.5t20.5 -57.5q0 -40 -20 -62.5t-49 -22.5q-32 0 -53.5 22.5t-21.5 62.5zM398 901l-125 -161l-53 23l48 172zM90 0
v700h415v-150h-255v-123h225v-150h-225v-127h265v-150h-425z" />
    <glyph glyph-name="afii10065.var.accented" unicode="&#x430;`" horiz-adv-x="465" 
d="M103 309l-37 109q29 18 75.5 31t91.5 13q100 0 143.5 -48t43.5 -143v-271h-130v41q-33 -47 -118 -47q-63 0 -102.5 37.5t-39.5 104.5q0 73 45.5 111t116.5 38q56 0 88 -25q4 77 -62 77q-44 0 -115 -28zM223 119q40 0 57 23v28q-21 15 -57 15q-19 0 -31 -9t-12 -25
q0 -15 12 -23.5t31 -8.5zM384 649l-131 -146l-89 63l103 172z" />
    <glyph glyph-name="afii10070.var.accented" unicode="&#x435;`" horiz-adv-x="512" 
d="M408 145l41 -106q-68 -51 -175 -51q-111 0 -177.5 65t-66.5 172q0 101 67.5 169t176.5 68q90 0 154 -59.5t64 -152.5q0 -45 -9 -75h-298q20 -62 105 -62q67 0 118 32zM269 337q-67 0 -89 -62h162q0 25 -19.5 43.5t-53.5 18.5zM408 649l-131 -146l-89 63l103 172z" />
    <glyph glyph-name="afii10074.var.accented" unicode="&#x438;`" horiz-adv-x="570" 
d="M205 0h-150v450h150v-235l160 235h150v-450h-150v235zM419 649l-131 -146l-89 63l103 172z" />
    <glyph glyph-name="afii10080.var.accented" unicode="&#x43e;`" horiz-adv-x="560" 
d="M30 225q0 103 68.5 170t181.5 67t181.5 -67t68.5 -170t-68.5 -170t-181.5 -67t-181.5 67t-68.5 170zM190 225q0 -42 25.5 -69.5t64.5 -27.5t64.5 26t25.5 71q0 43 -26 70t-64 27t-64 -26.5t-26 -70.5zM424 649l-131 -146l-89 63l103 172z" />
    <glyph glyph-name="afii10085.var.accented" unicode="&#x443;`" horiz-adv-x="516" 
d="M516 450l-175 -450q-48 -118 -86 -159t-91 -41q-57 0 -107 42l48 113q24 -16 43 -16q28 0 43 37l10 24l-201 450h181l77 -206q6 -16 17 -62q4 40 11 63l59 205h171zM394 649l-131 -146l-89 63l103 172z" />
    <glyph glyph-name="afii10093.var.accented" unicode="&#x44b;`" horiz-adv-x="705" 
d="M55 0v450h150v-105h47q109 0 157 -46.5t48 -115.5q0 -76 -53 -129.5t-163 -53.5h-186zM500 0v450h150v-450h-150zM239 225h-34v-95h33q59 0 59 47q0 48 -58 48zM464 649l-131 -146l-89 63l103 172z" />
    <glyph glyph-name="afii10095.var.accented" unicode="&#x44d;`" horiz-adv-x="496" 
d="M129 177v100h177q-23 55 -94 55q-55 0 -120 -40l-61 104q32 32 82 49t96 17q120 0 188.5 -64t68.5 -173q0 -103 -65.5 -170t-182.5 -67q-124 0 -193 72l70 98q45 -40 114 -40q82 0 100 59h-180zM355 649l-131 -146l-89 63l103 172z" />
    <glyph glyph-name="afii10096.var.accented" unicode="&#x44e;`" horiz-adv-x="785" 
d="M55 0v450h160v-145h61q22 72 82.5 114.5t146.5 42.5q112 0 181 -67t69 -170q0 -102 -69.5 -169.5t-180.5 -67.5q-90 0 -151 45.5t-81 121.5h-58v-155h-160zM435 225q0 -42 21 -64.5t54 -22.5q34 0 54.5 22.5t20.5 64.5q0 41 -19.5 64t-55.5 23q-33 0 -54 -23t-21 -64z
M539 649l-131 -146l-89 63l103 172z" />
    <glyph glyph-name="afii10097.var.accented" unicode="&#x44f;`" horiz-adv-x="503" 
d="M293 450h155v-450h-150v115h-36l-71 -115h-171l107 148q-75 40 -75 133q0 75 59.5 122t181.5 47zM212 269q0 -18 17 -31t42 -13h27v95h-29q-25 0 -41 -16t-16 -35zM411 649l-131 -146l-89 63l103 172z" />
    <glyph glyph-name="afii10071.var.accented" unicode="&#x451;`" horiz-adv-x="512" 
d="M47 574q0 31 19 48.5t48 17.5q25 0 43.5 -18t18.5 -48q0 -33 -18.5 -51.5t-43.5 -18.5q-29 0 -48 18.5t-19 51.5zM361 574q0 30 19.5 48t47.5 18q25 0 43.5 -18t18.5 -48q0 -33 -18 -51.5t-44 -18.5q-28 0 -47.5 18.5t-19.5 51.5zM388 649l-131 -146l-69 49l103 172z
M408 145l41 -106q-68 -51 -175 -51q-111 0 -177.5 65t-66.5 172q0 101 67.5 169t176.5 68q90 0 154 -59.5t64 -152.5q0 -45 -9 -75h-298q20 -62 105 -62q67 0 118 32zM269 337q-67 0 -89 -62h162q0 25 -19.5 43.5t-53.5 18.5z" />
    <glyph glyph-name="fi" unicode="fi" horiz-adv-x="547" 
d="M342 0v310h-137v-310h-150v500q0 107 57.5 159.5t156.5 52.5q155 0 220 -113l-109 -84q-10 24 -32.5 40.5t-51.5 16.5q-47 0 -69 -18t-22 -64v-40h287v-450h-150z" />
    <glyph glyph-name="fl" unicode="fl" horiz-adv-x="579" 
d="M325 129v421q-32 22 -61 22q-59 0 -59 -58v-64h60v-140h-60v-310h-150v523q0 92 43.5 140.5t120.5 48.5q76 0 119 -28h137v-498q0 -58 25 -58q14 0 39 16l30 -114q-51 -42 -132 -42q-112 0 -112 141z" />
    <glyph glyph-name=".notdef" horiz-adv-x="200" 
 />
    <glyph glyph-name=".null" horiz-adv-x="0" 
 />
    <glyph glyph-name="nonmarkingreturn" horiz-adv-x="333" 
 />
    <glyph glyph-name="space" unicode=" " horiz-adv-x="200" 
 />
    <glyph glyph-name="exclam" unicode="!" horiz-adv-x="310" 
d="M75 270v430h160v-430h-160zM57 96q0 36 28 65t74 29q40 0 67 -29t27 -65q0 -41 -26.5 -71.5t-67.5 -30.5q-46 0 -74 30t-28 72z" />
    <glyph glyph-name="quotedbl" unicode="&#x22;" horiz-adv-x="450" 
d="M250 440v260h150v-260h-150zM50 440v260h150v-260h-150z" />
    <glyph glyph-name="numbersign" unicode="#" horiz-adv-x="744" 
d="M309 29l50 136h-120l-66 -177l-116 40l51 137h-68v130h116l41 110h-157v130h205l66 177l116 -42l-50 -135h118l66 177l116 -40l-51 -137h78v-130h-126l-41 -110h167v-130h-215l-65 -177zM328 405l-41 -110h120l40 110h-119z" />
    <glyph glyph-name="dollar" unicode="$" 
d="M367 192q0 28 -30 50.5t-73 42.5t-86 45t-73 71t-30 109q0 64 42 116.5t113 73.5v90h150v-85q87 -16 137 -70l-86 -120q-27 25 -48.5 36t-57.5 11q-80 0 -80 -52q0 -27 21.5 -48t54 -34.5t70.5 -33.5t70.5 -42.5t54 -63t21.5 -94.5q0 -74 -42.5 -126.5t-114.5 -70.5v-97
h-150v97q-124 27 -160 106l91 109q28 -36 69.5 -55t80.5 -19q56 0 56 54z" />
    <glyph glyph-name="percent" unicode="%" horiz-adv-x="945" 
d="M180 47l497 665l84 -63l-495 -661zM30 526q0 85 59 135.5t152 50.5t152 -50.5t59 -135.5t-59 -136.5t-152 -51.5t-152 51.5t-59 136.5zM170 526q0 -32 20 -50t51 -18q33 0 52 18t19 50q0 30 -19.5 48t-51.5 18t-51.5 -18t-19.5 -48zM493 176q0 85 59 135.5t152 50.5
t152 -50.5t59 -135.5t-59 -136.5t-152 -51.5t-152 51.5t-59 136.5zM633 176q0 -32 20 -50t51 -18q33 0 52 18t19 50q0 30 -19.5 48t-51.5 18t-51.5 -18t-19.5 -48z" />
    <glyph glyph-name="ampersand" unicode="&#x26;" horiz-adv-x="762" 
d="M536 0l-45 55q-73 -67 -196 -67q-111 0 -178 56.5t-67 145.5q0 56 20.5 99t47.5 68t77 60q-69 48 -69 136q0 73 52.5 116t125.5 43t126 -43t53 -116q0 -43 -22.5 -81.5t-54.5 -55.5l101 -135q37 81 37 169h149q0 -168 -96 -289l125 -161h-186zM300 138q70 0 101 37
l-108 156q-44 -38 -58.5 -61t-14.5 -49q0 -33 23 -58t57 -25zM266 553q0 -16 10.5 -27t27.5 -11t28 11t11 27t-11.5 27.5t-27.5 11.5q-17 0 -27.5 -11t-10.5 -28z" />
    <glyph glyph-name="quotesingle" unicode="'" horiz-adv-x="250" 
d="M50 440v260h150v-260h-150z" />
    <glyph glyph-name="parenleft" unicode="(" horiz-adv-x="337" 
d="M337 -124l-95 -82q-202 174 -202 431q0 248 203 431l93 -82q-74 -76 -110 -159t-36 -190q0 -104 42 -196t105 -153z" />
    <glyph glyph-name="parenright" unicode=")" horiz-adv-x="337" 
d="M95 -206l-95 82q63 61 105 153t42 196q0 107 -36 190t-110 159l93 82q203 -183 203 -431q0 -257 -202 -431z" />
    <glyph glyph-name="asterisk" unicode="*" horiz-adv-x="516" 
d="M186 638q0 30 21 51.5t51 21.5t51.5 -21.5t21.5 -51.5t-21.5 -51t-51.5 -21t-51 21t-21 51zM184 305q0 30 21 51.5t51 21.5t51.5 -21.5t21.5 -51.5t-21.5 -51t-51.5 -21t-51 21t-21 51zM331 557q0 30 21 51.5t51 21.5t51.5 -21.5t21.5 -51.5t-21.5 -51t-51.5 -21t-51 21
t-21 51zM331 391q0 30 21 51.5t51 21.5t51.5 -21.5t21.5 -51.5t-21.5 -51t-51.5 -21t-51 21t-21 51zM40 391q0 30 21 51.5t51 21.5t51.5 -21.5t21.5 -51.5t-21.5 -51t-51.5 -21t-51 21t-21 51zM40 557q0 30 21 51.5t51 21.5t51.5 -21.5t21.5 -51.5t-21.5 -51t-51.5 -21
t-51 21t-21 51z" />
    <glyph glyph-name="plus" unicode="+" 
d="M63 295v130h166v171h140v-171h168v-130h-168v-173h-140v173h-166z" />
    <glyph glyph-name="comma" unicode="," horiz-adv-x="281" 
d="M40 81q0 42 25 67.5t72 25.5q48 0 76 -35.5t28 -90.5q0 -71 -37 -121t-106 -71l-41 69q40 17 58 39q23 27 20 43q-7 -7 -31 -7q-25 0 -44.5 23.5t-19.5 57.5z" />
    <glyph glyph-name="hyphen" unicode="-" horiz-adv-x="364" 
d="M50 205v140h264v-140h-264z" />
    <glyph glyph-name="period" unicode="." horiz-adv-x="276" 
d="M40 96q0 36 28 65t74 29q40 0 67 -29t27 -65q0 -41 -26.5 -71.5t-67.5 -30.5q-46 0 -74 30t-28 72z" />
    <glyph glyph-name="slash" unicode="/" horiz-adv-x="382" 
d="M-30 -165l327 877l115 -43l-326 -877z" />
    <glyph glyph-name="zero" unicode="0" horiz-adv-x="544" 
d="M30 350q0 168 61.5 263t180.5 95t180.5 -95t61.5 -263t-60.5 -263t-179.5 -95q-120 0 -182 95.5t-62 262.5zM190 350q0 -218 84 -218q43 0 61.5 48.5t18.5 169.5t-19 169.5t-63 48.5q-43 0 -62.5 -50t-19.5 -168z" />
    <glyph glyph-name="one" unicode="1" horiz-adv-x="398" 
d="M10 562l190 138h108v-700h-150v487l-70 -49z" />
    <glyph glyph-name="two" unicode="2" horiz-adv-x="522" 
d="M30 0v120q9 8 49.5 47.5t54.5 54.5l48 50.5t48 56.5l33.5 51.5t27 56.5t7.5 52q0 69 -64 69q-30 0 -47 -19.5t-30 -55.5l-125 57q17 77 73.5 122.5t146.5 45.5q97 0 151.5 -55t54.5 -134q0 -199 -234 -379h258v-140h-452z" />
    <glyph glyph-name="three" unicode="3" horiz-adv-x="529" 
d="M241 -12q-83 0 -142 32.5t-89 83.5l83 111q67 -77 138 -77q43 0 65.5 19.5t22.5 48.5q0 77 -119 77h-44v150h40q42 0 69 18t27 52q0 25 -15.5 42t-48.5 17q-70 0 -121 -63l-82 108q65 105 217 105q93 0 151.5 -48.5t58.5 -130.5q0 -61 -25.5 -100.5t-78.5 -63.5v-3
q63 -12 97 -57t34 -109q0 -97 -67.5 -154.5t-170.5 -57.5z" />
    <glyph glyph-name="four" unicode="4" horiz-adv-x="580" 
d="M328 0v150h-318v112l250 438h172l-229 -400h125v150h150v-150h82v-150h-82v-150h-150z" />
    <glyph glyph-name="five" unicode="5" horiz-adv-x="512" 
d="M63 308l48 392h346v-150h-214l-14 -89h24q94 0 156.5 -62t62.5 -166q0 -114 -72 -179.5t-183 -65.5q-58 0 -117.5 25.5t-89.5 68.5l84 115q21 -25 57 -42t70 -17q40 0 65.5 24.5t25.5 63.5q0 44 -34 72t-95 28q-82 0 -120 -18z" />
    <glyph glyph-name="six" unicode="6" horiz-adv-x="564" 
d="M40 248q0 92 32.5 174.5t85 139.5t112 95.5t118.5 54.5l61 -113q-79 -27 -140 -79t-91 -122q41 38 123 38q78 0 135.5 -60t57.5 -153q0 -110 -71 -172.5t-165 -62.5q-115 0 -186.5 75t-71.5 185zM200 247q0 -50 26 -79.5t73 -29.5q37 0 56 22t19 52q0 37 -22 60.5
t-63 23.5q-55 0 -89 -49z" />
    <glyph glyph-name="seven" unicode="7" horiz-adv-x="510" 
d="M20 550v150h460v-102l-237 -598h-164l222 550h-281z" />
    <glyph glyph-name="eight" unicode="8" horiz-adv-x="605" 
d="M297 435h13q33 0 50.5 19.5t17.5 45.5q0 62 -77 62q-37 0 -55.5 -17.5t-18.5 -44.5q0 -26 18 -45.5t52 -19.5zM310 285h-12q-36 0 -62 -19.5t-26 -54.5q0 -32 22.5 -52.5t69.5 -20.5q95 0 93 73q-1 36 -24 55t-61 19zM303 -12q-111 0 -182 52.5t-71 140.5q0 66 30 111.5
t77 65.5v3q-39 21 -64.5 63t-25.5 103q0 81 67.5 133t167.5 52t168 -52t68 -133q0 -52 -27 -97t-73 -68v-3q49 -13 83 -56.5t34 -108.5q0 -97 -70 -151.5t-182 -54.5z" />
    <glyph glyph-name="nine" unicode="9" horiz-adv-x="559" 
d="M519 442q0 -197 -104 -317t-264 -137l-49 119q189 41 239 185q-41 -38 -109 -38q-87 0 -149.5 62t-62.5 156q0 110 73.5 175t167.5 65q117 0 187.5 -74t70.5 -196zM359 443q0 51 -26.5 85t-72.5 34q-37 0 -58.5 -24.5t-21.5 -54.5q0 -37 24.5 -63t65.5 -26q55 0 89 49z
" />
    <glyph glyph-name="colon" unicode=":" horiz-adv-x="316" 
d="M60 368q0 36 28 65t74 29q40 0 67 -29t27 -65q0 -41 -26.5 -71.5t-67.5 -30.5q-46 0 -74 30t-28 72zM60 96q0 36 28 65t74 29q40 0 67 -29t27 -65q0 -41 -26.5 -71.5t-67.5 -30.5q-46 0 -74 30t-28 72z" />
    <glyph glyph-name="semicolon" unicode=";" horiz-adv-x="323" 
d="M60 368q0 36 28 65t74 29q40 0 67 -29t27 -65q0 -41 -26.5 -71.5t-67.5 -30.5q-46 0 -74 30t-28 72zM62 81q0 42 25 67.5t72 25.5q48 0 76 -35.5t28 -90.5q0 -71 -37 -121t-106 -71l-41 69q40 17 58 39q23 27 20 43q-7 -7 -31 -7q-25 0 -44.5 23.5t-19.5 57.5z" />
    <glyph glyph-name="less" unicode="&#x3c;" 
d="M530 54l-490 276v64l490 274v-162l-284 -144l284 -146v-162z" />
    <glyph glyph-name="equal" unicode="=" 
d="M63 395v130h474v-130h-474zM63 195v130h474v-130h-474z" />
    <glyph glyph-name="greater" unicode="&#x3e;" 
d="M560 330l-490 -276v162l284 146l-284 144v162l490 -274v-64z" />
    <glyph glyph-name="question" unicode="?" horiz-adv-x="481" 
d="M300 500q0 24 -19.5 43t-46.5 19q-37 0 -60 -12.5t-46 -41.5l-88 101q28 46 81 74.5t121 28.5q100 0 159.5 -51.5t59.5 -127.5q0 -54 -19 -95.5t-45.5 -66t-52.5 -45t-42.5 -44t-12.5 -50.5h-136q-6 46 6.5 80t35.5 54.5t46.5 38t41 41.5t17.5 54zM127 96q0 36 28 65
t74 29q40 0 67 -29t27 -65q0 -41 -26.5 -71.5t-67.5 -30.5q-46 0 -74 30t-28 72z" />
    <glyph glyph-name="at" unicode="@" horiz-adv-x="986" 
d="M569 0v23q-45 -35 -107 -35q-101 0 -160.5 65t-59.5 172q0 100 73.5 168.5t189.5 68.5q59 0 117.5 -16t96.5 -40v-266h19q23 0 40.5 35.5t17.5 100.5q0 105 -78.5 178.5t-214.5 73.5q-132 0 -222.5 -80t-90.5 -223q0 -133 92 -218t221 -85q57 0 108 12l5 -139
q-58 -13 -113 -13q-196 0 -324.5 124.5t-128.5 318.5q0 187 130 315t323 128q187 0 310 -108t123 -284q0 -108 -58 -188t-159 -88h-150zM489 128q45 0 80 33v145q-34 16 -65 16q-53 0 -77.5 -29.5t-24.5 -74.5q0 -43 24.5 -66.5t62.5 -23.5z" />
    <glyph glyph-name="A" unicode="A" horiz-adv-x="725" 
d="M0 0l291 700h143l291 -700h-171l-58 147h-277l-58 -147h-161zM358 495l-79 -198h157z" />
    <glyph glyph-name="B" unicode="B" horiz-adv-x="617" 
d="M90 2v696q117 6 212 6q119 0 177 -48t58 -126q0 -104 -80 -156v-2q43 -16 71.5 -56.5t28.5 -103.5q0 -106 -73.5 -161t-192.5 -55q-139 0 -201 6zM312 283h-62v-131q22 -6 54 -6q93 0 93 74q0 63 -85 63zM300 554q-14 0 -50 -4v-127h53q74 0 74 68q0 30 -22.5 46.5
t-54.5 16.5z" />
    <glyph glyph-name="C" unicode="C" horiz-adv-x="655" 
d="M574 189l61 -120q-32 -36 -95 -58.5t-133 -22.5q-163 0 -265 99.5t-102 262.5q0 158 96 260t270 102q67 0 124 -20.5t90 -52.5l-71 -120q-71 43 -143 43q-85 0 -140.5 -56t-55.5 -156q0 -93 59 -152.5t153 -59.5q84 0 152 51z" />
    <glyph glyph-name="D" unicode="D" horiz-adv-x="744" 
d="M90 0v700h14q17 0 100 1.5t107 1.5q198 0 295.5 -98t97.5 -249q0 -155 -104.5 -256.5t-296.5 -101.5q-15 0 -87 1t-109 1h-17zM309 553q-39 0 -59 -3v-400q21 -2 58 -2q105 0 165.5 54.5t60.5 153.5q0 94 -62 145.5t-163 51.5z" />
    <glyph glyph-name="E" unicode="E" horiz-adv-x="575" 
d="M90 0v700h415v-150h-255v-123h225v-150h-225v-127h265v-150h-425z" />
    <glyph glyph-name="F" unicode="F" horiz-adv-x="535" 
d="M90 0v700h405v-150h-245v-148h215v-150h-215v-252h-160z" />
    <glyph glyph-name="G" unicode="G" horiz-adv-x="727" 
d="M378 249v150h299v-312q-45 -45 -119.5 -72t-142.5 -27q-177 0 -276 98t-99 264q0 155 97 258.5t258 103.5q137 0 229 -73l-67 -129q-21 22 -61.5 37t-81.5 15q-91 0 -147.5 -54t-56.5 -158q0 -97 56.5 -154.5t150.5 -57.5q30 0 63.5 11.5t46.5 23.5v76h-149z" />
    <glyph glyph-name="H" unicode="H" horiz-adv-x="755" 
d="M505 0v282h-255v-282h-160v700h160v-268h255v268h160v-700h-160z" />
    <glyph glyph-name="I" unicode="I" horiz-adv-x="360" 
d="M100 0v700h160v-700h-160z" />
    <glyph glyph-name="J" unicode="J" horiz-adv-x="407" 
d="M317 700v-529q0 -89 -48 -136t-137 -47q-42 0 -79.5 15t-52.5 34l52 122q28 -21 58 -21q22 0 34.5 16t12.5 46v500h160z" />
    <glyph glyph-name="K" unicode="K" horiz-adv-x="692" 
d="M90 0v700h160v-305l229 305h192l-263 -323l284 -377h-203l-239 333v-333h-160z" />
    <glyph glyph-name="L" unicode="L" horiz-adv-x="545" 
d="M90 0v700h160v-550h285v-150h-445z" />
    <glyph glyph-name="M" unicode="M" horiz-adv-x="912" 
d="M90 0v700h161l216 -295l204 295h151v-700h-160v446l-195 -273h-23l-194 270v-443h-160z" />
    <glyph glyph-name="N" unicode="N" horiz-adv-x="790" 
d="M700 0h-128l-332 420v-420h-150v700h128l332 -422v422h150v-700z" />
    <glyph glyph-name="O" unicode="O" horiz-adv-x="824" 
d="M40 350q0 155 103.5 258.5t268.5 103.5q163 0 267.5 -99t104.5 -263q0 -158 -105.5 -260t-266.5 -102q-163 0 -267.5 99t-104.5 263zM210 350q0 -90 59 -151t143 -61q96 0 149 59.5t53 152.5q0 94 -58 153t-144 59q-88 0 -145 -58.5t-57 -153.5z" />
    <glyph glyph-name="P" unicode="P" horiz-adv-x="627" 
d="M250 0h-160v700q18 0 101.5 1t112.5 1q149 0 216 -65.5t67 -166.5q0 -98 -71 -166.5t-188 -68.5q-53 0 -78 3v-238zM320 552q-4 0 -70 -2v-160q38 -5 73 -5q38 0 66 20t28 66q0 81 -97 81z" />
    <glyph glyph-name="Q" unicode="Q" horiz-adv-x="824" 
d="M40 350q0 155 103.5 258.5t268.5 103.5q163 0 267.5 -99t104.5 -263q0 -142 -87 -240l95 -110h-185l-22 25q-79 -37 -173 -37q-163 0 -267.5 99t-104.5 263zM210 350q0 -90 59 -151t143 -61q37 0 68 9l-55 64l105 94l58 -68q26 49 26 113q0 94 -58 153t-144 59
q-88 0 -145 -58.5t-57 -153.5z" />
    <glyph glyph-name="R" unicode="R" horiz-adv-x="673" 
d="M250 0h-160v700q22 0 126 1t112 1q136 0 197.5 -60t61.5 -164q0 -143 -118 -202l204 -276h-194l-170 245h-59v-245zM320 552q-4 0 -70 -2v-155h58q109 0 109 81q0 76 -97 76z" />
    <glyph glyph-name="S" unicode="S" horiz-adv-x="557" 
d="M347 192q0 28 -30 50.5t-73 42.5t-86 45t-73 71t-30 109q0 84 62 143t164 59q134 0 206 -77l-86 -120q-27 25 -48.5 36t-57.5 11q-33 0 -51.5 -14t-18.5 -38q0 -27 21.5 -48t54 -34.5t70.5 -33.5t70.5 -42.5t54 -63t21.5 -94.5q0 -90 -68.5 -148t-171.5 -58
q-75 0 -144 31t-93 84l91 109q28 -36 69.5 -55t80.5 -19q31 0 48.5 14.5t17.5 39.5z" />
    <glyph glyph-name="T" unicode="T" 
d="M10 550v150h580v-150h-210v-550h-160v550h-210z" />
    <glyph glyph-name="U" unicode="U" horiz-adv-x="751" 
d="M671 700v-411q0 -151 -81.5 -226t-204.5 -75q-139 0 -222 79t-83 229v404h160v-370q0 -192 145 -192q69 0 97.5 46.5t28.5 136.5v379h160z" />
    <glyph glyph-name="V" unicode="V" horiz-adv-x="656" 
d="M666 700l-273 -700h-123l-280 700h171l176 -462l168 462h161z" />
    <glyph glyph-name="W" unicode="W" horiz-adv-x="1000" 
d="M1000 700l-197 -700h-153l-146 450l-144 -450h-153l-207 700h181l118 -442l131 442h161l135 -442l120 442h154z" />
    <glyph glyph-name="X" unicode="X" horiz-adv-x="674" 
d="M665 700l-224 -343l233 -357h-188l-150 235l-148 -235h-188l233 357l-222 343h188l142 -225l136 225h188z" />
    <glyph glyph-name="Y" unicode="Y" horiz-adv-x="654" 
d="M654 700l-248 -415v-285h-160v285l-246 415h183l150 -265l148 265h173z" />
    <glyph glyph-name="Z" unicode="Z" horiz-adv-x="650" 
d="M60 550v150h540v-112l-347 -438h357v-150h-570v112l346 438h-326z" />
    <glyph glyph-name="bracketleft" unicode="[" horiz-adv-x="380" 
d="M60 -200v850h300v-140h-150v-570h150v-140h-300z" />
    <glyph glyph-name="backslash" unicode="\" horiz-adv-x="382" 
d="M85 712l327 -877l-116 -43l-326 877z" />
    <glyph glyph-name="bracketright" unicode="]" horiz-adv-x="380" 
d="M320 650v-850h-300v140h150v570h-150v140h300z" />
    <glyph glyph-name="asciicircum" unicode="^" horiz-adv-x="522" 
d="M20 450l190 258h104l188 -258h-162l-79 110l-79 -110h-162z" />
    <glyph glyph-name="underscore" unicode="_" horiz-adv-x="375" 
d="M0 -200v150h375v-150h-375z" />
    <glyph glyph-name="grave" unicode="`" horiz-adv-x="342" 
d="M193 503l-133 144l119 89l103 -170z" />
    <glyph glyph-name="a" unicode="a" horiz-adv-x="465" 
d="M103 309l-37 109q29 18 75.5 31t91.5 13q100 0 143.5 -48t43.5 -143v-271h-130v41q-33 -47 -118 -47q-63 0 -102.5 37.5t-39.5 104.5q0 73 45.5 111t116.5 38q56 0 88 -25q4 77 -62 77q-44 0 -115 -28zM223 119q40 0 57 23v28q-21 15 -57 15q-19 0 -31 -9t-12 -25
q0 -15 12 -23.5t31 -8.5z" />
    <glyph glyph-name="b" unicode="b" horiz-adv-x="547" 
d="M55 36v664h150v-262q46 24 99 24q98 0 155.5 -64t57.5 -166q0 -112 -70 -178t-193 -66q-53 0 -109 14.5t-90 33.5zM268 322q-34 0 -63 -29v-152q24 -13 56 -13q42 0 69 25t27 70q0 49 -26.5 74t-62.5 25z" />
    <glyph glyph-name="c" unicode="c" horiz-adv-x="485" 
d="M391 178l70 -110q-58 -80 -184 -80q-112 0 -179.5 65t-67.5 172q0 100 66.5 168.5t171.5 68.5q123 0 184 -64l-69 -118q-42 42 -96 42q-38 0 -67.5 -26t-29.5 -71q0 -43 30.5 -70t68.5 -27q55 0 102 50z" />
    <glyph glyph-name="d" unicode="d" horiz-adv-x="557" 
d="M352 0v37q-47 -45 -114 -45q-95 0 -151.5 62t-56.5 165q0 107 69 175t179 68q44 0 74 -14v252h150v-700h-150zM269 132q47 0 83 33v138q-33 19 -67 19q-39 0 -67 -25.5t-28 -72.5q0 -43 24 -67.5t55 -24.5z" />
    <glyph glyph-name="e" unicode="e" horiz-adv-x="512" 
d="M408 145l41 -106q-68 -51 -175 -51q-111 0 -177.5 65t-66.5 172q0 101 67.5 169t176.5 68q90 0 154 -59.5t64 -152.5q0 -45 -9 -75h-298q20 -62 105 -62q67 0 118 32zM269 337q-67 0 -89 -62h162q0 25 -19.5 43.5t-53.5 18.5z" />
    <glyph glyph-name="f" unicode="f" horiz-adv-x="320" 
d="M55 0v523q0 92 43.5 140.5t120.5 48.5q40 0 76.5 -12t54.5 -32l-50 -114q-17 18 -54 18q-17 0 -29 -15t-12 -43v-64h95v-140h-95v-310h-150z" />
    <glyph glyph-name="g" unicode="g" horiz-adv-x="504" 
d="M0 -58q0 56 40 92t109 50q-6 12 -6 25q0 15 7 26q-52 21 -81.5 62.5t-29.5 91.5q0 71 54.5 122t144.5 51q66 0 115 -30l141 28l5 -120l-67 -13q5 -22 5 -38q0 -67 -50.5 -115.5t-132.5 -53.5q-1 -4 -1 -11q0 -8 3 -17q98 -3 160 -41t62 -109q0 -74 -67 -112t-172 -38
q-106 0 -172.5 37t-66.5 113zM140 -58q0 -30 99 -30t99 30q0 31 -99 31t-99 -31zM179 289q0 -22 15.5 -35.5t43.5 -13.5q26 0 42.5 13t16.5 36t-15 38t-44 15q-27 0 -43 -15.5t-16 -37.5z" />
    <glyph glyph-name="h" unicode="h" horiz-adv-x="544" 
d="M55 0v700h150v-281q44 39 111 39q84 0 133.5 -47t49.5 -147v-264h-150v245q0 33 -20 53t-52 20q-43 0 -72 -29v-289h-150z" />
    <glyph glyph-name="i" unicode="i" horiz-adv-x="286" 
d="M68 0v450h150v-450h-150zM55 605q0 39 26.5 62t64.5 23q34 0 59.5 -23.5t25.5 -61.5q0 -42 -25.5 -66.5t-59.5 -24.5q-39 0 -65 24t-26 67z" />
    <glyph glyph-name="j" unicode="j" horiz-adv-x="281" 
d="M226 450v-483q0 -175 -141 -175q-38 0 -71.5 10t-48.5 24l39 119q23 -13 44 -13q28 0 28 49v469h150zM64 605q0 39 26.5 62t64.5 23q34 0 59.5 -23.5t25.5 -61.5q0 -42 -25.5 -66.5t-59.5 -24.5q-39 0 -65 24t-26 67z" />
    <glyph glyph-name="k" unicode="k" horiz-adv-x="537" 
d="M55 0v700h150v-445l123 195h188l-146 -203l167 -247h-192l-140 215v-215h-150z" />
    <glyph glyph-name="l" unicode="l" horiz-adv-x="309" 
d="M55 129v571h150v-514q0 -58 25 -58q14 0 39 16l30 -114q-51 -42 -132 -42q-112 0 -112 141z" />
    <glyph glyph-name="m" unicode="m" horiz-adv-x="798" 
d="M753 294v-294h-150v254q0 64 -56 64q-23 0 -41.5 -11t-26.5 -28v-279h-150v255q0 63 -53 63q-46 0 -71 -36v-282h-150v450h150v-42q50 50 133 50q49 0 82 -18.5t46 -47.5q54 66 145 66q142 0 142 -164z" />
    <glyph glyph-name="n" unicode="n" horiz-adv-x="544" 
d="M55 0v450h150v-35q45 43 111 43q183 0 183 -190v-268h-150v242q0 38 -20 57t-54 19q-39 0 -70 -31v-287h-150z" />
    <glyph glyph-name="o" unicode="o" horiz-adv-x="560" 
d="M30 225q0 103 68.5 170t181.5 67t181.5 -67t68.5 -170t-68.5 -170t-181.5 -67t-181.5 67t-68.5 170zM190 225q0 -42 25.5 -69.5t64.5 -27.5t64.5 26t25.5 71q0 43 -26 70t-64 27t-64 -26.5t-26 -70.5z" />
    <glyph glyph-name="p" unicode="p" horiz-adv-x="561" 
d="M55 -200v650h150v-34q46 46 125 46q90 0 145.5 -64.5t55.5 -165.5q0 -105 -67 -174.5t-175 -69.5q-51 0 -84 14v-202h-150zM283 322q-42 0 -78 -40v-137q29 -17 70 -17q47 0 71.5 28.5t24.5 72.5q0 41 -23.5 67t-64.5 26z" />
    <glyph glyph-name="q" unicode="q" horiz-adv-x="562" 
d="M357 -200v209q-47 -21 -90 -21q-109 0 -173 65t-64 172q0 100 73.5 168.5t189.5 68.5q59 0 117.5 -16t96.5 -40v-606h-150zM287 128q43 0 70 26v152q-34 16 -65 16q-53 0 -77.5 -29.5t-24.5 -74.5q0 -37 27 -63.5t70 -26.5z" />
    <glyph glyph-name="r" unicode="r" horiz-adv-x="368" 
d="M55 0v450h150v-36q30 44 93 44q47 0 70 -17l-53 -140q-29 17 -55 17q-37 0 -55 -32v-286h-150z" />
    <glyph glyph-name="s" unicode="s" horiz-adv-x="459" 
d="M279 133q0 13 -24.5 21.5t-59.5 17t-70 22t-59.5 44.5t-24.5 77q0 70 50 108.5t126 38.5q119 0 189 -61l-56 -106q-61 42 -124 42q-16 0 -25.5 -6t-9.5 -14q0 -12 24.5 -20.5t59.5 -16.5t70 -21.5t59.5 -43.5t24.5 -75q0 -69 -52.5 -110.5t-141.5 -41.5
q-66 0 -126.5 27.5t-78.5 55.5l71 98q21 -21 66 -38.5t78 -17.5q34 0 34 20z" />
    <glyph glyph-name="t" unicode="t" horiz-adv-x="366" 
d="M45 171v404h150v-125h125v-140h-125v-132q0 -50 29 -50q32 0 67 26l45 -115q-59 -51 -151 -51q-74 0 -107 46.5t-33 136.5z" />
    <glyph glyph-name="u" unicode="u" horiz-adv-x="530" 
d="M475 450v-450h-150v45q-45 -57 -129 -57q-62 0 -106.5 46t-44.5 133v283h150v-251q0 -30 14 -50.5t44 -20.5q39 0 72 41v281h150z" />
    <glyph glyph-name="v" unicode="v" horiz-adv-x="486" 
d="M496 450l-189 -450h-113l-204 450h178l58 -142q20 -48 30 -104q10 57 29 105l53 141h158z" />
    <glyph glyph-name="w" unicode="w" horiz-adv-x="736" 
d="M736 450l-139 -450h-137l-80 208q-2 5 -13 51q-4 -30 -14 -53l-80 -206h-129l-144 450h161l55 -206q3 -11 10 -57q6 37 13 57l68 206h134l70 -205q5 -13 14 -59q6 43 11 61l49 203h151z" />
    <glyph glyph-name="x" unicode="x" horiz-adv-x="537" 
d="M517 450l-140 -214l150 -236h-183l-78 142l-83 -142h-173l149 228l-139 222h183l69 -128l72 128h173z" />
    <glyph glyph-name="y" unicode="y" horiz-adv-x="516" 
d="M516 450l-175 -450q-48 -118 -86 -159t-91 -41q-57 0 -107 42l48 113q24 -16 43 -16q28 0 43 37l10 24l-201 450h181l77 -206q6 -16 17 -62q4 40 11 63l59 205h171z" />
    <glyph glyph-name="z" unicode="z" horiz-adv-x="495" 
d="M55 310v140h400v-110l-207 -200h202v-140h-410v110l206 200h-191z" />
    <glyph glyph-name="braceleft" unicode="{" horiz-adv-x="390" 
d="M110 -43v105q0 54 -27 76.5t-63 21.5v130q35 0 62.5 25t27.5 85v85q0 86 40 125.5t137 39.5h83v-140h-45q-38 0 -51.5 -15.5t-13.5 -62.5v-92q0 -48 -20.5 -78.5t-54.5 -35.5q75 -9 75 -114v-92q0 -44 15.5 -62t55.5 -18h39v-140h-95q-82 0 -123.5 36.5t-41.5 120.5z" />
    <glyph glyph-name="bar" unicode="|" horiz-adv-x="350" 
d="M100 0v700h150v-700h-150z" />
    <glyph glyph-name="braceright" unicode="}" horiz-adv-x="390" 
d="M280 62v-105q0 -84 -41.5 -120.5t-123.5 -36.5h-95v140h39q40 0 55.5 18t15.5 62v92q0 105 75 114q-34 5 -54.5 35.5t-20.5 78.5v92q0 47 -13.5 62.5t-51.5 15.5h-45v140h83q97 0 137 -39.5t40 -125.5v-85q0 -60 27.5 -85t62.5 -25v-130q-36 1 -63 -21.5t-27 -76.5z" />
    <glyph glyph-name="asciitilde" unicode="~" 
d="M97 269l-64 96q33 40 75 65t82 25q42 0 119 -33t115 -33q22 0 46 13.5t39 31.5l58 -103q-76 -72 -144 -72q-42 0 -116.5 33t-106.5 33q-47 0 -103 -56z" />
    <glyph glyph-name="uni00A0" unicode="&#xa0;" horiz-adv-x="200" 
 />
    <glyph glyph-name="exclamdown" unicode="&#xa1;" horiz-adv-x="310" 
d="M235 186v-430h-160v430h160zM253 360q0 -36 -28 -65t-74 -29q-40 0 -67 29t-27 65q0 41 26.5 71.5t67.5 30.5q46 0 74 -30t28 -72z" />
    <glyph glyph-name="cent" unicode="&#xa2;" 
d="M446 178l70 -110q-42 -58 -121 -73v-115h-150v120q-75 23 -117.5 82t-42.5 143q0 79 43.5 140.5t116.5 84.5v113h150v-108q71 -14 112 -57l-69 -118q-42 42 -96 42q-38 0 -67.5 -26t-29.5 -71q0 -43 30.5 -70t68.5 -27q55 0 102 50z" />
    <glyph glyph-name="sterling" unicode="&#xa3;" 
d="M61 255v120h80q-1 2 -9.5 17.5t-10.5 19.5l-9 17.5t-9 21t-5.5 19t-5 22.5t-1.5 23q0 86 66.5 139.5t169.5 53.5q124 0 201 -82l-82 -118q-57 50 -112 50q-33 0 -53 -14.5t-20 -40.5q0 -27 25.5 -69.5t31.5 -58.5h137v-120h-138q-16 -37 -50 -72q13 -4 36.5 -12t38 -12.5
t35 -8.5t37.5 -4q61 0 106 43l65 -117q-71 -76 -173 -76q-38 0 -114 26t-114 26q-48 0 -101 -55l-59 120q46 57 104 75q31 40 38 67h-105z" />
    <glyph glyph-name="currency" unicode="&#xa4;" 
d="M66 340q0 62 29 114l-71 72l92 92l73 -74q48 23 111 23q59 0 110 -23l74 73l92 -92l-71 -71q29 -52 29 -114q0 -60 -28 -113l70 -69l-92 -92l-72 71q-51 -24 -112 -24q-62 0 -112 24l-72 -72l-92 92l70 70q-28 50 -28 113zM206 340q0 -42 25.5 -69.5t68.5 -27.5
q46 0 70 27t24 70q0 46 -25 71.5t-69 25.5q-43 0 -68.5 -26t-25.5 -71z" />
    <glyph glyph-name="yen" unicode="&#xa5;" 
d="M63 285v120h93l-153 295h183l120 -265l118 265h173l-155 -295h95v-120h-158v-60h158v-120h-158v-105h-160v105h-156v120h156v60h-156z" />
    <glyph glyph-name="brokenbar" unicode="&#xa6;" horiz-adv-x="350" 
d="M250 440h-150v260h150v-260zM100 260h150v-260h-150v260z" />
    <glyph glyph-name="section" unicode="&#xa7;" horiz-adv-x="524" 
d="M50 249q0 58 28 103t82 67q-60 45 -60 136q0 61 47 103t134 42q94 0 151 -75l-89 -100q-32 35 -56 35q-14 0 -25.5 -11t-11.5 -25q0 -51 57 -90q81 -12 124 -62.5t43 -122.5q0 -58 -28.5 -103t-82.5 -67q59 -46 59 -134q0 -61 -47 -103t-134 -42q-94 0 -151 75l89 100
q32 -35 56 -35q14 0 25.5 11t11.5 25q0 52 -58 88q-80 12 -122 63t-42 122zM200 249q0 -21 14.5 -39.5t47.5 -18.5q35 0 48.5 17.5t13.5 40.5q0 22 -14.5 40.5t-47.5 18.5q-32 0 -47 -18.5t-15 -40.5z" />
    <glyph glyph-name="dieresis" unicode="&#xa8;" horiz-adv-x="471" 
d="M60 589q0 37 23.5 59t58.5 22q30 0 53 -22t23 -59q0 -40 -22.5 -63t-53.5 -23q-35 0 -58.5 23t-23.5 63zM253 589q0 37 24 59t58 22q31 0 53.5 -22t22.5 -59q0 -40 -22.5 -63t-53.5 -23q-35 0 -58.5 23t-23.5 63z" />
    <glyph glyph-name="copyright" unicode="&#xa9;" horiz-adv-x="1018" 
d="M70 221q0 185 127 312t312 127t312 -127t127 -312t-127 -312t-312 -127t-312 127t-127 312zM200 220q0 -128 88.5 -218t221.5 -90q131 0 219.5 90t88.5 218q0 130 -88 220t-220 90q-133 0 -221.5 -90t-88.5 -220zM630 178l70 -110q-58 -80 -184 -80q-112 0 -179.5 65
t-67.5 172q0 100 66.5 168.5t171.5 68.5q123 0 184 -64l-69 -118q-42 42 -96 42q-38 0 -67.5 -26t-29.5 -71q0 -43 30.5 -70t68.5 -27q55 0 102 50z" />
    <glyph glyph-name="ordfeminine" unicode="&#xaa;" horiz-adv-x="465" 
d="M128 532l-51 88q70 38 163 38q66 0 115.5 -36.5t49.5 -106.5v-225h-130v38q-39 -44 -124 -44q-50 0 -80.5 33t-30.5 82q0 61 34 92t98 31q58 0 101 -17q-9 43 -59 43q-56 0 -86 -16zM220 394q27 0 55 14v15q-32 9 -56 9q-39 0 -39 -19t40 -19z" />
    <glyph glyph-name="guillemotleft" unicode="&#xab;" horiz-adv-x="592" 
d="M460 13l-200 235v4l205 235l97 -87l-129 -150l129 -152zM230 13l-200 235v4l205 235l97 -87l-129 -150l129 -152z" />
    <glyph glyph-name="logicalnot" unicode="&#xac;" 
d="M43 295v130h514v-261h-130v131h-384z" />
    <glyph glyph-name="uni00AD" unicode="&#xad;" horiz-adv-x="364" 
d="M50 205v140h264v-140h-264z" />
    <glyph glyph-name="registered" unicode="&#xae;" horiz-adv-x="708" 
d="M40 498q0 129 92 220.5t224 91.5q129 0 220.5 -91.5t91.5 -220.5q0 -132 -91.5 -224.5t-220.5 -92.5q-133 0 -224.5 92t-91.5 225zM160 496q0 -80 57 -137t137 -57t137 57t57 137t-57 137t-137 57t-137 -57t-57 -137zM331 360h-100v280h136q59 0 89.5 -26t30.5 -72
q0 -29 -14 -51.5t-32 -31.5l43 -99h-114l-23 76h-16v-76zM352 570h-21v-64h19q37 0 37 34q0 30 -35 30z" />
    <glyph glyph-name="macron" unicode="&#xaf;" horiz-adv-x="414" 
d="M60 520v120h294v-120h-294z" />
    <glyph glyph-name="degree" unicode="&#xb0;" horiz-adv-x="440" 
d="M40 568q0 78 52 130t126 52q77 0 129.5 -49t52.5 -126q0 -76 -53.5 -130.5t-128.5 -54.5q-74 0 -126 51t-52 127zM170 570q0 -20 15 -35t35 -15t35 15t15 35t-15 35t-35 15t-35 -15t-15 -35z" />
    <glyph glyph-name="plusminus" unicode="&#xb1;" 
d="M63 395v130h166v171h140v-171h168v-130h-168v-83h-140v83h-166zM63 145v130h474v-130h-474z" />
    <glyph glyph-name="twosuperior" unicode="&#xb2;" horiz-adv-x="376" 
d="M25 350v94q121 68 148 91q24 21 24 36q0 23 -26 23q-15 0 -25 -14t-13 -29l-107 39q9 53 50 83.5t110 30.5q72 0 111 -30.5t39 -83.5q0 -28 -14 -51t-40 -38.5t-44 -23.5t-45 -17h158v-110h-326z" />
    <glyph glyph-name="threesuperior" unicode="&#xb3;" horiz-adv-x="372" 
d="M181 343q-57 0 -103 20.5t-68 57.5l74 70q10 -16 30.5 -29.5t43.5 -13.5q44 0 44 18q0 15 -45 15h-27v90h25q36 0 36 18q0 13 -29 13q-42 0 -80 -36l-61 71q52 70 168 70q62 0 102 -24.5t40 -65.5q0 -66 -80 -81v-1q44 -2 67.5 -24.5t23.5 -56.5q0 -50 -47.5 -80.5
t-113.5 -30.5z" />
    <glyph glyph-name="acute" unicode="&#xb4;" horiz-adv-x="340" 
d="M280 649l-131 -146l-89 63l103 172z" />
    <glyph glyph-name="mu" unicode="&#xb5;" horiz-adv-x="540" 
d="M485 450v-450h-150v45q-45 -57 -129 -57h-1v-188h-150v650h150v-251q0 -30 14 -50.5t44 -20.5q39 0 72 41v281h150z" />
    <glyph glyph-name="mu" unicode="&#x3bc;" horiz-adv-x="540" 
d="M485 450v-450h-150v45q-45 -57 -129 -57h-1v-188h-150v650h150v-251q0 -30 14 -50.5t44 -20.5q39 0 72 41v281h150z" />
    <glyph glyph-name="paragraph" unicode="&#xb6;" horiz-adv-x="521" 
d="M30 481q0 99 65.5 159t163.5 60h242v-140h-94v-532q0 -118 -54 -177t-155 -59q-43 0 -84 16.5t-63 40.5l59 108q33 -25 77 -25q70 0 70 102v229q-91 1 -159 60.5t-68 157.5z" />
    <glyph glyph-name="periodcentered" unicode="&#xb7;" horiz-adv-x="200" 
d="M2 306q0 36 28 65t74 29q40 0 67 -29t27 -65q0 -41 -26.5 -71.5t-67.5 -30.5q-46 0 -74 30t-28 72z" />
    <glyph glyph-name="cedilla" unicode="&#xb8;" horiz-adv-x="404" 
d="M60 -161l44 69q28 -28 68 -28q22 0 22 13q0 17 -25 17h-6v90h75v-26q106 -9 106 -90q0 -43 -38.5 -68.5t-112.5 -25.5q-79 0 -133 49z" />
    <glyph glyph-name="onesuperior" unicode="&#xb9;" horiz-adv-x="285" 
d="M10 618l121 80h94v-348h-130v200l-38 -20z" />
    <glyph glyph-name="ordmasculine" unicode="&#xba;" horiz-adv-x="522" 
d="M50 472q0 85 59 135.5t152 50.5t152 -50.5t59 -135.5t-59 -136.5t-152 -51.5t-152 51.5t-59 136.5zM190 472q0 -32 20 -50t51 -18q33 0 52 18t19 50q0 30 -19.5 48t-51.5 18t-51.5 -18t-19.5 -48z" />
    <glyph glyph-name="guillemotright" unicode="&#xbb;" horiz-adv-x="592" 
d="M562 248l-200 -235l-102 85l129 152l-129 150l97 87l205 -235v-4zM332 248l-200 -235l-102 85l129 152l-129 150l97 87l205 -235v-4z" />
    <glyph glyph-name="onequarter" unicode="&#xbc;" horiz-adv-x="713" 
d="M10 618l121 80h94v-348h-130v200l-38 -20zM40 47l497 665l84 -63l-495 -661zM521 0v61h-191v87l141 202h123l-134 -189h61v64h120v-64h52v-100h-52v-61h-120z" />
    <glyph glyph-name="onehalf" unicode="&#xbd;" horiz-adv-x="731" 
d="M10 618l121 80h94v-348h-130v200l-38 -20zM40 47l497 665l84 -63l-495 -661zM365 0v94q121 68 148 91q24 21 24 36q0 23 -26 23q-15 0 -25 -14t-13 -29l-107 39q9 53 50 83.5t110 30.5q72 0 111 -30.5t39 -83.5q0 -28 -14 -51t-40 -38.5t-44 -23.5t-45 -17h158v-110h-326
z" />
    <glyph glyph-name="threequarters" unicode="&#xbe;" horiz-adv-x="783" 
d="M120 47l497 665l84 -63l-495 -661zM591 0v61h-191v87l141 202h123l-134 -189h61v64h120v-64h52v-100h-52v-61h-120zM191 343q-57 0 -103 20.5t-68 57.5l74 70q10 -16 30.5 -29.5t43.5 -13.5q44 0 44 18q0 15 -45 15h-27v90h25q36 0 36 18q0 13 -29 13q-42 0 -80 -36
l-61 71q52 70 168 70q62 0 102 -24.5t40 -65.5q0 -66 -80 -81v-1q44 -2 67.5 -24.5t23.5 -56.5q0 -50 -47.5 -80.5t-113.5 -30.5z" />
    <glyph glyph-name="questiondown" unicode="&#xbf;" horiz-adv-x="481" 
d="M181 -44q0 -24 19.5 -43t46.5 -19q37 0 60 12.5t46 41.5l88 -101q-28 -46 -81 -74.5t-121 -28.5q-100 0 -159.5 51.5t-59.5 127.5q0 54 19 95.5t45.5 66t52.5 45t42.5 44t12.5 50.5h136q6 -46 -6.5 -80t-35.5 -54.5t-46.5 -38t-41 -41.5t-17.5 -54zM354 360
q0 -36 -28 -65t-74 -29q-40 0 -67 29t-27 65q0 41 26.5 71.5t67.5 30.5q46 0 74 -30t28 -72z" />
    <glyph glyph-name="Agrave" unicode="&#xc0;" horiz-adv-x="725" 
d="M0 0l291 700h143l291 -700h-171l-58 147h-277l-58 -147h-161zM358 495l-79 -198h157zM426 728l-249 78l56 129l234 -118z" />
    <glyph glyph-name="Aacute" unicode="&#xc1;" horiz-adv-x="725" 
d="M0 0l291 700h143l291 -700h-171l-58 147h-277l-58 -147h-161zM358 495l-79 -198h157zM547 806l-249 -78l-41 89l234 118z" />
    <glyph glyph-name="Acircumflex" unicode="&#xc2;" horiz-adv-x="725" 
d="M0 0l291 700h143l291 -700h-171l-58 147h-277l-58 -147h-161zM358 495l-79 -198h157zM179 806l178 119h4l184 -117l-58 -85l-128 66l-128 -66z" />
    <glyph glyph-name="Atilde" unicode="&#xc3;" horiz-adv-x="725" 
d="M0 0l291 700h143l291 -700h-171l-58 147h-277l-58 -147h-161zM358 495l-79 -198h157zM220 746l-46 94q23 28 57.5 45.5t67.5 17.5q31 0 70 -15t65 -15q50 0 78 30l38 -94q-41 -66 -126 -66q-24 0 -66.5 15t-71.5 15q-33 0 -66 -27z" />
    <glyph glyph-name="Adieresis" unicode="&#xc4;" horiz-adv-x="725" 
d="M0 0l291 700h143l291 -700h-171l-58 147h-277l-58 -147h-161zM358 495l-79 -198h157zM152 837q0 36 28 57t70 21q37 0 64 -21.5t27 -56.5q0 -39 -27 -61.5t-64 -22.5q-42 0 -70 22t-28 62zM383 837q0 36 28.5 57t69.5 21q37 0 64 -21.5t27 -56.5q0 -39 -26.5 -61.5
t-64.5 -22.5q-42 0 -70 22t-28 62z" />
    <glyph glyph-name="Aring" unicode="&#xc5;" horiz-adv-x="725" 
d="M205 809q0 59 43.5 88.5t111.5 29.5q71 0 115.5 -29.5t44.5 -88.5q0 -81 -86 -110l291 -699h-171l-58 147h-277l-58 -147h-161l290 698q-85 29 -85 111zM358 495l-79 -198h157zM315 809q0 -41 47 -41q48 0 48 41q0 38 -48 38q-47 0 -47 -38z" />
    <glyph glyph-name="AE" unicode="&#xc6;" horiz-adv-x="946" 
d="M876 700v-150h-255v-123h225v-150h-225v-127h265v-150h-425v147h-215l-101 -147h-185l503 700h413zM461 457l-111 -160h111v160z" />
    <glyph glyph-name="Ccedilla" unicode="&#xc7;" horiz-adv-x="655" 
d="M233 -157l48 74q13 -13 34.5 -25t39.5 -12q22 0 22 13q0 17 -25 17h-6v82q-139 18 -222.5 114.5t-83.5 243.5q0 158 96 260t270 102q67 0 124 -20.5t90 -52.5l-71 -120q-71 43 -143 43q-85 0 -140.5 -56t-55.5 -156q0 -93 59 -152.5t153 -59.5q84 0 152 51l61 -120
q-30 -34 -88.5 -56.5t-125.5 -24.5v-14q116 -9 116 -90q0 -42 -38.5 -68t-106.5 -26q-100 0 -159 53z" />
    <glyph glyph-name="Egrave" unicode="&#xc8;" horiz-adv-x="575" 
d="M90 0v700h415v-150h-255v-123h225v-150h-225v-127h265v-150h-425zM366 728l-249 78l56 129l234 -118z" />
    <glyph glyph-name="Eacute" unicode="&#xc9;" horiz-adv-x="575" 
d="M90 0v700h415v-150h-255v-123h225v-150h-225v-127h265v-150h-425zM497 806l-249 -78l-41 89l234 118z" />
    <glyph glyph-name="Ecircumflex" unicode="&#xca;" horiz-adv-x="575" 
d="M90 0v700h415v-150h-255v-123h225v-150h-225v-127h265v-150h-425zM115 806l178 119h4l184 -117l-58 -85l-128 66l-128 -66z" />
    <glyph glyph-name="Edieresis" unicode="&#xcb;" horiz-adv-x="575" 
d="M90 0v700h415v-150h-255v-123h225v-150h-225v-127h265v-150h-425zM92 837q0 36 28 57t70 21q37 0 64 -21.5t27 -56.5q0 -39 -27 -61.5t-64 -22.5q-42 0 -70 22t-28 62zM323 837q0 36 28.5 57t69.5 21q37 0 64 -21.5t27 -56.5q0 -39 -26.5 -61.5t-64.5 -22.5q-42 0 -70 22
t-28 62z" />
    <glyph glyph-name="Igrave" unicode="&#xcc;" horiz-adv-x="360" 
d="M100 0v700h160v-700h-160zM236 728l-249 78l56 129l234 -118z" />
    <glyph glyph-name="Iacute" unicode="&#xcd;" horiz-adv-x="360" 
d="M100 0v700h160v-700h-160zM377 806l-249 -78l-41 89l234 118z" />
    <glyph glyph-name="Icircumflex" unicode="&#xce;" horiz-adv-x="360" 
d="M100 0v700h160v-700h-160zM-3 806l178 119h4l184 -117l-58 -85l-128 66l-128 -66z" />
    <glyph glyph-name="Idieresis" unicode="&#xcf;" horiz-adv-x="360" 
d="M100 0v700h160v-700h-160zM-30 837q0 36 28 57t70 21q37 0 64 -21.5t27 -56.5q0 -39 -27 -61.5t-64 -22.5q-42 0 -70 22t-28 62zM201 837q0 36 28.5 57t69.5 21q37 0 64 -21.5t27 -56.5q0 -39 -26.5 -61.5t-64.5 -22.5q-42 0 -70 22t-28 62z" />
    <glyph glyph-name="Eth" unicode="&#xd0;" horiz-adv-x="744" 
d="M10 278v140h80v282h14q17 0 100 1.5t107 1.5q198 0 295.5 -98t97.5 -249q0 -155 -104.5 -256.5t-296.5 -101.5q-15 0 -87 1t-109 1h-17v278h-80zM309 553q-39 0 -59 -3v-132h164v-140h-164v-128q21 -2 58 -2q105 0 165.5 54.5t60.5 153.5q0 94 -62 145.5t-163 51.5z" />
    <glyph glyph-name="Ntilde" unicode="&#xd1;" horiz-adv-x="790" 
d="M700 0h-128l-332 420v-420h-150v700h128l332 -422v422h150v-700zM261 746l-46 94q23 28 57.5 45.5t67.5 17.5q31 0 70 -15t65 -15q50 0 78 30l38 -94q-41 -66 -126 -66q-24 0 -66.5 15t-71.5 15q-33 0 -66 -27z" />
    <glyph glyph-name="Ograve" unicode="&#xd2;" horiz-adv-x="824" 
d="M40 350q0 155 103.5 258.5t268.5 103.5q163 0 267.5 -99t104.5 -263q0 -158 -105.5 -260t-266.5 -102q-163 0 -267.5 99t-104.5 263zM210 350q0 -90 59 -151t143 -61q96 0 149 59.5t53 152.5q0 94 -58 153t-144 59q-88 0 -145 -58.5t-57 -153.5zM486 728l-249 78l56 129
l234 -118z" />
    <glyph glyph-name="Oacute" unicode="&#xd3;" horiz-adv-x="824" 
d="M40 350q0 155 103.5 258.5t268.5 103.5q163 0 267.5 -99t104.5 -263q0 -158 -105.5 -260t-266.5 -102q-163 0 -267.5 99t-104.5 263zM210 350q0 -90 59 -151t143 -61q96 0 149 59.5t53 152.5q0 94 -58 153t-144 59q-88 0 -145 -58.5t-57 -153.5zM617 806l-249 -78l-41 89
l234 118z" />
    <glyph glyph-name="Ocircumflex" unicode="&#xd4;" horiz-adv-x="824" 
d="M40 350q0 155 103.5 258.5t268.5 103.5q163 0 267.5 -99t104.5 -263q0 -158 -105.5 -260t-266.5 -102q-163 0 -267.5 99t-104.5 263zM210 350q0 -90 59 -151t143 -61q96 0 149 59.5t53 152.5q0 94 -58 153t-144 59q-88 0 -145 -58.5t-57 -153.5zM232 806l178 119h4
l184 -117l-58 -85l-128 66l-128 -66z" />
    <glyph glyph-name="Otilde" unicode="&#xd5;" horiz-adv-x="824" 
d="M40 350q0 155 103.5 258.5t268.5 103.5q163 0 267.5 -99t104.5 -263q0 -158 -105.5 -260t-266.5 -102q-163 0 -267.5 99t-104.5 263zM210 350q0 -90 59 -151t143 -61q96 0 149 59.5t53 152.5q0 94 -58 153t-144 59q-88 0 -145 -58.5t-57 -153.5zM263 746l-46 94
q23 28 57.5 45.5t67.5 17.5q31 0 70 -15t65 -15q50 0 78 30l38 -94q-41 -66 -126 -66q-24 0 -66.5 15t-71.5 15q-33 0 -66 -27z" />
    <glyph glyph-name="Odieresis" unicode="&#xd6;" horiz-adv-x="824" 
d="M40 350q0 155 103.5 258.5t268.5 103.5q163 0 267.5 -99t104.5 -263q0 -158 -105.5 -260t-266.5 -102q-163 0 -267.5 99t-104.5 263zM210 350q0 -90 59 -151t143 -61q96 0 149 59.5t53 152.5q0 94 -58 153t-144 59q-88 0 -145 -58.5t-57 -153.5zM197 837q0 36 28 57
t70 21q37 0 64 -21.5t27 -56.5q0 -39 -27 -61.5t-64 -22.5q-42 0 -70 22t-28 62zM428 837q0 36 28.5 57t69.5 21q37 0 64 -21.5t27 -56.5q0 -39 -26.5 -61.5t-64.5 -22.5q-42 0 -70 22t-28 62z" />
    <glyph glyph-name="multiply" unicode="&#xd7;" 
d="M87 481l92 92l121 -121l121 121l92 -92l-121 -121l122 -122l-92 -92l-122 122l-122 -122l-92 92l122 122z" />
    <glyph glyph-name="Oslash" unicode="&#xd8;" horiz-adv-x="824" 
d="M40 350q0 155 103.5 258.5t268.5 103.5q119 0 211 -56l37 36l86 -88l-31 -31q69 -91 69 -223q0 -158 -105.5 -260t-266.5 -102q-133 0 -228 66l-40 -39l-86 88l40 39q-58 89 -58 208zM614 350q0 57 -23 103l-288 -282q49 -33 109 -33q96 0 149 59.5t53 152.5zM210 350
q0 -46 15 -83l280 273q-44 22 -93 22q-88 0 -145 -58.5t-57 -153.5z" />
    <glyph glyph-name="Ugrave" unicode="&#xd9;" horiz-adv-x="751" 
d="M671 700v-411q0 -151 -81.5 -226t-204.5 -75q-139 0 -222 79t-83 229v404h160v-370q0 -192 145 -192q69 0 97.5 46.5t28.5 136.5v379h160zM436 728l-249 78l56 129l234 -118z" />
    <glyph glyph-name="Uacute" unicode="&#xda;" horiz-adv-x="751" 
d="M671 700v-411q0 -151 -81.5 -226t-204.5 -75q-139 0 -222 79t-83 229v404h160v-370q0 -192 145 -192q69 0 97.5 46.5t28.5 136.5v379h160zM577 806l-249 -78l-41 89l234 118z" />
    <glyph glyph-name="Ucircumflex" unicode="&#xdb;" horiz-adv-x="751" 
d="M671 700v-411q0 -151 -81.5 -226t-204.5 -75q-139 0 -222 79t-83 229v404h160v-370q0 -192 145 -192q69 0 97.5 46.5t28.5 136.5v379h160zM191 806l178 119h4l184 -117l-58 -85l-128 66l-128 -66z" />
    <glyph glyph-name="Udieresis" unicode="&#xdc;" horiz-adv-x="751" 
d="M671 700v-411q0 -151 -81.5 -226t-204.5 -75q-139 0 -222 79t-83 229v404h160v-370q0 -192 145 -192q69 0 97.5 46.5t28.5 136.5v379h160zM157 837q0 36 28 57t70 21q37 0 64 -21.5t27 -56.5q0 -39 -27 -61.5t-64 -22.5q-42 0 -70 22t-28 62zM388 837q0 36 28.5 57
t69.5 21q37 0 64 -21.5t27 -56.5q0 -39 -26.5 -61.5t-64.5 -22.5q-42 0 -70 22t-28 62z" />
    <glyph glyph-name="Yacute" unicode="&#xdd;" horiz-adv-x="654" 
d="M654 700l-248 -415v-285h-160v285l-246 415h183l150 -265l148 265h173zM527 806l-249 -78l-41 89l234 118z" />
    <glyph glyph-name="Thorn" unicode="&#xde;" horiz-adv-x="627" 
d="M250 0h-160v700h160v-100q4 0 26 1t28 1q149 0 216 -65.5t67 -166.5q0 -98 -71 -166.5t-188 -68.5q-53 0 -78 3v-138zM306 452q-28 0 -56 -4v-158q38 -5 73 -5q38 0 66 20t28 66q0 81 -111 81z" />
    <glyph glyph-name="germandbls" unicode="&#xdf;" horiz-adv-x="556" 
d="M376 167q0 23 -22.5 45t-49 38.5t-49 46.5t-22.5 67t11 65.5t23.5 42t23.5 30t11 32.5t-13.5 27t-35.5 11q-29 0 -41 -21.5t-12 -68.5v-482h-150v493q0 219 225 219q80 0 133.5 -43.5t53.5 -105.5q0 -34 -11 -59.5t-23.5 -37.5t-23.5 -31t-11 -41q0 -23 14.5 -41.5
t35.5 -33t42.5 -32.5t36 -50t14.5 -75q0 -71 -45.5 -122.5t-118.5 -51.5q-96 0 -149 53l46 115q34 -28 66 -28q41 0 41 39z" />
    <glyph glyph-name="agrave" unicode="&#xe0;" horiz-adv-x="465" 
d="M103 309l-37 109q29 18 75.5 31t91.5 13q100 0 143.5 -48t43.5 -143v-271h-130v41q-33 -47 -118 -47q-63 0 -102.5 37.5t-39.5 104.5q0 73 45.5 111t116.5 38q56 0 88 -25q4 77 -62 77q-44 0 -115 -28zM223 119q40 0 57 23v28q-21 15 -57 15q-19 0 -31 -9t-12 -25
q0 -15 12 -23.5t31 -8.5zM244 503l-133 144l119 89l103 -170z" />
    <glyph glyph-name="aacute" unicode="&#xe1;" horiz-adv-x="465" 
d="M103 309l-37 109q29 18 75.5 31t91.5 13q100 0 143.5 -48t43.5 -143v-271h-130v41q-33 -47 -118 -47q-63 0 -102.5 37.5t-39.5 104.5q0 73 45.5 111t116.5 38q56 0 88 -25q4 77 -62 77q-44 0 -115 -28zM223 119q40 0 57 23v28q-21 15 -57 15q-19 0 -31 -9t-12 -25
q0 -15 12 -23.5t31 -8.5zM364 649l-131 -146l-89 63l103 172z" />
    <glyph glyph-name="acircumflex" unicode="&#xe2;" horiz-adv-x="465" 
d="M103 309l-37 109q29 18 75.5 31t91.5 13q100 0 143.5 -48t43.5 -143v-271h-130v41q-33 -47 -118 -47q-63 0 -102.5 37.5t-39.5 104.5q0 73 45.5 111t116.5 38q56 0 88 -25q4 77 -62 77q-44 0 -115 -28zM223 119q40 0 57 23v28q-21 15 -57 15q-19 0 -31 -9t-12 -25
q0 -15 12 -23.5t31 -8.5zM234 706l165 -136l-70 -88l-98 81l-100 -79l-67 87l166 135h4z" />
    <glyph glyph-name="atilde" unicode="&#xe3;" horiz-adv-x="465" 
d="M103 309l-37 109q29 18 75.5 31t91.5 13q100 0 143.5 -48t43.5 -143v-271h-130v41q-33 -47 -118 -47q-63 0 -102.5 37.5t-39.5 104.5q0 73 45.5 111t116.5 38q56 0 88 -25q4 77 -62 77q-44 0 -115 -28zM223 119q40 0 57 23v28q-21 15 -57 15q-19 0 -31 -9t-12 -25
q0 -15 12 -23.5t31 -8.5zM104 519l-60 67q55 78 132 78q24 0 61 -19.5t57 -19.5q10 0 17 1t14 4t10.5 5t12 8.5t12.5 8.5l49 -75q-60 -72 -127 -72q-22 0 -59 19.5t-60 19.5q-15 0 -59 -25z" />
    <glyph glyph-name="adieresis" unicode="&#xe4;" horiz-adv-x="465" 
d="M103 309l-37 109q29 18 75.5 31t91.5 13q100 0 143.5 -48t43.5 -143v-271h-130v41q-33 -47 -118 -47q-63 0 -102.5 37.5t-39.5 104.5q0 73 45.5 111t116.5 38q56 0 88 -25q4 77 -62 77q-44 0 -115 -28zM223 119q40 0 57 23v28q-21 15 -57 15q-19 0 -31 -9t-12 -25
q0 -15 12 -23.5t31 -8.5zM67 589q0 37 23.5 59t58.5 22q30 0 53 -22t23 -59q0 -40 -22.5 -63t-53.5 -23q-35 0 -58.5 23t-23.5 63zM260 589q0 37 24 59t58 22q31 0 53.5 -22t22.5 -59q0 -40 -22.5 -63t-53.5 -23q-35 0 -58.5 23t-23.5 63z" />
    <glyph glyph-name="aring" unicode="&#xe5;" horiz-adv-x="465" 
d="M103 309l-37 109q29 18 75.5 31t91.5 13q100 0 143.5 -48t43.5 -143v-271h-130v41q-33 -47 -118 -47q-63 0 -102.5 37.5t-39.5 104.5q0 73 45.5 111t116.5 38q56 0 88 -25q4 77 -62 77q-44 0 -115 -28zM223 119q40 0 57 23v28q-21 15 -57 15q-19 0 -31 -9t-12 -25
q0 -15 12 -23.5t31 -8.5zM107 611q0 54 39 91.5t98 37.5q60 0 99.5 -37.5t39.5 -91.5q0 -53 -39.5 -90t-99.5 -37q-59 0 -98 37t-39 90zM202 613q0 -21 12 -35t32 -14q19 0 30.5 14t11.5 35q0 20 -11.5 33.5t-30.5 13.5q-20 0 -32 -13.5t-12 -33.5z" />
    <glyph glyph-name="ae" unicode="&#xe6;" horiz-adv-x="742" 
d="M233 462q88 0 132 -38q60 38 139 38q90 0 154 -59.5t64 -152.5q0 -45 -9 -75h-293v-14q10 -21 37 -34.5t63 -13.5q67 0 118 32l41 -106q-76 -51 -171 -51q-102 0 -166 50q-68 -48 -144 -48q-83 0 -125.5 39.5t-42.5 114.5q0 64 44.5 102.5t117.5 38.5q23 0 50 -8t38 -17
q4 35 -13.5 56.5t-42.5 21.5q-17 0 -32 -1.5t-29.5 -5.5t-21.5 -6.5t-21.5 -8.5t-16.5 -7l-37 109q30 18 76.5 31t90.5 13zM419 295q0 -3 0.5 -9.5t0.5 -10.5h152q-3 27 -22 45t-56 17q-51 0 -75 -42zM223 119q28 0 55 20l2 31q-21 15 -57 15q-20 0 -31.5 -10t-11.5 -24
q0 -12 10.5 -22t32.5 -10z" />
    <glyph glyph-name="ccedilla" unicode="&#xe7;" horiz-adv-x="485" 
d="M119 -161l44 69q28 -28 68 -28q22 0 22 13q0 17 -25 17h-6v83q-89 15 -140.5 77t-51.5 155q0 100 66.5 168.5t171.5 68.5q123 0 184 -64l-69 -118q-42 42 -96 42q-38 0 -67.5 -26t-29.5 -71q0 -43 30.5 -70t68.5 -27q55 0 102 50l70 -110q-53 -73 -164 -79v-15
q106 -9 106 -90q0 -43 -38.5 -68.5t-112.5 -25.5q-79 0 -133 49z" />
    <glyph glyph-name="egrave" unicode="&#xe8;" horiz-adv-x="512" 
d="M408 145l41 -106q-68 -51 -175 -51q-111 0 -177.5 65t-66.5 172q0 101 67.5 169t176.5 68q90 0 154 -59.5t64 -152.5q0 -45 -9 -75h-298q20 -62 105 -62q67 0 118 32zM269 337q-67 0 -89 -62h162q0 25 -19.5 43.5t-53.5 18.5zM289 503l-133 144l119 89l103 -170z" />
    <glyph glyph-name="eacute" unicode="&#xe9;" horiz-adv-x="512" 
d="M408 145l41 -106q-68 -51 -175 -51q-111 0 -177.5 65t-66.5 172q0 101 67.5 169t176.5 68q90 0 154 -59.5t64 -152.5q0 -45 -9 -75h-298q20 -62 105 -62q67 0 118 32zM269 337q-67 0 -89 -62h162q0 25 -19.5 43.5t-53.5 18.5zM409 649l-131 -146l-89 63l103 172z" />
    <glyph glyph-name="ecircumflex" unicode="&#xea;" horiz-adv-x="512" 
d="M408 145l41 -106q-68 -51 -175 -51q-111 0 -177.5 65t-66.5 172q0 101 67.5 169t176.5 68q90 0 154 -59.5t64 -152.5q0 -45 -9 -75h-298q20 -62 105 -62q67 0 118 32zM269 337q-67 0 -89 -62h162q0 25 -19.5 43.5t-53.5 18.5zM269 706l165 -136l-70 -88l-98 81l-100 -79
l-67 87l166 135h4z" />
    <glyph glyph-name="edieresis" unicode="&#xeb;" horiz-adv-x="512" 
d="M408 145l41 -106q-68 -51 -175 -51q-111 0 -177.5 65t-66.5 172q0 101 67.5 169t176.5 68q90 0 154 -59.5t64 -152.5q0 -45 -9 -75h-298q20 -62 105 -62q67 0 118 32zM269 337q-67 0 -89 -62h162q0 25 -19.5 43.5t-53.5 18.5zM95 589q0 37 23.5 59t58.5 22q30 0 53 -22
t23 -59q0 -40 -22.5 -63t-53.5 -23q-35 0 -58.5 23t-23.5 63zM288 589q0 37 24 59t58 22q31 0 53.5 -22t22.5 -59q0 -40 -22.5 -63t-53.5 -23q-35 0 -58.5 23t-23.5 63z" />
    <glyph glyph-name="igrave" unicode="&#xec;" horiz-adv-x="286" 
d="M68 0v450h150v-450h-150zM119 503l-133 144l119 89l103 -170z" />
    <glyph glyph-name="iacute" unicode="&#xed;" horiz-adv-x="286" 
d="M68 0v450h150v-450h-150zM269 649l-131 -146l-89 63l103 172z" />
    <glyph glyph-name="icircumflex" unicode="&#xee;" horiz-adv-x="286" 
d="M68 0v450h150v-450h-150zM146 706l165 -136l-70 -88l-98 81l-100 -79l-67 87l166 135h4z" />
    <glyph glyph-name="idieresis" unicode="&#xef;" horiz-adv-x="286" 
d="M68 0v450h150v-450h-150zM-32 589q0 37 23.5 59t58.5 22q30 0 53 -22t23 -59q0 -40 -22.5 -63t-53.5 -23q-35 0 -58.5 23t-23.5 63zM161 589q0 37 24 59t58 22q31 0 53.5 -22t22.5 -59q0 -40 -22.5 -63t-53.5 -23q-35 0 -58.5 23t-23.5 63z" />
    <glyph glyph-name="eth" unicode="&#xf0;" horiz-adv-x="560" 
d="M181 473l-42 134l66 20q-31 30 -71 63l169 22q29 -19 51 -40l100 31l41 -134l-47 -15q82 -141 82 -287q0 -132 -67 -205.5t-183 -73.5q-113 0 -181.5 67t-68.5 170t68.5 170t181.5 67q28 0 54 -12q-12 29 -32 60zM190 225q0 -42 25.5 -69.5t64.5 -27.5q45 0 71 39t19 106
q-22 49 -90 49q-38 0 -64 -26.5t-26 -70.5z" />
    <glyph glyph-name="ntilde" unicode="&#xf1;" horiz-adv-x="544" 
d="M55 0v450h150v-35q45 43 111 43q183 0 183 -190v-268h-150v242q0 38 -20 57t-54 19q-39 0 -70 -31v-287h-150zM147 519l-60 67q55 78 132 78q24 0 61 -19.5t57 -19.5q10 0 17 1t14 4t10.5 5t12 8.5t12.5 8.5l49 -75q-60 -72 -127 -72q-22 0 -59 19.5t-60 19.5
q-15 0 -59 -25z" />
    <glyph glyph-name="ograve" unicode="&#xf2;" horiz-adv-x="560" 
d="M30 225q0 103 68.5 170t181.5 67t181.5 -67t68.5 -170t-68.5 -170t-181.5 -67t-181.5 67t-68.5 170zM190 225q0 -42 25.5 -69.5t64.5 -27.5t64.5 26t25.5 71q0 43 -26 70t-64 27t-64 -26.5t-26 -70.5zM276 503l-133 144l119 89l103 -170z" />
    <glyph glyph-name="oacute" unicode="&#xf3;" horiz-adv-x="560" 
d="M30 225q0 103 68.5 170t181.5 67t181.5 -67t68.5 -170t-68.5 -170t-181.5 -67t-181.5 67t-68.5 170zM190 225q0 -42 25.5 -69.5t64.5 -27.5t64.5 26t25.5 71q0 43 -26 70t-64 27t-64 -26.5t-26 -70.5zM416 649l-131 -146l-89 63l103 172z" />
    <glyph glyph-name="ocircumflex" unicode="&#xf4;" horiz-adv-x="560" 
d="M30 225q0 103 68.5 170t181.5 67t181.5 -67t68.5 -170t-68.5 -170t-181.5 -67t-181.5 67t-68.5 170zM190 225q0 -42 25.5 -69.5t64.5 -27.5t64.5 26t25.5 71q0 43 -26 70t-64 27t-64 -26.5t-26 -70.5zM285 706l165 -136l-70 -88l-98 81l-100 -79l-67 87l166 135h4z" />
    <glyph glyph-name="otilde" unicode="&#xf5;" horiz-adv-x="560" 
d="M30 225q0 103 68.5 170t181.5 67t181.5 -67t68.5 -170t-68.5 -170t-181.5 -67t-181.5 67t-68.5 170zM190 225q0 -42 25.5 -69.5t64.5 -27.5t64.5 26t25.5 71q0 43 -26 70t-64 27t-64 -26.5t-26 -70.5zM155 519l-60 67q55 78 132 78q24 0 61 -19.5t57 -19.5q10 0 17 1
t14 4t10.5 5t12 8.5t12.5 8.5l49 -75q-60 -72 -127 -72q-22 0 -59 19.5t-60 19.5q-15 0 -59 -25z" />
    <glyph glyph-name="odieresis" unicode="&#xf6;" horiz-adv-x="560" 
d="M30 225q0 103 68.5 170t181.5 67t181.5 -67t68.5 -170t-68.5 -170t-181.5 -67t-181.5 67t-68.5 170zM190 225q0 -42 25.5 -69.5t64.5 -27.5t64.5 26t25.5 71q0 43 -26 70t-64 27t-64 -26.5t-26 -70.5zM113 589q0 37 23.5 59t58.5 22q30 0 53 -22t23 -59q0 -40 -22.5 -63
t-53.5 -23q-35 0 -58.5 23t-23.5 63zM306 589q0 37 24 59t58 22q31 0 53.5 -22t22.5 -59q0 -40 -22.5 -63t-53.5 -23q-35 0 -58.5 23t-23.5 63z" />
    <glyph glyph-name="divide" unicode="&#xf7;" 
d="M213 550q0 33 23.5 58t63.5 25q38 0 61.5 -25.5t23.5 -57.5q0 -36 -23 -62.5t-62 -26.5q-41 0 -64 26.5t-23 62.5zM213 172q0 32 23.5 57.5t63.5 25.5q37 0 61 -26t24 -57q0 -36 -23 -62.5t-62 -26.5q-41 0 -64 26t-23 63zM63 295v130h474v-130h-474z" />
    <glyph glyph-name="oslash" unicode="&#xf8;" horiz-adv-x="580" 
d="M44 67l27 24q-41 56 -41 134q0 102 73 169.5t187 67.5q87 0 154 -43l34 30l53 -62l-26 -23q45 -61 45 -139q0 -102 -73 -169.5t-187 -67.5q-94 0 -159 45l-33 -29zM390 225q0 16 -5 33l-138 -123q17 -7 43 -7q46 0 73 26t27 71zM190 225q0 -13 3 -27l134 118q-17 6 -37 6
q-44 0 -72 -26t-28 -71z" />
    <glyph glyph-name="ugrave" unicode="&#xf9;" horiz-adv-x="530" 
d="M475 450v-450h-150v45q-45 -57 -129 -57q-62 0 -106.5 46t-44.5 133v283h150v-251q0 -30 14 -50.5t44 -20.5q39 0 72 41v281h150zM256 503l-133 144l119 89l103 -170z" />
    <glyph glyph-name="uacute" unicode="&#xfa;" horiz-adv-x="530" 
d="M475 450v-450h-150v45q-45 -57 -129 -57q-62 0 -106.5 46t-44.5 133v283h150v-251q0 -30 14 -50.5t44 -20.5q39 0 72 41v281h150zM406 649l-131 -146l-89 63l103 172z" />
    <glyph glyph-name="ucircumflex" unicode="&#xfb;" horiz-adv-x="530" 
d="M475 450v-450h-150v45q-45 -57 -129 -57q-62 0 -106.5 46t-44.5 133v283h150v-251q0 -30 14 -50.5t44 -20.5q39 0 72 41v281h150zM268 706l165 -136l-70 -88l-98 81l-100 -79l-67 87l166 135h4z" />
    <glyph glyph-name="udieresis" unicode="&#xfc;" horiz-adv-x="530" 
d="M475 450v-450h-150v45q-45 -57 -129 -57q-62 0 -106.5 46t-44.5 133v283h150v-251q0 -30 14 -50.5t44 -20.5q39 0 72 41v281h150zM86 589q0 37 23.5 59t58.5 22q30 0 53 -22t23 -59q0 -40 -22.5 -63t-53.5 -23q-35 0 -58.5 23t-23.5 63zM279 589q0 37 24 59t58 22
q31 0 53.5 -22t22.5 -59q0 -40 -22.5 -63t-53.5 -23q-35 0 -58.5 23t-23.5 63z" />
    <glyph glyph-name="yacute" unicode="&#xfd;" horiz-adv-x="516" 
d="M516 450l-175 -450q-48 -118 -86 -159t-91 -41q-57 0 -107 42l48 113q24 -16 43 -16q28 0 43 37l10 24l-201 450h181l77 -206q6 -16 17 -62q4 40 11 63l59 205h171zM389 649l-131 -146l-89 63l103 172z" />
    <glyph glyph-name="thorn" unicode="&#xfe;" horiz-adv-x="561" 
d="M55 -200v900h150v-276q51 38 125 38q90 0 145.5 -64.5t55.5 -165.5q0 -105 -67 -174.5t-175 -69.5q-51 0 -84 14v-202h-150zM283 322q-42 0 -78 -40v-137q29 -17 70 -17q47 0 71.5 28.5t24.5 72.5q0 41 -23.5 67t-64.5 26z" />
    <glyph glyph-name="ydieresis" unicode="&#xff;" horiz-adv-x="516" 
d="M516 450l-175 -450q-48 -118 -86 -159t-91 -41q-57 0 -107 42l48 113q24 -16 43 -16q28 0 43 37l10 24l-201 450h181l77 -206q6 -16 17 -62q4 40 11 63l59 205h171zM92 589q0 37 23.5 59t58.5 22q30 0 53 -22t23 -59q0 -40 -22.5 -63t-53.5 -23q-35 0 -58.5 23t-23.5 63z
M285 589q0 37 24 59t58 22q31 0 53.5 -22t22.5 -59q0 -40 -22.5 -63t-53.5 -23q-35 0 -58.5 23t-23.5 63z" />
    <glyph glyph-name="Amacron" unicode="&#x100;" horiz-adv-x="725" 
d="M0 0l291 700h143l291 -700h-171l-58 147h-277l-58 -147h-161zM358 495l-79 -198h157zM205 750v120h314v-120h-314z" />
    <glyph glyph-name="amacron" unicode="&#x101;" horiz-adv-x="465" 
d="M103 309l-37 109q29 18 75.5 31t91.5 13q100 0 143.5 -48t43.5 -143v-271h-130v41q-33 -47 -118 -47q-63 0 -102.5 37.5t-39.5 104.5q0 73 45.5 111t116.5 38q56 0 88 -25q4 77 -62 77q-44 0 -115 -28zM223 119q40 0 57 23v28q-21 15 -57 15q-19 0 -31 -9t-12 -25
q0 -15 12 -23.5t31 -8.5zM91 520v120h294v-120h-294z" />
    <glyph glyph-name="Abreve" unicode="&#x102;" horiz-adv-x="725" 
d="M0 0l291 700h143l291 -700h-171l-58 147h-277l-58 -147h-161zM358 495l-79 -198h157zM161 843l64 77q58 -60 143 -60q86 0 140 60l55 -78q-28 -47 -81.5 -79.5t-113.5 -32.5q-66 0 -122.5 34t-84.5 79z" />
    <glyph glyph-name="abreve" unicode="&#x103;" horiz-adv-x="465" 
d="M103 309l-37 109q29 18 75.5 31t91.5 13q100 0 143.5 -48t43.5 -143v-271h-130v41q-33 -47 -118 -47q-63 0 -102.5 37.5t-39.5 104.5q0 73 45.5 111t116.5 38q56 0 88 -25q4 77 -62 77q-44 0 -115 -28zM223 119q40 0 57 23v28q-21 15 -57 15q-19 0 -31 -9t-12 -25
q0 -15 12 -23.5t31 -8.5zM59 607l66 75q47 -52 105 -52q68 0 110 50l51 -72q-65 -98 -167 -98q-61 0 -103 31t-62 66z" />
    <glyph glyph-name="Aogonek" unicode="&#x104;" horiz-adv-x="725" 
d="M677 -70l45 -90q-13 -16 -47 -28t-73 -12q-63 0 -104 24t-41 71q0 70 97 105l-58 147h-277l-58 -147h-161l291 700h143l291 -700h-19q-41 0 -70 -17.5t-29 -36.5q0 -26 30 -26q19 0 40 10zM358 495l-79 -198h157z" />
    <glyph glyph-name="aogonek" unicode="&#x105;" horiz-adv-x="465" 
d="M391 -70l45 -90q-13 -16 -47 -28t-73 -12q-63 0 -104 24t-41 71q0 80 119 112v34q-33 -47 -118 -47q-63 0 -102.5 37.5t-39.5 104.5q0 73 45.5 111t116.5 38q56 0 88 -25q4 77 -62 77q-44 0 -115 -28l-37 109q29 18 75.5 31t91.5 13q100 0 143.5 -48t43.5 -143v-271h-9
q-38 -2 -64 -19t-26 -35q0 -26 30 -26q19 0 40 10zM223 119q40 0 57 23v28q-21 15 -57 15q-19 0 -31 -9t-12 -25q0 -15 12 -23.5t31 -8.5z" />
    <glyph glyph-name="Cacute" unicode="&#x106;" horiz-adv-x="655" 
d="M574 189l61 -120q-32 -36 -95 -58.5t-133 -22.5q-163 0 -265 99.5t-102 262.5q0 158 96 260t270 102q67 0 124 -20.5t90 -52.5l-71 -120q-71 43 -143 43q-85 0 -140.5 -56t-55.5 -156q0 -93 59 -152.5t153 -59.5q84 0 152 51zM577 806l-249 -78l-41 89l234 118z" />
    <glyph glyph-name="cacute" unicode="&#x107;" horiz-adv-x="485" 
d="M391 178l70 -110q-58 -80 -184 -80q-112 0 -179.5 65t-67.5 172q0 100 66.5 168.5t171.5 68.5q123 0 184 -64l-69 -118q-42 42 -96 42q-38 0 -67.5 -26t-29.5 -71q0 -43 30.5 -70t68.5 -27q55 0 102 50zM399 649l-131 -146l-89 63l103 172z" />
    <glyph glyph-name="Ccircumflex" unicode="&#x108;" horiz-adv-x="655" 
d="M574 189l61 -120q-32 -36 -95 -58.5t-133 -22.5q-163 0 -265 99.5t-102 262.5q0 158 96 260t270 102q67 0 124 -20.5t90 -52.5l-71 -120q-71 43 -143 43q-85 0 -140.5 -56t-55.5 -156q0 -93 59 -152.5t153 -59.5q84 0 152 51zM202 806l178 119h4l184 -117l-58 -85
l-128 66l-128 -66z" />
    <glyph glyph-name="ccircumflex" unicode="&#x109;" horiz-adv-x="485" 
d="M391 178l70 -110q-58 -80 -184 -80q-112 0 -179.5 65t-67.5 172q0 100 66.5 168.5t171.5 68.5q123 0 184 -64l-69 -118q-42 42 -96 42q-38 0 -67.5 -26t-29.5 -71q0 -43 30.5 -70t68.5 -27q55 0 102 50zM279 706l165 -136l-70 -88l-98 81l-100 -79l-67 87l166 135h4z" />
    <glyph glyph-name="Cdotaccent" unicode="&#x10a;" horiz-adv-x="655" 
d="M574 189l61 -120q-32 -36 -95 -58.5t-133 -22.5q-163 0 -265 99.5t-102 262.5q0 158 96 260t270 102q67 0 124 -20.5t90 -52.5l-71 -120q-71 43 -143 43q-85 0 -140.5 -56t-55.5 -156q0 -93 59 -152.5t153 -59.5q84 0 152 51zM284 845q0 41 29.5 65.5t71.5 24.5
q39 0 67.5 -25t28.5 -65q0 -44 -28.5 -70t-67.5 -26q-43 0 -72 25.5t-29 70.5z" />
    <glyph glyph-name="cdotaccent" unicode="&#x10b;" horiz-adv-x="485" 
d="M391 178l70 -110q-58 -80 -184 -80q-112 0 -179.5 65t-67.5 172q0 100 66.5 168.5t171.5 68.5q123 0 184 -64l-69 -118q-42 42 -96 42q-38 0 -67.5 -26t-29.5 -71q0 -43 30.5 -70t68.5 -27q55 0 102 50zM180 605q0 39 26.5 62t64.5 23q34 0 59.5 -23.5t25.5 -61.5
q0 -42 -25.5 -66.5t-59.5 -24.5q-39 0 -65 24t-26 67z" />
    <glyph glyph-name="Ccaron" unicode="&#x10c;" horiz-adv-x="655" 
d="M574 189l61 -120q-32 -36 -95 -58.5t-133 -22.5q-163 0 -265 99.5t-102 262.5q0 158 96 260t270 102q67 0 124 -20.5t90 -52.5l-71 -120q-71 43 -143 43q-85 0 -140.5 -56t-55.5 -156q0 -93 59 -152.5t153 -59.5q84 0 152 51zM385 733l-184 117l58 85l128 -76l128 76
l52 -83l-178 -119h-4z" />
    <glyph glyph-name="ccaron" unicode="&#x10d;" horiz-adv-x="485" 
d="M391 178l70 -110q-58 -80 -184 -80q-112 0 -179.5 65t-67.5 172q0 100 66.5 168.5t171.5 68.5q123 0 184 -64l-69 -118q-42 42 -96 42q-38 0 -67.5 -26t-29.5 -71q0 -43 30.5 -70t68.5 -27q55 0 102 50zM261 488l-165 136l70 88l98 -81l100 79l67 -87l-166 -135h-4z" />
    <glyph glyph-name="Dcaron" unicode="&#x10e;" horiz-adv-x="744" 
d="M90 0v700h14q17 0 100 1.5t107 1.5q198 0 295.5 -98t97.5 -249q0 -155 -104.5 -256.5t-296.5 -101.5q-15 0 -87 1t-109 1h-17zM309 553q-39 0 -59 -3v-400q21 -2 58 -2q105 0 165.5 54.5t60.5 153.5q0 94 -62 145.5t-163 51.5zM335 733l-184 117l58 85l128 -76l128 76
l52 -83l-178 -119h-4z" />
    <glyph glyph-name="dcaron" unicode="&#x10f;" horiz-adv-x="557" 
d="M352 0v37q-47 -45 -114 -45q-95 0 -151.5 62t-56.5 165q0 107 69 175t179 68q44 0 74 -14v252h150v-700h-150zM269 132q47 0 83 33v138q-33 19 -67 19q-39 0 -67 -25.5t-28 -72.5q0 -43 24 -67.5t55 -24.5zM556 700h146q5 -12 5 -32q0 -131 -113 -194l-70 63
q43 49 43 113q0 25 -11 50z" />
    <glyph glyph-name="Dcroat" unicode="&#x110;" horiz-adv-x="744" 
d="M10 278v140h80v282h14q17 0 100 1.5t107 1.5q198 0 295.5 -98t97.5 -249q0 -155 -104.5 -256.5t-296.5 -101.5q-15 0 -87 1t-109 1h-17v278h-80zM309 553q-39 0 -59 -3v-132h164v-140h-164v-128q21 -2 58 -2q105 0 165.5 54.5t60.5 153.5q0 94 -62 145.5t-163 51.5z" />
    <glyph glyph-name="dcroat" unicode="&#x111;" horiz-adv-x="557" 
d="M248 507v120h104v73h150v-73h65v-120h-65v-507h-150v37q-47 -45 -114 -45q-95 0 -151.5 62t-56.5 165q0 107 69 175t179 68q44 0 74 -14v59h-104zM269 132q47 0 83 33v138q-33 19 -67 19q-39 0 -67 -25.5t-28 -72.5q0 -43 24 -67.5t55 -24.5z" />
    <glyph glyph-name="Emacron" unicode="&#x112;" horiz-adv-x="575" 
d="M90 0v700h415v-150h-255v-123h225v-150h-225v-127h265v-150h-425zM140 750v120h314v-120h-314z" />
    <glyph glyph-name="emacron" unicode="&#x113;" horiz-adv-x="512" 
d="M408 145l41 -106q-68 -51 -175 -51q-111 0 -177.5 65t-66.5 172q0 101 67.5 169t176.5 68q90 0 154 -59.5t64 -152.5q0 -45 -9 -75h-298q20 -62 105 -62q67 0 118 32zM269 337q-67 0 -89 -62h162q0 25 -19.5 43.5t-53.5 18.5zM117 520v120h294v-120h-294z" />
    <glyph glyph-name="Edotaccent" unicode="&#x116;" horiz-adv-x="575" 
d="M90 0v700h415v-150h-255v-123h225v-150h-225v-127h265v-150h-425zM204 845q0 41 29.5 65.5t71.5 24.5q39 0 67.5 -25t28.5 -65q0 -44 -28.5 -70t-67.5 -26q-43 0 -72 25.5t-29 70.5z" />
    <glyph glyph-name="edotaccent" unicode="&#x117;" horiz-adv-x="512" 
d="M408 145l41 -106q-68 -51 -175 -51q-111 0 -177.5 65t-66.5 172q0 101 67.5 169t176.5 68q90 0 154 -59.5t64 -152.5q0 -45 -9 -75h-298q20 -62 105 -62q67 0 118 32zM269 337q-67 0 -89 -62h162q0 25 -19.5 43.5t-53.5 18.5zM180 605q0 39 26.5 62t64.5 23
q34 0 59.5 -23.5t25.5 -61.5q0 -42 -25.5 -66.5t-59.5 -24.5q-39 0 -65 24t-26 67z" />
    <glyph glyph-name="Eogonek" unicode="&#x118;" horiz-adv-x="575" 
d="M90 0v700h415v-150h-255v-123h225v-150h-225v-127h265v-150q-41 0 -70 -17.5t-29 -36.5q0 -26 30 -26q19 0 40 10l45 -90q-13 -16 -47 -28t-73 -12q-63 0 -104 24t-41 71q0 70 97 105h-273z" />
    <glyph glyph-name="eogonek" unicode="&#x119;" horiz-adv-x="512" 
d="M408 145l41 -106q-23 -17 -48 -27q-60 -37 -60 -66q0 -26 30 -26q19 0 40 10l45 -90q-13 -16 -47 -28t-73 -12q-63 0 -104 24t-41 71q0 54 81 93q-110 1 -176 65.5t-66 171.5q0 101 67.5 169t176.5 68q90 0 154 -59.5t64 -152.5q0 -45 -9 -75h-298q20 -62 105 -62
q67 0 118 32zM269 337q-67 0 -89 -62h162q0 25 -19.5 43.5t-53.5 18.5z" />
    <glyph glyph-name="Ecaron" unicode="&#x11a;" horiz-adv-x="575" 
d="M90 0v700h415v-150h-255v-123h225v-150h-225v-127h265v-150h-425zM305 733l-184 117l58 85l128 -76l128 76l52 -83l-178 -119h-4z" />
    <glyph glyph-name="ecaron" unicode="&#x11b;" horiz-adv-x="512" 
d="M408 145l41 -106q-68 -51 -175 -51q-111 0 -177.5 65t-66.5 172q0 101 67.5 169t176.5 68q90 0 154 -59.5t64 -152.5q0 -45 -9 -75h-298q20 -62 105 -62q67 0 118 32zM269 337q-67 0 -89 -62h162q0 25 -19.5 43.5t-53.5 18.5zM271 488l-165 136l70 88l98 -81l100 79
l67 -87l-166 -135h-4z" />
    <glyph glyph-name="Gcircumflex" unicode="&#x11c;" horiz-adv-x="727" 
d="M378 249v150h299v-312q-45 -45 -119.5 -72t-142.5 -27q-177 0 -276 98t-99 264q0 155 97 258.5t258 103.5q137 0 229 -73l-67 -129q-21 22 -61.5 37t-81.5 15q-91 0 -147.5 -54t-56.5 -158q0 -97 56.5 -154.5t150.5 -57.5q30 0 63.5 11.5t46.5 23.5v76h-149zM202 806
l178 119h4l184 -117l-58 -85l-128 66l-128 -66z" />
    <glyph glyph-name="gcircumflex" unicode="&#x11d;" horiz-adv-x="504" 
d="M0 -58q0 56 40 92t109 50q-6 12 -6 25q0 15 7 26q-52 21 -81.5 62.5t-29.5 91.5q0 71 54.5 122t144.5 51q66 0 115 -30l141 28l5 -120l-67 -13q5 -22 5 -38q0 -67 -50.5 -115.5t-132.5 -53.5q-1 -4 -1 -11q0 -8 3 -17q98 -3 160 -41t62 -109q0 -74 -67 -112t-172 -38
q-106 0 -172.5 37t-66.5 113zM140 -58q0 -30 99 -30t99 30q0 31 -99 31t-99 -31zM179 289q0 -22 15.5 -35.5t43.5 -13.5q26 0 42.5 13t16.5 36t-15 38t-44 15q-27 0 -43 -15.5t-16 -37.5zM247 706l165 -136l-70 -88l-98 81l-100 -79l-67 87l166 135h4z" />
    <glyph glyph-name="Gbreve" unicode="&#x11e;" horiz-adv-x="727" 
d="M378 249v150h299v-312q-45 -45 -119.5 -72t-142.5 -27q-177 0 -276 98t-99 264q0 155 97 258.5t258 103.5q137 0 229 -73l-67 -129q-21 22 -61.5 37t-81.5 15q-91 0 -147.5 -54t-56.5 -158q0 -97 56.5 -154.5t150.5 -57.5q30 0 63.5 11.5t46.5 23.5v76h-149zM203 843
l64 77q58 -60 143 -60q86 0 140 60l55 -78q-28 -47 -81.5 -79.5t-113.5 -32.5q-66 0 -122.5 34t-84.5 79z" />
    <glyph glyph-name="gbreve" unicode="&#x11f;" horiz-adv-x="504" 
d="M0 -58q0 56 40 92t109 50q-6 12 -6 25q0 15 7 26q-52 21 -81.5 62.5t-29.5 91.5q0 71 54.5 122t144.5 51q66 0 115 -30l141 28l5 -120l-67 -13q5 -22 5 -38q0 -67 -50.5 -115.5t-132.5 -53.5q-1 -4 -1 -11q0 -8 3 -17q98 -3 160 -41t62 -109q0 -74 -67 -112t-172 -38
q-106 0 -172.5 37t-66.5 113zM140 -58q0 -30 99 -30t99 30q0 31 -99 31t-99 -31zM179 289q0 -22 15.5 -35.5t43.5 -13.5q26 0 42.5 13t16.5 36t-15 38t-44 15q-27 0 -43 -15.5t-16 -37.5zM72 607l66 75q47 -52 105 -52q68 0 110 50l51 -72q-65 -98 -167 -98q-61 0 -103 31
t-62 66z" />
    <glyph glyph-name="Gdotaccent" unicode="&#x120;" horiz-adv-x="727" 
d="M378 249v150h299v-312q-45 -45 -119.5 -72t-142.5 -27q-177 0 -276 98t-99 264q0 155 97 258.5t258 103.5q137 0 229 -73l-67 -129q-21 22 -61.5 37t-81.5 15q-91 0 -147.5 -54t-56.5 -158q0 -97 56.5 -154.5t150.5 -57.5q30 0 63.5 11.5t46.5 23.5v76h-149zM274 845
q0 41 29.5 65.5t71.5 24.5q39 0 67.5 -25t28.5 -65q0 -44 -28.5 -70t-67.5 -26q-43 0 -72 25.5t-29 70.5z" />
    <glyph glyph-name="gdotaccent" unicode="&#x121;" horiz-adv-x="504" 
d="M0 -58q0 56 40 92t109 50q-6 12 -6 25q0 15 7 26q-52 21 -81.5 62.5t-29.5 91.5q0 71 54.5 122t144.5 51q66 0 115 -30l141 28l5 -120l-67 -13q5 -22 5 -38q0 -67 -50.5 -115.5t-132.5 -53.5q-1 -4 -1 -11q0 -8 3 -17q98 -3 160 -41t62 -109q0 -74 -67 -112t-172 -38
q-106 0 -172.5 37t-66.5 113zM140 -58q0 -30 99 -30t99 30q0 31 -99 31t-99 -31zM179 289q0 -22 15.5 -35.5t43.5 -13.5q26 0 42.5 13t16.5 36t-15 38t-44 15q-27 0 -43 -15.5t-16 -37.5zM150 605q0 39 26.5 62t64.5 23q34 0 59.5 -23.5t25.5 -61.5q0 -42 -25.5 -66.5
t-59.5 -24.5q-39 0 -65 24t-26 67z" />
    <glyph glyph-name="Gcommaaccent" unicode="&#x122;" horiz-adv-x="727" 
d="M378 249v150h299v-312q-45 -45 -119.5 -72t-142.5 -27q-177 0 -276 98t-99 264q0 155 97 258.5t258 103.5q137 0 229 -73l-67 -129q-21 22 -61.5 37t-81.5 15q-91 0 -147.5 -54t-56.5 -158q0 -97 56.5 -154.5t150.5 -57.5q30 0 63.5 11.5t46.5 23.5v76h-149zM326 -50
l149 29q13 -18 13 -48q0 -55 -46.5 -93.5t-100.5 -45.5l-44 64q41 18 41 58q0 21 -12 36z" />
    <glyph glyph-name="gcommaaccent" unicode="&#x123;" horiz-adv-x="504" 
d="M0 -58q0 56 40 92t109 50q-6 12 -6 25q0 15 7 26q-52 21 -81.5 62.5t-29.5 91.5q0 71 54.5 122t144.5 51q66 0 115 -30l141 28l5 -120l-67 -13q5 -22 5 -38q0 -67 -50.5 -115.5t-132.5 -53.5q-1 -4 -1 -11q0 -8 3 -17q98 -3 160 -41t62 -109q0 -74 -67 -112t-172 -38
q-106 0 -172.5 37t-66.5 113zM140 -58q0 -30 99 -30t99 30q0 31 -99 31t-99 -31zM179 289q0 -22 15.5 -35.5t43.5 -13.5q26 0 42.5 13t16.5 36t-15 38t-44 15q-27 0 -43 -15.5t-16 -37.5zM316 547l-149 -29q-13 18 -13 48q0 55 46.5 93.5t100.5 45.5l44 -64q-41 -18 -41 -58
q0 -21 12 -36z" />
    <glyph glyph-name="Hcircumflex" unicode="&#x124;" horiz-adv-x="755" 
d="M505 0v282h-255v-282h-160v700h160v-268h255v268h160v-700h-160zM197 806l178 119h4l184 -117l-58 -85l-128 66l-128 -66z" />
    <glyph glyph-name="hcircumflex" unicode="&#x125;" horiz-adv-x="544" 
d="M55 0v700h150v-281q44 39 111 39q84 0 133.5 -47t49.5 -147v-264h-150v245q0 33 -20 53t-52 20q-43 0 -72 -29v-289h-150zM-33 806l178 119h4l184 -117l-58 -85l-128 66l-128 -66z" />
    <glyph glyph-name="Hbar" unicode="&#x126;" horiz-adv-x="765" 
d="M20 497v140h75v63h160v-63h255v63h160v-63h75v-140h-75v-497h-160v282h-255v-282h-160v497h-75zM255 432h255v65h-255v-65z" />
    <glyph glyph-name="hbar" unicode="&#x127;" horiz-adv-x="594" 
d="M10 490v140h95v70h150v-70h134v-140h-134v-71q44 39 111 39q84 0 133.5 -47t49.5 -147v-264h-150v245q0 33 -20 53t-52 20q-43 0 -72 -29v-289h-150v490h-95z" />
    <glyph glyph-name="Imacron" unicode="&#x12a;" horiz-adv-x="360" 
d="M100 0v700h160v-700h-160zM28 750v120h314v-120h-314z" />
    <glyph glyph-name="imacron" unicode="&#x12b;" horiz-adv-x="286" 
d="M68 0v450h150v-450h-150zM-4 520v120h294v-120h-294z" />
    <glyph glyph-name="Iogonek" unicode="&#x12e;" horiz-adv-x="360" 
d="M100 0v700h160v-700q-41 0 -70 -17.5t-29 -36.5q0 -26 30 -26q19 0 40 10l45 -90q-13 -16 -47 -28t-73 -12q-63 0 -104 24t-41 71q0 70 97 105h-8z" />
    <glyph glyph-name="iogonek" unicode="&#x12f;" horiz-adv-x="286" 
d="M189 -70l45 -90q-13 -16 -47 -28t-73 -12q-63 0 -104 24t-41 71q0 72 99 105v450h150v-450h-9q-38 -2 -64 -19t-26 -35q0 -26 30 -26q19 0 40 10zM51 605q0 39 26.5 62t64.5 23q34 0 59.5 -23.5t25.5 -61.5q0 -42 -25.5 -66.5t-59.5 -24.5q-39 0 -65 24t-26 67z" />
    <glyph glyph-name="Idotaccent" unicode="&#x130;" horiz-adv-x="360" 
d="M100 0v700h160v-700h-160zM82 845q0 41 29.5 65.5t71.5 24.5q39 0 67.5 -25t28.5 -65q0 -44 -28.5 -70t-67.5 -26q-43 0 -72 25.5t-29 70.5z" />
    <glyph glyph-name="dotlessi" unicode="&#x131;" horiz-adv-x="286" 
d="M68 0v450h150v-450h-150z" />
    <glyph glyph-name="Jcircumflex" unicode="&#x134;" horiz-adv-x="407" 
d="M317 700v-529q0 -89 -48 -136t-137 -47q-42 0 -79.5 15t-52.5 34l52 122q28 -21 58 -21q22 0 34.5 16t12.5 46v500h160zM55 806l178 119h4l184 -117l-58 -85l-128 66l-128 -66z" />
    <glyph glyph-name="jcircumflex" unicode="&#x135;" horiz-adv-x="281" 
d="M226 450v-483q0 -175 -141 -175q-38 0 -71.5 10t-48.5 24l39 119q23 -13 44 -13q28 0 28 49v469h150zM154 706l165 -136l-70 -88l-98 81l-100 -79l-67 87l166 135h4z" />
    <glyph glyph-name="Kcommaaccent" unicode="&#x136;" horiz-adv-x="692" 
d="M90 0v700h160v-305l229 305h192l-263 -323l284 -377h-203l-239 333v-333h-160zM266 -50l149 29q13 -18 13 -48q0 -55 -46.5 -93.5t-100.5 -45.5l-44 64q41 18 41 58q0 21 -12 36z" />
    <glyph glyph-name="kcommaaccent" unicode="&#x137;" horiz-adv-x="537" 
d="M55 0v700h150v-445l123 195h188l-146 -203l167 -247h-192l-140 215v-215h-150zM173 -50l149 29q13 -18 13 -48q0 -55 -46.5 -93.5t-100.5 -45.5l-44 64q41 18 41 58q0 21 -12 36z" />
    <glyph glyph-name="Lacute" unicode="&#x139;" horiz-adv-x="545" 
d="M90 0v700h160v-550h285v-150h-445zM467 806l-249 -78l-41 89l234 118z" />
    <glyph glyph-name="lacute" unicode="&#x13a;" horiz-adv-x="309" 
d="M55 129v571h150v-514q0 -58 25 -58q14 0 39 16l30 -114q-51 -42 -132 -42q-112 0 -112 141zM362 806l-249 -78l-41 89l234 118z" />
    <glyph glyph-name="Lcommaaccent" unicode="&#x13b;" horiz-adv-x="545" 
d="M90 0v700h160v-550h285v-150h-445zM226 -50l149 29q13 -18 13 -48q0 -55 -46.5 -93.5t-100.5 -45.5l-44 64q41 18 41 58q0 21 -12 36z" />
    <glyph glyph-name="lcommaaccent" unicode="&#x13c;" horiz-adv-x="309" 
d="M55 129v571h150v-514q0 -58 25 -58q14 0 39 16l30 -114q-51 -42 -132 -42q-112 0 -112 141zM101 -50l149 29q13 -18 13 -48q0 -55 -46.5 -93.5t-100.5 -45.5l-44 64q41 18 41 58q0 21 -12 36z" />
    <glyph glyph-name="Lcaron" unicode="&#x13d;" horiz-adv-x="545" 
d="M90 0v700h160v-550h285v-150h-445zM356 700h146q5 -12 5 -32q0 -131 -113 -194l-70 63q43 49 43 113q0 25 -11 50z" />
    <glyph glyph-name="lcaron" unicode="&#x13e;" horiz-adv-x="309" 
d="M55 129v571h150v-514q0 -58 25 -58q14 0 39 16l30 -114q-51 -42 -132 -42q-112 0 -112 141zM266 700h146q5 -12 5 -32q0 -131 -113 -194l-70 63q43 49 43 113q0 25 -11 50z" />
    <glyph glyph-name="Ldot" unicode="&#x13f;" horiz-adv-x="545" 
d="M90 0v700h160v-550h285v-150h-445zM344 376q0 36 28 65t74 29q40 0 67 -29t27 -65q0 -41 -26.5 -71.5t-67.5 -30.5q-46 0 -74 30t-28 72z" />
    <glyph glyph-name="ldot" unicode="&#x140;" horiz-adv-x="377" 
d="M55 129v571h150v-514q0 -58 25 -58q14 0 39 16l30 -114q-51 -42 -132 -42q-112 0 -112 141zM231 350q0 39 26.5 62t64.5 23q34 0 59.5 -23.5t25.5 -61.5q0 -42 -25.5 -66.5t-59.5 -24.5q-39 0 -65 24t-26 67z" />
    <glyph glyph-name="Lslash" unicode="&#x141;" horiz-adv-x="555" 
d="M20 189v154l80 35v322h160v-251l149 66v-153l-149 -67v-145h285v-150h-445v224z" />
    <glyph glyph-name="lslash" unicode="&#x142;" horiz-adv-x="339" 
d="M10 182v154l65 28v336h150v-270l84 37v-153l-84 -37v-91q0 -58 25 -58q14 0 39 16l30 -114q-51 -42 -132 -42q-112 0 -112 141v81z" />
    <glyph glyph-name="Nacute" unicode="&#x143;" horiz-adv-x="790" 
d="M700 0h-128l-332 420v-420h-150v700h128l332 -422v422h150v-700zM597 806l-249 -78l-41 89l234 118z" />
    <glyph glyph-name="nacute" unicode="&#x144;" horiz-adv-x="544" 
d="M55 0v450h150v-35q45 43 111 43q183 0 183 -190v-268h-150v242q0 38 -20 57t-54 19q-39 0 -70 -31v-287h-150zM418 649l-131 -146l-89 63l103 172z" />
    <glyph glyph-name="Ncommaaccent" unicode="&#x145;" horiz-adv-x="790" 
d="M700 0h-128l-332 420v-420h-150v700h128l332 -422v422h150v-700zM316 -50l149 29q13 -18 13 -48q0 -55 -46.5 -93.5t-100.5 -45.5l-44 64q41 18 41 58q0 21 -12 36z" />
    <glyph glyph-name="ncommaaccent" unicode="&#x146;" horiz-adv-x="544" 
d="M55 0v450h150v-35q45 43 111 43q183 0 183 -190v-268h-150v242q0 38 -20 57t-54 19q-39 0 -70 -31v-287h-150zM187 -50l149 29q13 -18 13 -48q0 -55 -46.5 -93.5t-100.5 -45.5l-44 64q41 18 41 58q0 21 -12 36z" />
    <glyph glyph-name="Ncaron" unicode="&#x147;" horiz-adv-x="790" 
d="M700 0h-128l-332 420v-420h-150v700h128l332 -422v422h150v-700zM397 733l-184 117l58 85l128 -76l128 76l52 -83l-178 -119h-4z" />
    <glyph glyph-name="ncaron" unicode="&#x148;" horiz-adv-x="544" 
d="M55 0v450h150v-35q45 43 111 43q183 0 183 -190v-268h-150v242q0 38 -20 57t-54 19q-39 0 -70 -31v-287h-150zM269 488l-165 136l70 88l98 -81l100 79l67 -87l-166 -135h-4z" />
    <glyph glyph-name="Omacron" unicode="&#x14c;" horiz-adv-x="824" 
d="M40 350q0 155 103.5 258.5t268.5 103.5q163 0 267.5 -99t104.5 -263q0 -158 -105.5 -260t-266.5 -102q-163 0 -267.5 99t-104.5 263zM210 350q0 -90 59 -151t143 -61q96 0 149 59.5t53 152.5q0 94 -58 153t-144 59q-88 0 -145 -58.5t-57 -153.5zM265 750v120h314v-120
h-314z" />
    <glyph glyph-name="omacron" unicode="&#x14d;" horiz-adv-x="560" 
d="M30 225q0 103 68.5 170t181.5 67t181.5 -67t68.5 -170t-68.5 -170t-181.5 -67t-181.5 67t-68.5 170zM190 225q0 -42 25.5 -69.5t64.5 -27.5t64.5 26t25.5 71q0 43 -26 70t-64 27t-64 -26.5t-26 -70.5zM143 520v120h294v-120h-294z" />
    <glyph glyph-name="Ohungarumlaut" unicode="&#x150;" horiz-adv-x="824" 
d="M40 350q0 155 103.5 258.5t268.5 103.5q163 0 267.5 -99t104.5 -263q0 -158 -105.5 -260t-266.5 -102q-163 0 -267.5 99t-104.5 263zM210 350q0 -90 59 -151t143 -61q96 0 149 59.5t53 152.5q0 94 -58 153t-144 59q-88 0 -145 -58.5t-57 -153.5zM695 841l-204 -113
l-61 63l159 144zM475 870l-167 -142l-64 58l101 149z" />
    <glyph glyph-name="ohungarumlaut" unicode="&#x151;" horiz-adv-x="560" 
d="M30 225q0 103 68.5 170t181.5 67t181.5 -67t68.5 -170t-68.5 -170t-181.5 -67t-181.5 67t-68.5 170zM190 225q0 -42 25.5 -69.5t64.5 -27.5t64.5 26t25.5 71q0 43 -26 70t-64 27t-64 -26.5t-26 -70.5zM513 642l-140 -139l-89 63l118 160zM319 660l-116 -157l-89 63
l97 174z" />
    <glyph glyph-name="OE" unicode="&#x152;" horiz-adv-x="1034" 
d="M549 0v14q-68 -26 -142 -26q-163 0 -265 99.5t-102 262.5q0 158 96 260t270 102q77 0 143 -28v16h415v-150h-255v-123h225v-150h-225v-127h265v-150h-425zM422 138q66 0 127 34v347q-71 43 -143 43q-85 0 -140.5 -56t-55.5 -156q0 -93 59 -152.5t153 -59.5z" />
    <glyph glyph-name="oe" unicode="&#x153;" horiz-adv-x="828" 
d="M724 145l41 -106q-68 -51 -175 -51q-92 0 -154 45q-64 -45 -156 -45q-113 0 -181.5 67t-68.5 170t68.5 170t181.5 67q94 0 158 -47q65 47 152 47q90 0 154 -59.5t64 -152.5q0 -45 -9 -75h-298q20 -62 105 -62q67 0 118 32zM280 128q46 0 74 28q-8 28 -8 69q0 37 9 70
q-31 27 -75 27q-38 0 -64 -26.5t-26 -70.5q0 -42 25.5 -69.5t64.5 -27.5zM585 337q-67 0 -89 -62h162q0 25 -19.5 43.5t-53.5 18.5z" />
    <glyph glyph-name="Racute" unicode="&#x154;" horiz-adv-x="673" 
d="M250 0h-160v700q22 0 126 1t112 1q136 0 197.5 -60t61.5 -164q0 -143 -118 -202l204 -276h-194l-170 245h-59v-245zM320 552q-4 0 -70 -2v-155h58q109 0 109 81q0 76 -97 76zM497 806l-249 -78l-41 89l234 118z" />
    <glyph glyph-name="racute" unicode="&#x155;" horiz-adv-x="368" 
d="M55 0v450h150v-36q30 44 93 44q47 0 70 -17l-53 -140q-29 17 -55 17q-37 0 -55 -32v-286h-150zM327 649l-131 -146l-89 63l103 172z" />
    <glyph glyph-name="Rcommaaccent" unicode="&#x156;" horiz-adv-x="673" 
d="M250 0h-160v700q22 0 126 1t112 1q136 0 197.5 -60t61.5 -164q0 -143 -118 -202l204 -276h-194l-170 245h-59v-245zM320 552q-4 0 -70 -2v-155h58q109 0 109 81q0 76 -97 76zM256 -50l149 29q13 -18 13 -48q0 -55 -46.5 -93.5t-100.5 -45.5l-44 64q41 18 41 58
q0 21 -12 36z" />
    <glyph glyph-name="rcommaaccent" unicode="&#x157;" horiz-adv-x="368" 
d="M55 0v450h150v-36q30 44 93 44q47 0 70 -17l-53 -140q-29 17 -55 17q-37 0 -55 -32v-286h-150zM97 -50l149 29q13 -18 13 -48q0 -55 -46.5 -93.5t-100.5 -45.5l-44 64q41 18 41 58q0 21 -12 36z" />
    <glyph glyph-name="Rcaron" unicode="&#x158;" horiz-adv-x="673" 
d="M250 0h-160v700q22 0 126 1t112 1q136 0 197.5 -60t61.5 -164q0 -143 -118 -202l204 -276h-194l-170 245h-59v-245zM320 552q-4 0 -70 -2v-155h58q109 0 109 81q0 76 -97 76zM315 733l-184 117l58 85l128 -76l128 76l52 -83l-178 -119h-4z" />
    <glyph glyph-name="rcaron" unicode="&#x159;" horiz-adv-x="368" 
d="M55 0v450h150v-36q30 44 93 44q47 0 70 -17l-53 -140q-29 17 -55 17q-37 0 -55 -32v-286h-150zM199 488l-165 136l70 88l98 -81l100 79l67 -87l-166 -135h-4z" />
    <glyph glyph-name="Sacute" unicode="&#x15a;" horiz-adv-x="557" 
d="M347 192q0 28 -30 50.5t-73 42.5t-86 45t-73 71t-30 109q0 84 62 143t164 59q134 0 206 -77l-86 -120q-27 25 -48.5 36t-57.5 11q-33 0 -51.5 -14t-18.5 -38q0 -27 21.5 -48t54 -34.5t70.5 -33.5t70.5 -42.5t54 -63t21.5 -94.5q0 -90 -68.5 -148t-171.5 -58
q-75 0 -144 31t-93 84l91 109q28 -36 69.5 -55t80.5 -19q31 0 48.5 14.5t17.5 39.5zM493 806l-249 -78l-41 89l234 118z" />
    <glyph glyph-name="sacute" unicode="&#x15b;" horiz-adv-x="459" 
d="M279 133q0 13 -24.5 21.5t-59.5 17t-70 22t-59.5 44.5t-24.5 77q0 70 50 108.5t126 38.5q119 0 189 -61l-56 -106q-61 42 -124 42q-16 0 -25.5 -6t-9.5 -14q0 -12 24.5 -20.5t59.5 -16.5t70 -21.5t59.5 -43.5t24.5 -75q0 -69 -52.5 -110.5t-141.5 -41.5
q-66 0 -126.5 27.5t-78.5 55.5l71 98q21 -21 66 -38.5t78 -17.5q34 0 34 20zM354 649l-131 -146l-89 63l103 172z" />
    <glyph glyph-name="Scircumflex" unicode="&#x15c;" horiz-adv-x="557" 
d="M347 192q0 28 -30 50.5t-73 42.5t-86 45t-73 71t-30 109q0 84 62 143t164 59q134 0 206 -77l-86 -120q-27 25 -48.5 36t-57.5 11q-33 0 -51.5 -14t-18.5 -38q0 -27 21.5 -48t54 -34.5t70.5 -33.5t70.5 -42.5t54 -63t21.5 -94.5q0 -90 -68.5 -148t-171.5 -58
q-75 0 -144 31t-93 84l91 109q28 -36 69.5 -55t80.5 -19q31 0 48.5 14.5t17.5 39.5zM95 806l178 119h4l184 -117l-58 -85l-128 66l-128 -66z" />
    <glyph glyph-name="scircumflex" unicode="&#x15d;" horiz-adv-x="459" 
d="M279 133q0 13 -24.5 21.5t-59.5 17t-70 22t-59.5 44.5t-24.5 77q0 70 50 108.5t126 38.5q119 0 189 -61l-56 -106q-61 42 -124 42q-16 0 -25.5 -6t-9.5 -14q0 -12 24.5 -20.5t59.5 -16.5t70 -21.5t59.5 -43.5t24.5 -75q0 -69 -52.5 -110.5t-141.5 -41.5
q-66 0 -126.5 27.5t-78.5 55.5l71 98q21 -21 66 -38.5t78 -17.5q34 0 34 20zM232 706l165 -136l-70 -88l-98 81l-100 -79l-67 87l166 135h4z" />
    <glyph glyph-name="Scedilla" unicode="&#x15e;" horiz-adv-x="557" 
d="M120 -157l48 74q13 -13 34.5 -25t39.5 -12q22 0 22 13q0 17 -25 17h-6v81q-65 8 -118.5 37t-74.5 75l91 109q28 -36 69.5 -55t80.5 -19q31 0 48.5 14.5t17.5 39.5q0 28 -30 50.5t-73 42.5t-86 45t-73 71t-30 109q0 84 62 143t164 59q134 0 206 -77l-86 -120
q-27 25 -48.5 36t-57.5 11q-33 0 -51.5 -14t-18.5 -38q0 -27 21.5 -48t54 -34.5t70.5 -33.5t70.5 -42.5t54 -63t21.5 -94.5q0 -84 -59 -140t-150 -64v-16q116 -9 116 -90q0 -42 -38.5 -68t-106.5 -26q-100 0 -159 53z" />
    <glyph glyph-name="scedilla" unicode="&#x15f;" horiz-adv-x="459" 
d="M74 -161l44 69q28 -28 68 -28q22 0 22 13q0 17 -25 17h-6v84q-50 10 -92 33t-55 44l71 98q21 -21 66 -38.5t78 -17.5q34 0 34 20q0 13 -24.5 21.5t-59.5 17t-70 22t-59.5 44.5t-24.5 77q0 70 50 108.5t126 38.5q119 0 189 -61l-56 -106q-61 42 -124 42q-16 0 -25.5 -6
t-9.5 -14q0 -12 24.5 -20.5t59.5 -16.5t70 -21.5t59.5 -43.5t24.5 -75q0 -66 -47.5 -106.5t-129.5 -44.5v-15q106 -9 106 -90q0 -43 -38.5 -68.5t-112.5 -25.5q-79 0 -133 49z" />
    <glyph glyph-name="Scaron" unicode="&#x160;" horiz-adv-x="557" 
d="M347 192q0 28 -30 50.5t-73 42.5t-86 45t-73 71t-30 109q0 84 62 143t164 59q134 0 206 -77l-86 -120q-27 25 -48.5 36t-57.5 11q-33 0 -51.5 -14t-18.5 -38q0 -27 21.5 -48t54 -34.5t70.5 -33.5t70.5 -42.5t54 -63t21.5 -94.5q0 -90 -68.5 -148t-171.5 -58
q-75 0 -144 31t-93 84l91 109q28 -36 69.5 -55t80.5 -19q31 0 48.5 14.5t17.5 39.5zM281 733l-184 117l58 85l128 -76l128 76l52 -83l-178 -119h-4z" />
    <glyph glyph-name="scaron" unicode="&#x161;" horiz-adv-x="459" 
d="M279 133q0 13 -24.5 21.5t-59.5 17t-70 22t-59.5 44.5t-24.5 77q0 70 50 108.5t126 38.5q119 0 189 -61l-56 -106q-61 42 -124 42q-16 0 -25.5 -6t-9.5 -14q0 -12 24.5 -20.5t59.5 -16.5t70 -21.5t59.5 -43.5t24.5 -75q0 -69 -52.5 -110.5t-141.5 -41.5
q-66 0 -126.5 27.5t-78.5 55.5l71 98q21 -21 66 -38.5t78 -17.5q34 0 34 20zM226 488l-165 136l70 88l98 -81l100 79l67 -87l-166 -135h-4z" />
    <glyph glyph-name="Tcedilla" unicode="&#x162;" 
d="M151 -157l48 74q13 -13 34.5 -25t39.5 -12q22 0 22 13q0 17 -25 17h-6v90h-44v550h-210v150h580v-150h-210v-550h-41v-26q116 -9 116 -90q0 -42 -38.5 -68t-106.5 -26q-100 0 -159 53z" />
    <glyph glyph-name="tcedilla" unicode="&#x163;" horiz-adv-x="366" 
d="M30 -161l44 69q28 -28 68 -28q22 0 22 13q0 17 -25 17h-6v86q-88 28 -88 175v404h150v-125h125v-140h-125v-132q0 -50 29 -50q32 0 67 26l45 -115q-51 -43 -128 -50v-15q106 -9 106 -90q0 -43 -38.5 -68.5t-112.5 -25.5q-79 0 -133 49z" />
    <glyph glyph-name="Tcaron" unicode="&#x164;" 
d="M10 550v150h580v-150h-210v-550h-160v550h-210zM294 733l-184 117l58 85l128 -76l128 76l52 -83l-178 -119h-4z" />
    <glyph glyph-name="tcaron" unicode="&#x165;" horiz-adv-x="366" 
d="M45 171v404h150v-125h125v-140h-125v-132q0 -50 29 -50q32 0 67 26l45 -115q-59 -51 -151 -51q-74 0 -107 46.5t-33 136.5zM256 700h146q5 -12 5 -32q0 -131 -113 -194l-70 63q43 49 43 113q0 25 -11 50z" />
    <glyph glyph-name="Umacron" unicode="&#x16a;" horiz-adv-x="751" 
d="M671 700v-411q0 -151 -81.5 -226t-204.5 -75q-139 0 -222 79t-83 229v404h160v-370q0 -192 145 -192q69 0 97.5 46.5t28.5 136.5v379h160zM228 750v120h314v-120h-314z" />
    <glyph glyph-name="umacron" unicode="&#x16b;" horiz-adv-x="530" 
d="M475 450v-450h-150v45q-45 -57 -129 -57q-62 0 -106.5 46t-44.5 133v283h150v-251q0 -30 14 -50.5t44 -20.5q39 0 72 41v281h150zM113 520v120h294v-120h-294z" />
    <glyph glyph-name="Ubreve" unicode="&#x16c;" horiz-adv-x="751" 
d="M671 700v-411q0 -151 -81.5 -226t-204.5 -75q-139 0 -222 79t-83 229v404h160v-370q0 -192 145 -192q69 0 97.5 46.5t28.5 136.5v379h160zM170 843l64 77q58 -60 143 -60q86 0 140 60l55 -78q-28 -47 -81.5 -79.5t-113.5 -32.5q-66 0 -122.5 34t-84.5 79z" />
    <glyph glyph-name="ubreve" unicode="&#x16d;" horiz-adv-x="530" 
d="M475 450v-450h-150v45q-45 -57 -129 -57q-62 0 -106.5 46t-44.5 133v283h150v-251q0 -30 14 -50.5t44 -20.5q39 0 72 41v281h150zM93 607l66 75q47 -52 105 -52q68 0 110 50l51 -72q-65 -98 -167 -98q-61 0 -103 31t-62 66z" />
    <glyph glyph-name="Uring" unicode="&#x16e;" horiz-adv-x="751" 
d="M671 700v-411q0 -151 -81.5 -226t-204.5 -75q-139 0 -222 79t-83 229v404h160v-370q0 -192 145 -192q69 0 97.5 46.5t28.5 136.5v379h160zM220 809q0 59 43.5 88.5t111.5 29.5q71 0 115.5 -29.5t44.5 -88.5q0 -58 -45 -89.5t-115 -31.5q-67 0 -111 31.5t-44 89.5z
M330 809q0 -41 47 -41q48 0 48 41q0 38 -48 38q-47 0 -47 -38z" />
    <glyph glyph-name="uring" unicode="&#x16f;" horiz-adv-x="530" 
d="M475 450v-450h-150v45q-45 -57 -129 -57q-62 0 -106.5 46t-44.5 133v283h150v-251q0 -30 14 -50.5t44 -20.5q39 0 72 41v281h150zM123 611q0 54 39 91.5t98 37.5q60 0 99.5 -37.5t39.5 -91.5q0 -53 -39.5 -90t-99.5 -37q-59 0 -98 37t-39 90zM218 613q0 -21 12 -35
t32 -14q19 0 30.5 14t11.5 35q0 20 -11.5 33.5t-30.5 13.5q-20 0 -32 -13.5t-12 -33.5z" />
    <glyph glyph-name="Uhungarumlaut" unicode="&#x170;" horiz-adv-x="751" 
d="M671 700v-411q0 -151 -81.5 -226t-204.5 -75q-139 0 -222 79t-83 229v404h160v-370q0 -192 145 -192q69 0 97.5 46.5t28.5 136.5v379h160zM645 841l-204 -113l-61 63l159 144zM425 870l-167 -142l-64 58l101 149z" />
    <glyph glyph-name="uhungarumlaut" unicode="&#x171;" horiz-adv-x="530" 
d="M475 450v-450h-150v45q-45 -57 -129 -57q-62 0 -106.5 46t-44.5 133v283h150v-251q0 -30 14 -50.5t44 -20.5q39 0 72 41v281h150zM493 642l-140 -139l-89 63l118 160zM299 660l-116 -157l-89 63l97 174z" />
    <glyph glyph-name="Uogonek" unicode="&#x172;" horiz-adv-x="751" 
d="M671 700v-411q0 -116 -50 -187.5t-133 -98.5q-64 -31 -64 -57t30 -26q19 0 40 10l45 -90q-13 -16 -47 -28t-73 -12q-63 0 -104 24t-41 71q0 58 78 94q-125 9 -198.5 87.5t-73.5 219.5v404h160v-370q0 -192 145 -192q69 0 97.5 46.5t28.5 136.5v379h160z" />
    <glyph glyph-name="uogonek" unicode="&#x173;" horiz-adv-x="530" 
d="M446 -70l45 -90q-13 -16 -47 -28t-73 -12q-63 0 -104 24t-41 71q0 72 99 105v45q-45 -57 -129 -57q-62 0 -106.5 46t-44.5 133v283h150v-251q0 -30 14 -50.5t44 -20.5q39 0 72 41v281h150v-450q-41 0 -70 -17.5t-29 -36.5q0 -26 30 -26q19 0 40 10z" />
    <glyph glyph-name="Ydieresis" unicode="&#x178;" horiz-adv-x="654" 
d="M654 700l-248 -415v-285h-160v285l-246 415h183l150 -265l148 265h173zM117 837q0 36 28 57t70 21q37 0 64 -21.5t27 -56.5q0 -39 -27 -61.5t-64 -22.5q-42 0 -70 22t-28 62zM348 837q0 36 28.5 57t69.5 21q37 0 64 -21.5t27 -56.5q0 -39 -26.5 -61.5t-64.5 -22.5
q-42 0 -70 22t-28 62z" />
    <glyph glyph-name="Zacute" unicode="&#x179;" horiz-adv-x="650" 
d="M60 550v150h540v-112l-347 -438h357v-150h-570v112l346 438h-326zM527 806l-249 -78l-41 89l234 118z" />
    <glyph glyph-name="zacute" unicode="&#x17a;" horiz-adv-x="495" 
d="M55 310v140h400v-110l-207 -200h202v-140h-410v110l206 200h-191zM383 649l-131 -146l-89 63l103 172z" />
    <glyph glyph-name="Zdotaccent" unicode="&#x17b;" horiz-adv-x="650" 
d="M60 550v150h540v-112l-347 -438h357v-150h-570v112l346 438h-326zM234 845q0 41 29.5 65.5t71.5 24.5q39 0 67.5 -25t28.5 -65q0 -44 -28.5 -70t-67.5 -26q-43 0 -72 25.5t-29 70.5z" />
    <glyph glyph-name="zdotaccent" unicode="&#x17c;" horiz-adv-x="495" 
d="M55 310v140h400v-110l-207 -200h202v-140h-410v110l206 200h-191zM156 605q0 39 26.5 62t64.5 23q34 0 59.5 -23.5t25.5 -61.5q0 -42 -25.5 -66.5t-59.5 -24.5q-39 0 -65 24t-26 67z" />
    <glyph glyph-name="Zcaron" unicode="&#x17d;" horiz-adv-x="650" 
d="M60 550v150h540v-112l-347 -438h357v-150h-570v112l346 438h-326zM335 733l-184 117l58 85l128 -76l128 76l52 -83l-178 -119h-4z" />
    <glyph glyph-name="zcaron" unicode="&#x17e;" horiz-adv-x="495" 
d="M55 310v140h400v-110l-207 -200h202v-140h-410v110l206 200h-191zM255 488l-165 136l70 88l98 -81l100 79l67 -87l-166 -135h-4z" />
    <glyph glyph-name="longs" unicode="&#x17f;" horiz-adv-x="260" 
d="M55 0v523q0 92 43.5 140.5t120.5 48.5q40 0 76.5 -12t54.5 -32l-50 -114q-17 18 -54 18q-17 0 -29 -15t-12 -43v-514h-150z" />
    <glyph glyph-name="uni018F" unicode="&#x18f;" horiz-adv-x="783" 
d="M46 432h523q-23 63 -80 96.5t-138 33.5q-84 0 -152 -51l-61 120q93 81 252 81q154 0 253.5 -100t99.5 -262q0 -167 -98.5 -264.5t-262.5 -97.5q-169 0 -266 119.5t-70 324.5zM380 138q157 0 195 144h-363q8 -60 52 -102t116 -42z" />
    <glyph glyph-name="florin" unicode="&#x192;" 
d="M428 514l-11 -64h89v-140h-113l-59 -343q-17 -90 -50 -132.5t-104 -42.5q-38 0 -71.5 10t-48.5 24l39 119q23 -13 44 -13q15 0 26 14t15 35l57 329h-95v140h119l13 73q19 100 56.5 144.5t110.5 44.5q40 0 76.5 -12t54.5 -32l-50 -114q-17 18 -54 18q-34 0 -44 -58z" />
    <glyph glyph-name="uni01DD" unicode="&#x1dd;" horiz-adv-x="512" 
d="M110 305l-41 106q68 51 175 51q110 0 174 -65t64 -172q0 -103 -61 -170t-172 -67q-97 0 -163 59t-66 153q0 45 9 75h304q-20 62 -105 62q-67 0 -118 -32zM249 113q67 0 89 62h-162q0 -25 19.5 -43.5t53.5 -18.5z" />
    <glyph glyph-name="Scommaaccent" unicode="&#x218;" horiz-adv-x="557" 
d="M347 192q0 28 -30 50.5t-73 42.5t-86 45t-73 71t-30 109q0 84 62 143t164 59q134 0 206 -77l-86 -120q-27 25 -48.5 36t-57.5 11q-33 0 -51.5 -14t-18.5 -38q0 -27 21.5 -48t54 -34.5t70.5 -33.5t70.5 -42.5t54 -63t21.5 -94.5q0 -90 -68.5 -148t-171.5 -58
q-75 0 -144 31t-93 84l91 109q28 -36 69.5 -55t80.5 -19q31 0 48.5 14.5t17.5 39.5zM212 -50l149 29q13 -18 13 -48q0 -55 -46.5 -93.5t-100.5 -45.5l-44 64q41 18 41 58q0 21 -12 36z" />
    <glyph glyph-name="scommaaccent" unicode="&#x219;" horiz-adv-x="459" 
d="M279 133q0 13 -24.5 21.5t-59.5 17t-70 22t-59.5 44.5t-24.5 77q0 70 50 108.5t126 38.5q119 0 189 -61l-56 -106q-61 42 -124 42q-16 0 -25.5 -6t-9.5 -14q0 -12 24.5 -20.5t59.5 -16.5t70 -21.5t59.5 -43.5t24.5 -75q0 -69 -52.5 -110.5t-141.5 -41.5
q-66 0 -126.5 27.5t-78.5 55.5l71 98q21 -21 66 -38.5t78 -17.5q34 0 34 20zM154 -50l149 29q13 -18 13 -48q0 -55 -46.5 -93.5t-100.5 -45.5l-44 64q41 18 41 58q0 21 -12 36z" />
    <glyph glyph-name="Tcommaaccent" unicode="&#x21a;" 
d="M10 550v150h580v-150h-210v-550h-160v550h-210zM211 -50l149 29q13 -18 13 -48q0 -55 -46.5 -93.5t-100.5 -45.5l-44 64q41 18 41 58q0 21 -12 36z" />
    <glyph glyph-name="tcommaaccent" unicode="&#x21b;" horiz-adv-x="366" 
d="M45 171v404h150v-125h125v-140h-125v-132q0 -50 29 -50q32 0 67 26l45 -115q-59 -51 -151 -51q-74 0 -107 46.5t-33 136.5zM86 -50l149 29q13 -18 13 -48q0 -55 -46.5 -93.5t-100.5 -45.5l-44 64q41 18 41 58q0 21 -12 36z" />
    <glyph glyph-name="uni0237" unicode="&#x237;" horiz-adv-x="281" 
d="M226 450v-483q0 -175 -141 -175q-38 0 -71.5 10t-48.5 24l39 119q23 -13 44 -13q28 0 28 49v469h150z" />
    <glyph glyph-name="uni0259" unicode="&#x259;" horiz-adv-x="512" 
d="M110 305l-41 106q68 51 175 51q110 0 174 -65t64 -172q0 -103 -61 -170t-172 -67q-97 0 -163 59t-66 153q0 45 9 75h304q-20 62 -105 62q-67 0 -118 -32zM249 113q67 0 89 62h-162q0 -25 19.5 -43.5t53.5 -18.5z" />
    <glyph glyph-name="afii57929" unicode="&#x2bc;" horiz-adv-x="303" 
d="M79 627l126 73q38 -40 38 -105q0 -71 -34.5 -119.5t-78.5 -74.5l-70 63q43 40 43 98q0 41 -24 65z" />
    <glyph glyph-name="circumflex" unicode="&#x2c6;" horiz-adv-x="455" 
d="M230 706l165 -136l-70 -88l-98 81l-100 -79l-67 87l166 135h4z" />
    <glyph glyph-name="caron" unicode="&#x2c7;" horiz-adv-x="455" 
d="M225 488l-165 136l70 88l98 -81l100 79l67 -87l-166 -135h-4z" />
    <glyph glyph-name="breve" unicode="&#x2d8;" horiz-adv-x="452" 
d="M60 607l66 75q47 -52 105 -52q68 0 110 50l51 -72q-65 -98 -167 -98q-61 0 -103 31t-62 66z" />
    <glyph glyph-name="dotaccent" unicode="&#x2d9;" horiz-adv-x="296" 
d="M60 605q0 39 26.5 62t64.5 23q34 0 59.5 -23.5t25.5 -61.5q0 -42 -25.5 -66.5t-59.5 -24.5q-39 0 -65 24t-26 67z" />
    <glyph glyph-name="ring" unicode="&#x2da;" horiz-adv-x="396" 
d="M60 611q0 54 39 91.5t98 37.5q60 0 99.5 -37.5t39.5 -91.5q0 -53 -39.5 -90t-99.5 -37q-59 0 -98 37t-39 90zM155 613q0 -21 12 -35t32 -14q19 0 30.5 14t11.5 35q0 20 -11.5 33.5t-30.5 13.5q-20 0 -32 -13.5t-12 -33.5z" />
    <glyph glyph-name="ogonek" unicode="&#x2db;" horiz-adv-x="385" 
d="M280 -70l45 -90q-13 -16 -47 -28t-73 -12q-63 0 -104 24t-41 71q0 44 40 74.5t94.5 42.5t114.5 11v-23q-41 0 -70 -17.5t-29 -36.5q0 -26 30 -26q19 0 40 10z" />
    <glyph glyph-name="tilde" unicode="&#x2dc;" horiz-adv-x="485" 
d="M120 519l-60 67q55 78 132 78q24 0 61 -19.5t57 -19.5q10 0 17 1t14 4t10.5 5t12 8.5t12.5 8.5l49 -75q-60 -72 -127 -72q-22 0 -59 19.5t-60 19.5q-15 0 -59 -25z" />
    <glyph glyph-name="hungarumlaut" unicode="&#x2dd;" horiz-adv-x="519" 
d="M459 642l-140 -139l-89 63l118 160zM265 660l-116 -157l-89 63l97 174z" />
    <glyph glyph-name="gravecomb" unicode="&#x300;" horiz-adv-x="0" 
d="M-296 503l-133 144l119 89l103 -170z" />
    <glyph glyph-name="acutecomb" unicode="&#x301;" horiz-adv-x="0" 
d="M-123 649l-131 -146l-89 63l103 172z" />
    <glyph glyph-name="uni0394" unicode="&#x394;" horiz-adv-x="756" 
d="M20 0l303 708h103l310 -708h-716zM371 440l-119 -290h246z" />
    <glyph glyph-name="uni0394" unicode="&#x2206;" horiz-adv-x="756" 
d="M20 0l303 708h103l310 -708h-716zM371 440l-119 -290h246z" />
    <glyph glyph-name="uni03A9" unicode="&#x3a9;" horiz-adv-x="829" 
d="M40 0v150h144q-44 14 -87.5 82.5t-43.5 157.5q0 148 103 235t259 87q159 0 260.5 -86.5t101.5 -235.5q0 -95 -43.5 -159.5t-88.5 -80.5h144v-150h-341v150q73 22 116 83.5t43 129.5q0 80 -51 139.5t-141 59.5q-95 0 -143.5 -59t-48.5 -143q0 -60 43 -125.5t115 -84.5
v-150h-341z" />
    <glyph glyph-name="uni03A9" unicode="&#x2126;" horiz-adv-x="829" 
d="M40 0v150h144q-44 14 -87.5 82.5t-43.5 157.5q0 148 103 235t259 87q159 0 260.5 -86.5t101.5 -235.5q0 -95 -43.5 -159.5t-88.5 -80.5h144v-150h-341v150q73 22 116 83.5t43 129.5q0 80 -51 139.5t-141 59.5q-95 0 -143.5 -59t-48.5 -143q0 -60 43 -125.5t115 -84.5
v-150h-341z" />
    <glyph glyph-name="pi" unicode="&#x3c0;" horiz-adv-x="619" 
d="M37 310v140h533v-140h-65v-124q0 -58 25 -58q14 0 39 16l30 -114q-51 -42 -132 -42q-112 0 -112 141v181h-96v-30q0 -87 -13.5 -144.5t-43.5 -90t-70 -45t-99 -12.5l-13 146q35 -4 60 22.5t28 103.5l2 50h-73z" />
    <glyph glyph-name="afii10023" unicode="&#x401;" horiz-adv-x="575" 
d="M90 0v700h415v-150h-255v-123h225v-150h-225v-127h265v-150h-425zM100 837q0 36 28 57t70 21q37 0 64 -21.5t27 -56.5q0 -39 -27 -61.5t-64 -22.5q-42 0 -70 22t-28 62zM331 837q0 36 28.5 57t69.5 21q37 0 64 -21.5t27 -56.5q0 -39 -26.5 -61.5t-64.5 -22.5
q-42 0 -70 22t-28 62z" />
    <glyph glyph-name="afii10051" unicode="&#x402;" horiz-adv-x="767" 
d="M727 203q0 -105 -48.5 -160t-136.5 -55q-42 0 -79.5 15t-52.5 34l52 122q28 -21 58 -21q47 0 47 62q0 73 -82 73q-61 0 -105 -26v-247h-160v550h-210v150h580v-150h-210v-157q53 30 135 30q212 0 212 -220z" />
    <glyph glyph-name="afii10052" unicode="&#x403;" horiz-adv-x="510" 
d="M90 0v700h400v-150h-240v-550h-160zM537 806l-249 -78l-41 89l234 118z" />
    <glyph glyph-name="afii10053" unicode="&#x404;" horiz-adv-x="670" 
d="M489 432v-150h-280q20 -73 80.5 -108.5t137.5 -35.5q95 0 165 58l58 -135q-33 -31 -98 -52t-138 -21q-172 0 -273 97t-101 265q0 162 99.5 262t253.5 100q159 0 252 -81l-71 -120q-68 51 -152 51q-80 0 -134.5 -33.5t-75.5 -96.5h277z" />
    <glyph glyph-name="afii10054" unicode="&#x405;" horiz-adv-x="557" 
d="M347 192q0 28 -30 50.5t-73 42.5t-86 45t-73 71t-30 109q0 84 62 143t164 59q134 0 206 -77l-86 -120q-27 25 -48.5 36t-57.5 11q-33 0 -51.5 -14t-18.5 -38q0 -27 21.5 -48t54 -34.5t70.5 -33.5t70.5 -42.5t54 -63t21.5 -94.5q0 -90 -68.5 -148t-171.5 -58
q-75 0 -144 31t-93 84l91 109q28 -36 69.5 -55t80.5 -19q31 0 48.5 14.5t17.5 39.5z" />
    <glyph glyph-name="afii10055" unicode="&#x406;" horiz-adv-x="360" 
d="M100 0v700h160v-700h-160z" />
    <glyph glyph-name="afii10056" unicode="&#x407;" horiz-adv-x="360" 
d="M10 837q0 36 24 57t59 21q33 0 56.5 -21.5t23.5 -56.5q0 -39 -23.5 -61.5t-56.5 -22.5q-35 0 -59 22t-24 62zM188 837q0 36 24 57t60 21q32 0 55.5 -21.5t23.5 -56.5q0 -39 -23 -61.5t-56 -22.5q-36 0 -60 22t-24 62zM100 0v700h160v-700h-160z" />
    <glyph glyph-name="afii10057" unicode="&#x408;" horiz-adv-x="407" 
d="M317 700v-529q0 -89 -48 -136t-137 -47q-42 0 -79.5 15t-52.5 34l52 122q28 -21 58 -21q22 0 34.5 16t12.5 46v500h160z" />
    <glyph glyph-name="afii10058" unicode="&#x409;" horiz-adv-x="999" 
d="M483 0v550h-154l-15 -132q-16 -137 -40 -224.5t-61.5 -133t-82.5 -58.5t-110 -2l3 160q20 -4 35 0t33 25.5t31.5 63t26 120.5t20.5 191l10 140h464v-219q32 4 61 4q126 0 190.5 -63t64.5 -173q0 -116 -76 -183.5t-213 -67.5q-40 0 -105.5 1t-81.5 1zM690 335
q-15 0 -47 -5v-178q34 -4 46 -4q100 0 100 97q0 45 -26.5 67.5t-72.5 22.5z" />
    <glyph glyph-name="afii10059" unicode="&#x40a;" horiz-adv-x="1012" 
d="M90 0v700h160v-246h245v246h160v-239q33 4 62 4q125 0 190 -61.5t65 -164.5q0 -108 -76.5 -174.5t-212.5 -66.5q-31 0 -85.5 1t-73.5 1h-29v304h-245v-304h-160zM655 310v-158q36 -4 47 -4q49 0 74.5 22.5t25.5 64.5q0 38 -27 59t-72 21q-15 0 -48 -5z" />
    <glyph glyph-name="afii10060" unicode="&#x40b;" horiz-adv-x="768" 
d="M10 550v150h580v-150h-210v-157q53 30 133 30q40 0 76.5 -11.5t68.5 -36t51 -69.5t19 -106v-200h-160v152q0 70 -26.5 95.5t-71.5 25.5q-47 0 -90 -27v-246h-160v550h-210z" />
    <glyph glyph-name="afii10061" unicode="&#x40c;" horiz-adv-x="692" 
d="M90 0v700h160v-305l229 305h192l-263 -323l284 -377h-203l-239 333v-333h-160zM597 806l-249 -78l-41 89l234 118z" />
    <glyph glyph-name="afii10062" unicode="&#x40e;" horiz-adv-x="701" 
d="M691 700l-235 -534q-37 -84 -86 -125t-119 -41q-29 0 -60 9.5t-46 21.5l56 136q25 -17 49 -17q39 0 52 28l9 21l-301 501h181l197 -342l142 342h161zM154 880h150q0 -28 14 -39t48 -11q31 0 44.5 10t13.5 40h150q1 -72 -56.5 -116t-151.5 -44q-100 0 -156 43.5t-56 116.5
z" />
    <glyph glyph-name="afii10145" unicode="&#x40f;" horiz-adv-x="735" 
d="M90 0v700h160v-550h235v550h160v-700h-203v-150h-150v150h-202z" />
    <glyph glyph-name="afii10017" unicode="&#x410;" horiz-adv-x="725" 
d="M0 0l291 700h143l291 -700h-171l-58 147h-277l-58 -147h-161zM358 495l-79 -198h157z" />
    <glyph glyph-name="afii10018" unicode="&#x411;" horiz-adv-x="617" 
d="M90 0v700h422v-150h-262v-111q29 6 80 6q102 0 164.5 -59t62.5 -157q0 -110 -71 -172t-201 -62q-52 0 -116.5 2.5t-78.5 2.5zM317 295q-31 0 -67 -6v-139q43 -5 60 -5q87 0 87 72q0 34 -19.5 56t-60.5 22z" />
    <glyph glyph-name="afii10019" unicode="&#x412;" horiz-adv-x="617" 
d="M90 2v696q117 6 212 6q119 0 177 -48t58 -126q0 -104 -80 -156v-2q43 -16 71.5 -56.5t28.5 -103.5q0 -106 -73.5 -161t-192.5 -55q-139 0 -201 6zM312 283h-62v-131q22 -6 54 -6q93 0 93 74q0 63 -85 63zM300 554q-14 0 -50 -4v-127h53q74 0 74 68q0 30 -22.5 46.5
t-54.5 16.5z" />
    <glyph glyph-name="afii10020" unicode="&#x413;" horiz-adv-x="510" 
d="M90 0v700h400v-150h-240v-550h-160z" />
    <glyph glyph-name="afii10021" unicode="&#x414;" horiz-adv-x="764" 
d="M10 -120v270h75q29 37 61.5 147.5t39.5 262.5l6 140h457v-550h95v-270h-150v120h-434v-120h-150zM336 432q-8 -86 -32 -171.5t-43 -110.5h228v400h-142z" />
    <glyph glyph-name="afii10022" unicode="&#x415;" horiz-adv-x="575" 
d="M90 0v700h415v-150h-255v-123h225v-150h-225v-127h265v-150h-425z" />
    <glyph glyph-name="afii10024" unicode="&#x416;" horiz-adv-x="974" 
d="M254 365l-243 335h184l212 -306v306h160v-306l212 306h184l-243 -334l254 -366h-184l-223 335v-335h-160v335l-223 -335h-184z" />
    <glyph glyph-name="afii10025" unicode="&#x417;" horiz-adv-x="592" 
d="M281 -12q-168 0 -251 126l87 109q76 -85 157 -85q39 0 68.5 17.5t29.5 56.5q0 32 -27 51.5t-82 19.5h-64v150h60q37 0 61.5 16.5t24.5 47.5q0 32 -21 48.5t-56 16.5q-72 0 -124 -73l-92 108q35 51 98.5 83t138.5 32q97 0 156.5 -51.5t59.5 -145.5q0 -90 -88 -149v-3
q115 -36 115 -167q0 -93 -76 -150.5t-175 -57.5z" />
    <glyph glyph-name="afii10026" unicode="&#x418;" horiz-adv-x="790" 
d="M230 0h-140v700h160v-435l310 435h140v-700h-160v435z" />
    <glyph glyph-name="afii10027" unicode="&#x419;" horiz-adv-x="790" 
d="M230 0h-140v700h160v-435l310 435h140v-700h-160v435zM200 880h150q0 -28 14 -39t48 -11q31 0 44.5 10t13.5 40h150q1 -72 -56.5 -116t-151.5 -44q-100 0 -156 43.5t-56 116.5z" />
    <glyph glyph-name="afii10028" unicode="&#x41a;" horiz-adv-x="692" 
d="M90 0v700h160v-305l229 305h192l-263 -323l284 -377h-203l-239 333v-333h-160z" />
    <glyph glyph-name="afii10029" unicode="&#x41b;" horiz-adv-x="733" 
d="M483 0v550h-154l-15 -132q-16 -137 -40 -224.5t-61.5 -133t-82.5 -58.5t-110 -2l3 160q20 -4 35 0t33 25.5t31.5 63t26 120.5t20.5 191l10 140h464v-700h-160z" />
    <glyph glyph-name="afii10030" unicode="&#x41c;" horiz-adv-x="912" 
d="M90 0v700h161l216 -295l204 295h151v-700h-160v446l-195 -273h-23l-194 270v-443h-160z" />
    <glyph glyph-name="afii10031" unicode="&#x41d;" horiz-adv-x="755" 
d="M505 0v282h-255v-282h-160v700h160v-268h255v268h160v-700h-160z" />
    <glyph glyph-name="afii10032" unicode="&#x41e;" horiz-adv-x="824" 
d="M40 350q0 155 103.5 258.5t268.5 103.5q163 0 267.5 -99t104.5 -263q0 -158 -105.5 -260t-266.5 -102q-163 0 -267.5 99t-104.5 263zM210 350q0 -90 59 -151t143 -61q96 0 149 59.5t53 152.5q0 94 -58 153t-144 59q-88 0 -145 -58.5t-57 -153.5z" />
    <glyph glyph-name="afii10033" unicode="&#x41f;" horiz-adv-x="745" 
d="M495 0v550h-245v-550h-160v700h565v-700h-160z" />
    <glyph glyph-name="afii10034" unicode="&#x420;" horiz-adv-x="627" 
d="M250 0h-160v700q18 0 101.5 1t112.5 1q149 0 216 -65.5t67 -166.5q0 -98 -71 -166.5t-188 -68.5q-53 0 -78 3v-238zM320 552q-4 0 -70 -2v-160q38 -5 73 -5q38 0 66 20t28 66q0 81 -97 81z" />
    <glyph glyph-name="afii10035" unicode="&#x421;" horiz-adv-x="655" 
d="M574 189l61 -120q-32 -36 -95 -58.5t-133 -22.5q-163 0 -265 99.5t-102 262.5q0 158 96 260t270 102q67 0 124 -20.5t90 -52.5l-71 -120q-71 43 -143 43q-85 0 -140.5 -56t-55.5 -156q0 -93 59 -152.5t153 -59.5q84 0 152 51z" />
    <glyph glyph-name="afii10036" unicode="&#x422;" 
d="M10 550v150h580v-150h-210v-550h-160v550h-210z" />
    <glyph glyph-name="afii10037" unicode="&#x423;" horiz-adv-x="701" 
d="M691 700l-235 -534q-37 -84 -86 -125t-119 -41q-29 0 -60 9.5t-46 21.5l56 136q25 -17 49 -17q39 0 52 28l9 21l-301 501h181l197 -342l142 342h161z" />
    <glyph glyph-name="afii10038" unicode="&#x424;" horiz-adv-x="844" 
d="M341 -8v94q-143 2 -227 73.5t-84 200.5q0 127 85 198.5t226 75.5v74h160v-74q140 -3 226.5 -76t86.5 -198q0 -128 -85.5 -200t-227.5 -74v-94h-160zM644 360q0 55 -34 90t-109 37v-254q77 1 110 32.5t33 94.5zM200 360q0 -124 141 -127v254q-72 -2 -106.5 -37t-34.5 -90z
" />
    <glyph glyph-name="afii10039" unicode="&#x425;" horiz-adv-x="674" 
d="M665 700l-224 -343l233 -357h-188l-150 235l-148 -235h-188l233 357l-222 343h188l142 -225l136 225h188z" />
    <glyph glyph-name="afii10040" unicode="&#x426;" horiz-adv-x="765" 
d="M90 0v700h160v-550h240v550h160v-550h95v-270h-150v120h-505z" />
    <glyph glyph-name="afii10041" unicode="&#x427;" horiz-adv-x="685" 
d="M595 700v-700h-160v268q-52 -41 -150 -41q-40 0 -76.5 11.5t-68.5 36t-51 69.5t-19 106v250h160v-202q0 -70 26.5 -95.5t71.5 -25.5q56 0 107 37v286h160z" />
    <glyph glyph-name="afii10042" unicode="&#x428;" horiz-adv-x="1000" 
d="M90 0v700h160v-550h170v550h160v-550h170v550h160v-700h-820z" />
    <glyph glyph-name="afii10043" unicode="&#x429;" horiz-adv-x="1025" 
d="M90 0v700h160v-550h170v550h160v-550h170v550h160v-550h95v-270h-150v120h-765z" />
    <glyph glyph-name="afii10044" unicode="&#x42a;" horiz-adv-x="677" 
d="M10 550v150h300v-219q33 4 62 4q133 0 199 -62.5t66 -173.5q0 -115 -78 -183t-221 -68q-40 0 -105.5 1t-82.5 1v550h-140zM358 335q-15 0 -48 -5v-178q36 -4 47 -4q110 0 110 97q0 90 -109 90z" />
    <glyph glyph-name="afii10045" unicode="&#x42b;" horiz-adv-x="885" 
d="M635 0v700h160v-700h-160zM298 335q-15 0 -48 -5v-178q36 -4 47 -4q100 0 100 97q0 45 -26.5 67.5t-72.5 22.5zM250 700v-219q33 4 62 4q126 0 190.5 -63t64.5 -173q0 -114 -76 -182.5t-213 -68.5q-40 0 -105.5 1t-82.5 1v700h160z" />
    <glyph glyph-name="afii10046" unicode="&#x42c;" horiz-adv-x="617" 
d="M298 335q-15 0 -48 -5v-178q36 -4 47 -4q110 0 110 97q0 90 -109 90zM250 700v-219q33 4 62 4q133 0 199 -62.5t66 -173.5q0 -115 -78 -183t-221 -68q-40 0 -105.5 1t-82.5 1v700h160z" />
    <glyph glyph-name="afii10047" unicode="&#x42d;" horiz-adv-x="670" 
d="M181 282v150h275q-23 63 -80 96.5t-138 33.5q-84 0 -152 -51l-61 120q93 81 252 81q154 0 253.5 -100t99.5 -262q0 -168 -101 -265t-273 -97q-73 0 -138 21t-98 52l68 135q70 -58 165 -58q75 0 132.5 35.5t76.5 108.5h-281z" />
    <glyph glyph-name="afii10048" unicode="&#x42e;" horiz-adv-x="1084" 
d="M90 0v700h160v-268h88q25 125 117 202.5t227 77.5q162 0 262 -98.5t100 -263.5q0 -159 -101 -260.5t-261 -101.5q-132 0 -229 79.5t-118 214.5h-85v-282h-160zM500 350q0 -89 55 -150.5t132 -61.5q95 0 141 58.5t46 153.5q0 96 -51 154t-136 58q-81 0 -134 -58.5
t-53 -153.5z" />
    <glyph glyph-name="afii10049" unicode="&#x42f;" horiz-adv-x="643" 
d="M393 0v225h-71l-133 -225h-179l164 260q-108 64 -108 191q0 109 74 181t227 72q22 0 94 -2t92 -2v-700h-160zM309 375h84v175q-20 4 -58 4q-41 0 -70 -25t-29 -67q0 -37 21 -58.5t52 -28.5z" />
    <glyph glyph-name="afii10065" unicode="&#x430;" horiz-adv-x="465" 
d="M103 309l-37 109q29 18 75.5 31t91.5 13q100 0 143.5 -48t43.5 -143v-271h-130v41q-33 -47 -118 -47q-63 0 -102.5 37.5t-39.5 104.5q0 73 45.5 111t116.5 38q56 0 88 -25q4 77 -62 77q-44 0 -115 -28zM223 119q40 0 57 23v28q-21 15 -57 15q-19 0 -31 -9t-12 -25
q0 -15 12 -23.5t31 -8.5z" />
    <glyph glyph-name="afii10066" unicode="&#x431;" horiz-adv-x="544" 
d="M383 712l78 -124q-28 -30 -62 -43.5t-76 -23.5t-70 -25q-68 -36 -78 -119h2q20 27 58.5 45t79.5 18q89 0 144 -59.5t55 -159.5q0 -98 -66 -165.5t-174 -67.5q-117 0 -183 78t-66 211q0 286 173 362q35 15 75 24.5t64.5 18.5t45.5 30zM185 245q1 -48 23 -82.5t62 -34.5
q41 0 62.5 24.5t21.5 61.5t-20 61.5t-58 24.5q-66 0 -91 -55z" />
    <glyph glyph-name="afii10067" unicode="&#x432;" horiz-adv-x="511" 
d="M55 0v450q12 0 47 2t73.5 3t72.5 1q213 0 213 -120q0 -39 -24 -66t-55 -32v-2q42 -12 65.5 -38.5t23.5 -62.5q0 -141 -222 -141q-30 0 -102.5 3t-91.5 3zM253 180h-48v-62q44 -4 61 -4q20 0 33 9.5t13 22.5q0 34 -59 34zM262 336q-39 0 -57 -3v-63h50q47 0 47 34
q0 13 -10.5 22.5t-29.5 9.5z" />
    <glyph glyph-name="afii10068" unicode="&#x433;" horiz-adv-x="385" 
d="M55 0v450h320v-140h-170v-310h-150z" />
    <glyph glyph-name="afii10069" unicode="&#x434;" horiz-adv-x="574" 
d="M10 -100v240h58q49 64 58 213l6 97h357v-310h75v-240h-140v100h-274v-100h-140zM270 292q-12 -101 -45 -152h114v170h-67z" />
    <glyph glyph-name="afii10070" unicode="&#x435;" horiz-adv-x="512" 
d="M408 145l41 -106q-68 -51 -175 -51q-111 0 -177.5 65t-66.5 172q0 101 67.5 169t176.5 68q90 0 154 -59.5t64 -152.5q0 -45 -9 -75h-298q20 -62 105 -62q67 0 118 32zM269 337q-67 0 -89 -62h162q0 25 -19.5 43.5t-53.5 18.5z" />
    <glyph glyph-name="afii10072" unicode="&#x436;" horiz-adv-x="739" 
d="M141 231l-132 219h181l103 -200v200h150v-201l107 201h177l-132 -219l144 -231h-177l-119 213v-213h-150v212l-116 -212h-177z" />
    <glyph glyph-name="afii10073" unicode="&#x437;" horiz-adv-x="479" 
d="M226 -12q-65 0 -123 23.5t-83 57.5l76 92q18 -21 52.5 -37t65.5 -16q65 0 65 32q0 34 -48 34h-86v100h81q22 0 32.5 10.5t10.5 25.5q0 32 -58 32q-54 0 -115 -52l-62 90q68 82 206 82q92 0 140.5 -35t48.5 -97q0 -32 -22.5 -58.5t-59.5 -38.5v-2q92 -21 92 -106
q0 -63 -58 -100t-155 -37z" />
    <glyph glyph-name="afii10074" unicode="&#x438;" horiz-adv-x="570" 
d="M205 0h-150v450h150v-235l160 235h150v-450h-150v235z" />
    <glyph glyph-name="afii10075" unicode="&#x439;" horiz-adv-x="570" 
d="M205 0h-150v450h150v-235l160 235h150v-450h-150v235zM117 670h130q0 -58 42 -58q38 0 38 58h130q0 -74 -43.5 -122t-124.5 -48q-88 0 -130 47t-42 123z" />
    <glyph glyph-name="afii10076" unicode="&#x43a;" horiz-adv-x="533" 
d="M55 0v450h150v-208l122 208h188l-146 -214l168 -236h-194l-138 210v-210h-150z" />
    <glyph glyph-name="afii10077" unicode="&#x43b;" horiz-adv-x="545" 
d="M340 0v300h-79l-2 -20q-12 -118 -36.5 -180.5t-68 -87t-121.5 -24.5l-13 146q37 -4 63 37.5t31 138.5l7 140h369v-450h-150z" />
    <glyph glyph-name="afii10078" unicode="&#x43c;" horiz-adv-x="636" 
d="M55 0v450h135l135 -153l125 153h131v-450h-150v221l-109 -125h-3l-114 125v-221h-150z" />
    <glyph glyph-name="afii10079" unicode="&#x43d;" horiz-adv-x="555" 
d="M350 0v155h-145v-155h-150v450h150v-155h145v155h150v-450h-150z" />
    <glyph glyph-name="afii10080" unicode="&#x43e;" horiz-adv-x="560" 
d="M30 225q0 103 68.5 170t181.5 67t181.5 -67t68.5 -170t-68.5 -170t-181.5 -67t-181.5 67t-68.5 170zM190 225q0 -42 25.5 -69.5t64.5 -27.5t64.5 26t25.5 71q0 43 -26 70t-64 27t-64 -26.5t-26 -70.5z" />
    <glyph glyph-name="afii10081" unicode="&#x43f;" horiz-adv-x="550" 
d="M345 0v310h-140v-310h-150v450h440v-450h-150z" />
    <glyph glyph-name="afii10082" unicode="&#x440;" horiz-adv-x="561" 
d="M55 -200v650h150v-34q46 46 125 46q90 0 145.5 -64.5t55.5 -165.5q0 -105 -67 -174.5t-175 -69.5q-51 0 -84 14v-202h-150zM283 322q-42 0 -78 -40v-137q29 -17 70 -17q47 0 71.5 28.5t24.5 72.5q0 41 -23.5 67t-64.5 26z" />
    <glyph glyph-name="afii10083" unicode="&#x441;" horiz-adv-x="485" 
d="M391 178l70 -110q-58 -80 -184 -80q-112 0 -179.5 65t-67.5 172q0 100 66.5 168.5t171.5 68.5q123 0 184 -64l-69 -118q-42 42 -96 42q-38 0 -67.5 -26t-29.5 -71q0 -43 30.5 -70t68.5 -27q55 0 102 50z" />
    <glyph glyph-name="afii10084" unicode="&#x442;" horiz-adv-x="450" 
d="M20 300v150h410v-150h-130v-300h-150v300h-130z" />
    <glyph glyph-name="afii10085" unicode="&#x443;" horiz-adv-x="516" 
d="M516 450l-175 -450q-48 -118 -86 -159t-91 -41q-57 0 -107 42l48 113q24 -16 43 -16q28 0 43 37l10 24l-201 450h181l77 -206q6 -16 17 -62q4 40 11 63l59 205h171z" />
    <glyph glyph-name="afii10086" unicode="&#x444;" horiz-adv-x="700" 
d="M275 -200v188h-1q-116 0 -180 66.5t-64 170.5q0 98 64.5 167.5t178.5 69.5h2v238h150v-238h3q116 0 179 -66.5t63 -170.5q0 -106 -60.5 -171.5t-181.5 -65.5h-3v-188h-150zM190 225q0 -96 85 -97v194h-3q-82 0 -82 -97zM428 322h-3v-194q85 0 85 97q0 42 -20 69.5
t-62 27.5z" />
    <glyph glyph-name="afii10087" unicode="&#x445;" horiz-adv-x="537" 
d="M517 450l-140 -214l150 -236h-183l-78 142l-83 -142h-173l149 228l-139 222h183l69 -128l72 128h173z" />
    <glyph glyph-name="afii10088" unicode="&#x446;" horiz-adv-x="570" 
d="M55 0v450h150v-310h130v310h150v-310h75v-240h-140v100h-365z" />
    <glyph glyph-name="afii10089" unicode="&#x447;" horiz-adv-x="500" 
d="M445 450v-450h-150v136q-43 -19 -100 -19q-88 0 -126.5 46t-38.5 135v152h160v-132q0 -61 48 -61q37 0 57 10v183h150z" />
    <glyph glyph-name="afii10090" unicode="&#x448;" horiz-adv-x="740" 
d="M55 0v450h150v-310h90v310h150v-310h90v310h150v-450h-630z" />
    <glyph glyph-name="afii10091" unicode="&#x449;" horiz-adv-x="770" 
d="M55 0v450h150v-310h90v310h150v-310h90v310h150v-310h75v-240h-140v100h-565z" />
    <glyph glyph-name="afii10092" unicode="&#x44a;" horiz-adv-x="552" 
d="M20 310v140h255v-105h52q109 0 157 -46.5t48 -115.5q0 -76 -53 -129.5t-163 -53.5h-191v310h-105zM314 225h-39v-95h38q59 0 59 47q0 48 -58 48z" />
    <glyph glyph-name="afii10093" unicode="&#x44b;" horiz-adv-x="705" 
d="M55 0v450h150v-105h47q109 0 157 -46.5t48 -115.5q0 -76 -53 -129.5t-163 -53.5h-186zM500 0v450h150v-450h-150zM239 225h-34v-95h33q59 0 59 47q0 48 -58 48z" />
    <glyph glyph-name="afii10094" unicode="&#x44c;" horiz-adv-x="482" 
d="M55 0v450h150v-105h52q109 0 157 -46.5t48 -115.5q0 -76 -53 -129.5t-163 -53.5h-191zM244 225h-39v-95h38q59 0 59 47q0 48 -58 48z" />
    <glyph glyph-name="afii10095" unicode="&#x44d;" horiz-adv-x="496" 
d="M129 177v100h177q-23 55 -94 55q-55 0 -120 -40l-61 104q32 32 82 49t96 17q120 0 188.5 -64t68.5 -173q0 -103 -65.5 -170t-182.5 -67q-124 0 -193 72l70 98q45 -40 114 -40q82 0 100 59h-180z" />
    <glyph glyph-name="afii10096" unicode="&#x44e;" horiz-adv-x="785" 
d="M55 0v450h160v-145h61q22 72 82.5 114.5t146.5 42.5q112 0 181 -67t69 -170q0 -102 -69.5 -169.5t-180.5 -67.5q-90 0 -151 45.5t-81 121.5h-58v-155h-160zM435 225q0 -42 21 -64.5t54 -22.5q34 0 54.5 22.5t20.5 64.5q0 41 -19.5 64t-55.5 23q-33 0 -54 -23t-21 -64z
" />
    <glyph glyph-name="afii10097" unicode="&#x44f;" horiz-adv-x="503" 
d="M293 450h155v-450h-150v115h-36l-71 -115h-171l107 148q-75 40 -75 133q0 75 59.5 122t181.5 47zM212 269q0 -18 17 -31t42 -13h27v95h-29q-25 0 -41 -16t-16 -35z" />
    <glyph glyph-name="afii10071" unicode="&#x451;" horiz-adv-x="512" 
d="M408 145l41 -106q-68 -51 -175 -51q-111 0 -177.5 65t-66.5 172q0 101 67.5 169t176.5 68q90 0 154 -59.5t64 -152.5q0 -45 -9 -75h-298q20 -62 105 -62q67 0 118 32zM269 337q-67 0 -89 -62h162q0 25 -19.5 43.5t-53.5 18.5zM97 589q0 37 23.5 59t58.5 22q30 0 53 -22
t23 -59q0 -40 -22.5 -63t-53.5 -23q-35 0 -58.5 23t-23.5 63zM290 589q0 37 24 59t58 22q31 0 53.5 -22t22.5 -59q0 -40 -22.5 -63t-53.5 -23q-35 0 -58.5 23t-23.5 63z" />
    <glyph glyph-name="afii10099" unicode="&#x452;" horiz-adv-x="584" 
d="M10 405v120h105v175h150v-175h136v-120h-136v-86q44 39 111 39q83 0 133 -46t50 -142q0 -131 -45.5 -224t-112.5 -146h-158q165 155 165 333q0 42 -19 63.5t-52 21.5q-43 0 -72 -29v-189h-150v405h-105z" />
    <glyph glyph-name="afii10100" unicode="&#x453;" horiz-adv-x="385" 
d="M55 0v450h320v-140h-170v-310h-150zM376 649l-131 -146l-89 63l103 172z" />
    <glyph glyph-name="afii10101" unicode="&#x454;" horiz-adv-x="496" 
d="M367 277v-100h-179q22 -59 109 -59q59 0 104 40l70 -98q-34 -36 -75.5 -54t-107.5 -18q-122 0 -190 67t-68 170q0 109 68.5 173t188.5 64q46 0 96 -17t82 -49l-61 -104q-52 40 -120 40q-72 0 -95 -55h178z" />
    <glyph glyph-name="afii10102" unicode="&#x455;" horiz-adv-x="459" 
d="M279 133q0 13 -24.5 21.5t-59.5 17t-70 22t-59.5 44.5t-24.5 77q0 70 50 108.5t126 38.5q119 0 189 -61l-56 -106q-61 42 -124 42q-16 0 -25.5 -6t-9.5 -14q0 -12 24.5 -20.5t59.5 -16.5t70 -21.5t59.5 -43.5t24.5 -75q0 -69 -52.5 -110.5t-141.5 -41.5
q-66 0 -126.5 27.5t-78.5 55.5l71 98q21 -21 66 -38.5t78 -17.5q34 0 34 20z" />
    <glyph glyph-name="afii10103" unicode="&#x456;" horiz-adv-x="286" 
d="M68 0v450h150v-450h-150zM55 605q0 39 26.5 62t64.5 23q34 0 59.5 -23.5t25.5 -61.5q0 -42 -25.5 -66.5t-59.5 -24.5q-39 0 -65 24t-26 67z" />
    <glyph glyph-name="afii10104" unicode="&#x457;" horiz-adv-x="337" 
d="M15 586q0 32 21 51.5t53 19.5q27 0 47.5 -19.5t20.5 -51.5q0 -34 -20.5 -54.5t-47.5 -20.5q-32 0 -53 20t-21 55zM180 586q0 32 21.5 51.5t52.5 19.5q28 0 48 -19.5t20 -51.5q0 -34 -20 -54.5t-48 -20.5q-31 0 -52.5 20t-21.5 55zM93 0v450h150v-450h-150z" />
    <glyph glyph-name="afii10105" unicode="&#x458;" horiz-adv-x="281" 
d="M226 450v-483q0 -175 -141 -175q-38 0 -71.5 10t-48.5 24l39 119q23 -13 44 -13q28 0 28 49v469h150zM64 605q0 39 26.5 62t64.5 23q34 0 59.5 -23.5t25.5 -61.5q0 -42 -25.5 -66.5t-59.5 -24.5q-39 0 -65 24t-26 67z" />
    <glyph glyph-name="afii10106" unicode="&#x459;" horiz-adv-x="743" 
d="M340 0v300h-79l-2 -20q-12 -118 -36.5 -180.5t-68 -87t-121.5 -24.5l-13 146q37 -4 63 37.5t31 138.5l7 140h369v-105h28q109 0 157 -46.5t48 -115.5q0 -76 -53 -129.5t-163 -53.5h-167zM505 225h-15v-95h14q59 0 59 47q0 48 -58 48z" />
    <glyph glyph-name="afii10107" unicode="&#x45a;" horiz-adv-x="753" 
d="M350 0v155h-145v-155h-150v450h150v-155h145v155h150v-105h28q109 0 157 -46.5t48 -115.5q0 -76 -53 -129.5t-163 -53.5h-167zM515 225h-15v-95h14q59 0 59 47q0 48 -58 48z" />
    <glyph glyph-name="afii10108" unicode="&#x45b;" horiz-adv-x="584" 
d="M10 405v120h105v175h150v-175h136v-120h-136v-86q44 39 111 39q84 0 133.5 -47t49.5 -147v-164h-150v145q0 33 -20 53t-52 20q-43 0 -72 -29v-189h-150v405h-105z" />
    <glyph glyph-name="afii10109" unicode="&#x45c;" horiz-adv-x="533" 
d="M55 0v450h150v-208l122 208h188l-146 -214l168 -236h-194l-138 210v-210h-150zM402 649l-131 -146l-89 63l103 172z" />
    <glyph glyph-name="afii10110" unicode="&#x45e;" horiz-adv-x="516" 
d="M516 450l-175 -450q-48 -118 -86 -159t-91 -41q-57 0 -107 42l48 113q24 -16 43 -16q28 0 43 37l10 24l-201 450h181l77 -206q6 -16 17 -62q4 40 11 63l59 205h171zM95 670h130q0 -58 42 -58q38 0 38 58h130q0 -74 -43.5 -122t-124.5 -48q-88 0 -130 47t-42 123z" />
    <glyph glyph-name="afii10193" unicode="&#x45f;" horiz-adv-x="540" 
d="M55 0v450h150v-310h130v310h150v-450h-145v-110h-140v110h-145z" />
    <glyph glyph-name="afii10146" unicode="&#x462;" horiz-adv-x="657" 
d="M290 700v-60h137v-150h-137v-49q33 4 62 4q135 0 200 -54t65 -162q0 -113 -76.5 -172t-222.5 -59q-40 0 -105.5 1t-82.5 1v490h-110v150h110v60h160zM338 295q-15 0 -48 -5v-138q36 -4 47 -4q57 0 83.5 14t26.5 63q0 32 -16.5 48t-36.5 19t-56 3z" />
    <glyph glyph-name="afii10194" unicode="&#x463;" horiz-adv-x="527" 
d="M10 330v120h105v250h150v-250h124v-120h-124v-25h37q205 0 205 -142q0 -73 -52 -118t-164 -45h-176v330h-105zM289 195h-24v-75h23q31 0 45 8t14 29t-13.5 29.5t-44.5 8.5z" />
    <glyph glyph-name="afii10147" unicode="&#x472;" horiz-adv-x="824" 
d="M40 350q0 155 103.5 258.5t268.5 103.5q163 0 267.5 -99t104.5 -263q0 -158 -105.5 -260t-266.5 -102q-163 0 -267.5 99t-104.5 263zM320 320q-46 0 -98 -43q21 -62 73 -100.5t117 -38.5q75 0 124.5 38t67.5 102q-53 -24 -91 -24q-42 0 -101.5 33t-91.5 33zM524 394
q40 0 79 30q-20 63 -72 100.5t-119 37.5t-117 -34.5t-72 -95.5q54 28 97 28q42 0 104 -33t100 -33z" />
    <glyph glyph-name="afii10195" unicode="&#x473;" horiz-adv-x="580" 
d="M30 225q0 104 70 170.5t190 66.5t190 -66.5t70 -170.5t-70 -170.5t-190 -66.5t-190 66.5t-70 170.5zM353 254q26 0 40 16q-12 37 -40.5 54.5t-62.5 17.5q-77 0 -102 -66q28 19 50 19q31 0 67 -20.5t48 -20.5zM232 195q-24 0 -44 -20q12 -34 40.5 -50.5t61.5 -16.5
q80 0 102 67q-27 -21 -58 -21q-30 0 -59 20.5t-43 20.5z" />
    <glyph glyph-name="afii10148" unicode="&#x474;" horiz-adv-x="664" 
d="M578 495l-185 -495h-123l-280 700h171l176 -462l112 330q10 28 19.5 49t23.5 40t31 30.5t40 18t53.5 5t67.5 -10.5l-21 -140q-36 12 -52 -3.5t-33 -61.5z" />
    <glyph glyph-name="afii10196" unicode="&#x475;" horiz-adv-x="499" 
d="M411 248l-104 -248h-113l-204 450h178l58 -142q20 -48 30 -104q8 47 29 105l11 30q11 30 21 49t27.5 37t39.5 26t56.5 8t78.5 -11l-21 -140q-36 12 -52 -2t-35 -58z" />
    <glyph glyph-name="afii10050" unicode="&#x490;" horiz-adv-x="510" 
d="M90 0v700h250v110h150v-260h-240v-550h-160z" />
    <glyph glyph-name="afii10098" unicode="&#x491;" horiz-adv-x="385" 
d="M55 0v450h180v90h140v-230h-170v-310h-150z" />
    <glyph glyph-name="uni1E9E" unicode="&#x1e9e;" horiz-adv-x="704" 
d="M484 195q0 20 -14.5 39.5t-40.5 37.5t-56.5 35l-66.5 36q-15 7 -22 11l130 171q-8 16 -30.5 26.5t-47.5 10.5q-86 0 -86 -100v-462h-160v449q0 136 67 199.5t186 63.5q71 0 144 -39t120 -111l-133 -159q75 -33 127.5 -94t52.5 -139q0 -81 -59 -131.5t-129 -50.5
q-113 0 -185 66l68 126q50 -42 81 -42q25 0 39.5 15t14.5 42z" />
    <glyph glyph-name="uni2010" unicode="&#x2010;" horiz-adv-x="364" 
d="M50 205v140h264v-140h-264z" />
    <glyph glyph-name="uni2011" unicode="&#x2011;" horiz-adv-x="364" 
d="M50 205v140h264v-140h-264z" />
    <glyph glyph-name="figuredash" unicode="&#x2012;" horiz-adv-x="604" 
d="M80 289v130h444v-130h-444z" />
    <glyph glyph-name="endash" unicode="&#x2013;" horiz-adv-x="604" 
d="M80 205v130h444v-130h-444z" />
    <glyph glyph-name="emdash" unicode="&#x2014;" horiz-adv-x="824" 
d="M80 205v130h664v-130h-664z" />
    <glyph glyph-name="afii00208" unicode="&#x2015;" horiz-adv-x="824" 
d="M80 205v130h664v-130h-664z" />
    <glyph glyph-name="quoteleft" unicode="&#x2018;" horiz-adv-x="243" 
d="M194 549l-126 -73q-38 40 -38 105q0 71 34.5 119.5t78.5 74.5l70 -63q-43 -40 -43 -98q0 -41 24 -65z" />
    <glyph glyph-name="quoteright" unicode="&#x2019;" horiz-adv-x="243" 
d="M49 697l126 73q38 -40 38 -105q0 -71 -34.5 -119.5t-78.5 -74.5l-70 63q43 40 43 98q0 41 -24 65z" />
    <glyph glyph-name="quotesinglbase" unicode="&#x201a;" horiz-adv-x="243" 
d="M49 32l126 73q38 -40 38 -105q0 -71 -34.5 -119.5t-78.5 -74.5l-70 63q43 40 43 98q0 41 -24 65z" />
    <glyph glyph-name="quotedblleft" unicode="&#x201c;" horiz-adv-x="423" 
d="M374 549l-126 -73q-38 40 -38 105q0 71 34.5 119.5t78.5 74.5l70 -63q-43 -40 -43 -98q0 -41 24 -65zM194 549l-126 -73q-38 40 -38 105q0 71 34.5 119.5t78.5 74.5l70 -63q-43 -40 -43 -98q0 -41 24 -65z" />
    <glyph glyph-name="quotedblright" unicode="&#x201d;" horiz-adv-x="423" 
d="M229 697l126 73q38 -40 38 -105q0 -71 -34.5 -119.5t-78.5 -74.5l-70 63q43 40 43 98q0 41 -24 65zM49 697l126 73q38 -40 38 -105q0 -71 -34.5 -119.5t-78.5 -74.5l-70 63q43 40 43 98q0 41 -24 65z" />
    <glyph glyph-name="quotedblbase" unicode="&#x201e;" horiz-adv-x="423" 
d="M229 32l126 73q38 -40 38 -105q0 -71 -34.5 -119.5t-78.5 -74.5l-70 63q43 40 43 98q0 41 -24 65zM49 32l126 73q38 -40 38 -105q0 -71 -34.5 -119.5t-78.5 -74.5l-70 63q43 40 43 98q0 41 -24 65z" />
    <glyph glyph-name="dagger" unicode="&#x2020;" horiz-adv-x="524" 
d="M40 380v130h152v190h140v-190h152v-130h-152v-480h-140v480h-152z" />
    <glyph glyph-name="daggerdbl" unicode="&#x2021;" horiz-adv-x="524" 
d="M40 380v130h152v190h140v-190h152v-130h-152v-130h152v-130h-152v-220h-140v220h-152v130h152v130h-152z" />
    <glyph glyph-name="bullet" unicode="&#x2022;" horiz-adv-x="340" 
d="M20 266q0 61 44 105.5t105 44.5q62 0 106.5 -44.5t44.5 -105.5t-45 -105.5t-106 -44.5t-105 44.5t-44 105.5z" />
    <glyph glyph-name="ellipsis" unicode="&#x2026;" horiz-adv-x="876" 
d="M640 96q0 36 28 65t74 29q40 0 67 -29t27 -65q0 -41 -26.5 -71.5t-67.5 -30.5q-46 0 -74 30t-28 72zM340 96q0 36 28 65t74 29q40 0 67 -29t27 -65q0 -41 -26.5 -71.5t-67.5 -30.5q-46 0 -74 30t-28 72zM40 96q0 36 28 65t74 29q40 0 67 -29t27 -65q0 -41 -26.5 -71.5
t-67.5 -30.5q-46 0 -74 30t-28 72z" />
    <glyph glyph-name="perthousand" unicode="&#x2030;" horiz-adv-x="1391" 
d="M939 176q0 85 59 135.5t152 50.5t152 -50.5t59 -135.5t-59 -136.5t-152 -51.5t-152 51.5t-59 136.5zM1079 176q0 -32 20 -50t51 -18q33 0 52 18t19 50q0 30 -19.5 48t-51.5 18t-51.5 -18t-19.5 -48zM180 47l497 665l84 -63l-495 -661zM30 526q0 85 59 135.5t152 50.5
t152 -50.5t59 -135.5t-59 -136.5t-152 -51.5t-152 51.5t-59 136.5zM170 526q0 -32 20 -50t51 -18q33 0 52 18t19 50q0 30 -19.5 48t-51.5 18t-51.5 -18t-19.5 -48zM493 176q0 85 59 135.5t152 50.5t152 -50.5t59 -135.5t-59 -136.5t-152 -51.5t-152 51.5t-59 136.5zM633 176
q0 -32 20 -50t51 -18q33 0 52 18t19 50q0 30 -19.5 48t-51.5 18t-51.5 -18t-19.5 -48z" />
    <glyph glyph-name="guilsinglleft" unicode="&#x2039;" horiz-adv-x="362" 
d="M230 13l-200 235v4l205 235l97 -87l-129 -150l129 -152z" />
    <glyph glyph-name="guilsinglright" unicode="&#x203a;" horiz-adv-x="362" 
d="M332 248l-200 -235l-102 85l129 152l-129 150l97 87l205 -235v-4z" />
    <glyph glyph-name="fraction" unicode="&#x2044;" horiz-adv-x="221" 
d="M-180 47l497 665l84 -63l-495 -661z" />
    <glyph glyph-name="uni2070" unicode="&#x2070;" horiz-adv-x="412" 
d="M30 525q0 78 46 128.5t130 50.5q83 0 129.5 -51.5t46.5 -127.5q0 -77 -46 -128t-129 -51q-85 0 -131 49.5t-46 129.5zM170 525q0 -69 37 -69q19 0 27 14t8 55q0 42 -8.5 55.5t-27.5 13.5t-27.5 -14.5t-8.5 -54.5z" />
    <glyph glyph-name="uni2074" unicode="&#x2074;" horiz-adv-x="393" 
d="M201 350v61h-191v87l141 202h123l-134 -189h61v64h120v-64h52v-100h-52v-61h-120z" />
    <glyph glyph-name="uni2075" unicode="&#x2075;" horiz-adv-x="357" 
d="M51 484l19 216h243v-100h-153l-3 -27q16 8 47 8q57 0 90 -28.5t33 -79.5q0 -62 -44 -96t-118 -34q-116 0 -155 57l65 70q29 -27 67 -27q27 0 36.5 5.5t9.5 18.5q0 24 -60 24q-56 0 -77 -7z" />
    <glyph glyph-name="uni2076" unicode="&#x2076;" horiz-adv-x="410" 
d="M25 487q0 89 78.5 154t198.5 66l25 -88q-110 -9 -162 -68q40 20 87 20q60 0 96.5 -29t36.5 -77q0 -55 -48.5 -88.5t-124.5 -33.5q-90 0 -138.5 38.5t-48.5 105.5zM165 468q4 -25 48 -25q32 0 32 19t-33 19q-24 0 -47 -13z" />
    <glyph glyph-name="uni2077" unicode="&#x2077;" horiz-adv-x="346" 
d="M10 590v110h326v-79l-148 -271h-142l140 240h-176z" />
    <glyph glyph-name="uni2078" unicode="&#x2078;" horiz-adv-x="430" 
d="M214 575h4q32 0 32 16t-36 16q-34 0 -34 -17q0 -15 34 -15zM218 485h-4q-44 0 -44 -21t45 -21t45 21t-42 21zM215 343q-81 0 -128 26.5t-47 71.5q0 63 57 88v2q-47 24 -47 83q0 41 46 67t119 26t119 -26t46 -67q0 -60 -56 -83v-1q66 -18 66 -79q0 -52 -46 -80t-129 -28z
" />
    <glyph glyph-name="uni2079" unicode="&#x2079;" horiz-adv-x="410" 
d="M385 546q0 -94 -76 -148t-201 -55l-20 91q148 12 157 65q-33 -30 -87 -30q-58 0 -95.5 32.5t-37.5 77.5q0 59 48.5 93.5t124.5 34.5q91 0 139 -41.5t48 -119.5zM245 572q-4 35 -48 35q-32 0 -32 -19q0 -10 9 -19.5t24 -9.5q24 0 47 13z" />
    <glyph glyph-name="uni207A" unicode="&#x207a;" horiz-adv-x="360" 
d="M40 480v100h89v85h100v-85h91v-100h-91v-86h-100v86h-89z" />
    <glyph glyph-name="uni207B" unicode="&#x207b;" horiz-adv-x="360" 
d="M40 480v100h280v-100h-280z" />
    <glyph glyph-name="uni207C" unicode="&#x207c;" horiz-adv-x="360" 
d="M40 400v100h280v-100h-280zM40 560v100h280v-100h-280z" />
    <glyph glyph-name="uni207D" unicode="&#x207d;" horiz-adv-x="257" 
d="M247 383l-76 -76q-75 36 -108 94.5t-33 121.5q0 59 34.5 115.5t107.5 99.5l68 -74q-42 -28 -61 -58.5t-19 -82.5q0 -50 24 -82t63 -58z" />
    <glyph glyph-name="uni207E" unicode="&#x207e;" horiz-adv-x="257" 
d="M10 662l76 76q75 -36 108 -94.5t33 -121.5q0 -59 -34.5 -115.5t-107.5 -99.5l-68 74q42 28 61 58.5t19 82.5q0 50 -24 82t-63 58z" />
    <glyph glyph-name="uni2080" unicode="&#x2080;" horiz-adv-x="412" 
d="M30 175q0 78 46 128.5t130 50.5q83 0 129.5 -51.5t46.5 -127.5q0 -77 -46 -128t-129 -51q-85 0 -131 49.5t-46 129.5zM170 175q0 -69 37 -69q19 0 27 14t8 55q0 42 -8.5 55.5t-27.5 13.5t-27.5 -14.5t-8.5 -54.5z" />
    <glyph glyph-name="uni2081" unicode="&#x2081;" horiz-adv-x="285" 
d="M10 268l121 80h94v-348h-130v200l-38 -20z" />
    <glyph glyph-name="uni2082" unicode="&#x2082;" horiz-adv-x="376" 
d="M25 0v94q121 68 148 91q24 21 24 36q0 23 -26 23q-15 0 -25 -14t-13 -29l-107 39q9 53 50 83.5t110 30.5q72 0 111 -30.5t39 -83.5q0 -28 -14 -51t-40 -38.5t-44 -23.5t-45 -17h158v-110h-326z" />
    <glyph glyph-name="uni2083" unicode="&#x2083;" horiz-adv-x="372" 
d="M181 -7q-57 0 -103 20.5t-68 57.5l74 70q10 -16 30.5 -29.5t43.5 -13.5q44 0 44 18q0 15 -45 15h-27v90h25q36 0 36 18q0 13 -29 13q-42 0 -80 -36l-61 71q52 70 168 70q62 0 102 -24.5t40 -65.5q0 -66 -80 -81v-1q44 -2 67.5 -24.5t23.5 -56.5q0 -50 -47.5 -80.5
t-113.5 -30.5z" />
    <glyph glyph-name="uni2084" unicode="&#x2084;" horiz-adv-x="393" 
d="M201 0v61h-191v87l141 202h123l-134 -189h61v64h120v-64h52v-100h-52v-61h-120z" />
    <glyph glyph-name="uni2085" unicode="&#x2085;" horiz-adv-x="357" 
d="M51 134l19 216h243v-100h-153l-3 -27q16 8 47 8q57 0 90 -28.5t33 -79.5q0 -62 -44 -96t-118 -34q-116 0 -155 57l65 70q29 -27 67 -27q27 0 36.5 5.5t9.5 18.5q0 24 -60 24q-56 0 -77 -7z" />
    <glyph glyph-name="uni2086" unicode="&#x2086;" horiz-adv-x="410" 
d="M25 137q0 89 78.5 154t198.5 66l25 -88q-110 -9 -162 -68q40 20 87 20q60 0 96.5 -29t36.5 -77q0 -55 -48.5 -88.5t-124.5 -33.5q-90 0 -138.5 38.5t-48.5 105.5zM165 118q4 -25 48 -25q32 0 32 19t-33 19q-24 0 -47 -13z" />
    <glyph glyph-name="uni2087" unicode="&#x2087;" horiz-adv-x="346" 
d="M10 240v110h326v-79l-148 -271h-142l140 240h-176z" />
    <glyph glyph-name="uni2088" unicode="&#x2088;" horiz-adv-x="430" 
d="M214 225h4q32 0 32 16t-36 16q-34 0 -34 -17q0 -15 34 -15zM218 135h-4q-44 0 -44 -21t45 -21t45 21t-42 21zM215 -7q-81 0 -128 26.5t-47 71.5q0 63 57 88v2q-47 24 -47 83q0 41 46 67t119 26t119 -26t46 -67q0 -60 -56 -83v-1q66 -18 66 -79q0 -52 -46 -80t-129 -28z
" />
    <glyph glyph-name="uni2089" unicode="&#x2089;" horiz-adv-x="410" 
d="M385 196q0 -94 -76 -148t-201 -55l-20 91q148 12 157 65q-33 -30 -87 -30q-58 0 -95.5 32.5t-37.5 77.5q0 59 48.5 93.5t124.5 34.5q91 0 139 -41.5t48 -119.5zM245 222q-4 35 -48 35q-32 0 -32 -19q0 -10 9 -19.5t24 -9.5q24 0 47 13z" />
    <glyph glyph-name="uni208A" unicode="&#x208a;" horiz-adv-x="360" 
d="M40 130v100h89v85h100v-85h91v-100h-91v-86h-100v86h-89z" />
    <glyph glyph-name="uni208B" unicode="&#x208b;" horiz-adv-x="360" 
d="M40 130v100h280v-100h-280z" />
    <glyph glyph-name="uni208C" unicode="&#x208c;" horiz-adv-x="360" 
d="M40 50v100h280v-100h-280zM40 210v100h280v-100h-280z" />
    <glyph glyph-name="uni208D" unicode="&#x208d;" horiz-adv-x="257" 
d="M247 33l-76 -76q-75 36 -108 94.5t-33 121.5q0 59 34.5 115.5t107.5 99.5l68 -74q-42 -28 -61 -58.5t-19 -82.5q0 -50 24 -82t63 -58z" />
    <glyph glyph-name="uni208E" unicode="&#x208e;" horiz-adv-x="257" 
d="M10 312l76 76q75 -36 108 -94.5t33 -121.5q0 -59 -34.5 -115.5t-107.5 -99.5l-68 74q42 28 61 58.5t19 82.5q0 50 -24 82t-63 58z" />
    <glyph glyph-name="Euro" unicode="&#x20ac;" 
d="M17 385l46 120h74q38 95 121 151t202 56q78 0 130 -28l-57 -137q-28 15 -75 15q-80 0 -130 -57h194l-45 -120h-196q-2 -22 -2 -35q0 -17 1 -25h178l-40 -120h-89q56 -67 147 -67q51 0 77 12l25 -145q-58 -17 -115 -17q-116 0 -203.5 58t-125.5 159h-115l45 120h46
q-1 8 -1 25q0 23 1 35h-93z" />
    <glyph glyph-name="uni20B4" unicode="&#x20b4;" 
d="M63 390v120h279q0 27 -11 39.5t-39 12.5q-53 0 -98 -37l-76 113q63 74 184 74q85 0 137.5 -45t52.5 -116q0 -31 -6 -41h51v-120h-123q-48 -55 -54 -60h177v-120h-283q-4 -12 -4 -22q0 -21 18 -35.5t53 -14.5q59 0 116 46l78 -102q-75 -94 -215 -94q-77 0 -138.5 47
t-61.5 126q0 25 8 49h-45v120h130q6 6 16 18t19.5 22t21.5 20h-187z" />
    <glyph glyph-name="uni20B6" unicode="&#x20b6;" 
d="M7 287v120h90v293q18 0 101.5 1t112.5 1q283 0 283 -212q0 -94 -69 -148.5t-190 -54.5h-78v-60h154v-120h-154v-107h-160v107h-90v120h90v60h-90zM327 552q-4 0 -70 -2v-143h73q94 0 94 69q0 43 -25 59.5t-72 16.5z" />
    <glyph glyph-name="uni20B6" unicode="&#x20cf;" 
d="M7 287v120h90v293q18 0 101.5 1t112.5 1q283 0 283 -212q0 -94 -69 -148.5t-190 -54.5h-78v-60h154v-120h-154v-107h-160v107h-90v120h90v60h-90zM327 552q-4 0 -70 -2v-143h73q94 0 94 69q0 43 -25 59.5t-72 16.5z" />
    <glyph glyph-name="uni20B6" unicode="&#x20ce;" 
d="M7 287v120h90v293q18 0 101.5 1t112.5 1q283 0 283 -212q0 -94 -69 -148.5t-190 -54.5h-78v-60h154v-120h-154v-107h-160v107h-90v120h90v60h-90zM327 552q-4 0 -70 -2v-143h73q94 0 94 69q0 43 -25 59.5t-72 16.5z" />
    <glyph glyph-name="uni20B6" unicode="&#x20cd;" 
d="M7 287v120h90v293q18 0 101.5 1t112.5 1q283 0 283 -212q0 -94 -69 -148.5t-190 -54.5h-78v-60h154v-120h-154v-107h-160v107h-90v120h90v60h-90zM327 552q-4 0 -70 -2v-143h73q94 0 94 69q0 43 -25 59.5t-72 16.5z" />
    <glyph glyph-name="uni20B6" unicode="&#x20cc;" 
d="M7 287v120h90v293q18 0 101.5 1t112.5 1q283 0 283 -212q0 -94 -69 -148.5t-190 -54.5h-78v-60h154v-120h-154v-107h-160v107h-90v120h90v60h-90zM327 552q-4 0 -70 -2v-143h73q94 0 94 69q0 43 -25 59.5t-72 16.5z" />
    <glyph glyph-name="uni20B6" unicode="&#x20cb;" 
d="M7 287v120h90v293q18 0 101.5 1t112.5 1q283 0 283 -212q0 -94 -69 -148.5t-190 -54.5h-78v-60h154v-120h-154v-107h-160v107h-90v120h90v60h-90zM327 552q-4 0 -70 -2v-143h73q94 0 94 69q0 43 -25 59.5t-72 16.5z" />
    <glyph glyph-name="uni20B6" unicode="&#x20ca;" 
d="M7 287v120h90v293q18 0 101.5 1t112.5 1q283 0 283 -212q0 -94 -69 -148.5t-190 -54.5h-78v-60h154v-120h-154v-107h-160v107h-90v120h90v60h-90zM327 552q-4 0 -70 -2v-143h73q94 0 94 69q0 43 -25 59.5t-72 16.5z" />
    <glyph glyph-name="uni20B6" unicode="&#x20c9;" 
d="M7 287v120h90v293q18 0 101.5 1t112.5 1q283 0 283 -212q0 -94 -69 -148.5t-190 -54.5h-78v-60h154v-120h-154v-107h-160v107h-90v120h90v60h-90zM327 552q-4 0 -70 -2v-143h73q94 0 94 69q0 43 -25 59.5t-72 16.5z" />
    <glyph glyph-name="uni20B6" unicode="&#x20c8;" 
d="M7 287v120h90v293q18 0 101.5 1t112.5 1q283 0 283 -212q0 -94 -69 -148.5t-190 -54.5h-78v-60h154v-120h-154v-107h-160v107h-90v120h90v60h-90zM327 552q-4 0 -70 -2v-143h73q94 0 94 69q0 43 -25 59.5t-72 16.5z" />
    <glyph glyph-name="uni20B6" unicode="&#x20c7;" 
d="M7 287v120h90v293q18 0 101.5 1t112.5 1q283 0 283 -212q0 -94 -69 -148.5t-190 -54.5h-78v-60h154v-120h-154v-107h-160v107h-90v120h90v60h-90zM327 552q-4 0 -70 -2v-143h73q94 0 94 69q0 43 -25 59.5t-72 16.5z" />
    <glyph glyph-name="uni20B6" unicode="&#x20c6;" 
d="M7 287v120h90v293q18 0 101.5 1t112.5 1q283 0 283 -212q0 -94 -69 -148.5t-190 -54.5h-78v-60h154v-120h-154v-107h-160v107h-90v120h90v60h-90zM327 552q-4 0 -70 -2v-143h73q94 0 94 69q0 43 -25 59.5t-72 16.5z" />
    <glyph glyph-name="uni20B6" unicode="&#x20c5;" 
d="M7 287v120h90v293q18 0 101.5 1t112.5 1q283 0 283 -212q0 -94 -69 -148.5t-190 -54.5h-78v-60h154v-120h-154v-107h-160v107h-90v120h90v60h-90zM327 552q-4 0 -70 -2v-143h73q94 0 94 69q0 43 -25 59.5t-72 16.5z" />
    <glyph glyph-name="uni20B6" unicode="&#x20c4;" 
d="M7 287v120h90v293q18 0 101.5 1t112.5 1q283 0 283 -212q0 -94 -69 -148.5t-190 -54.5h-78v-60h154v-120h-154v-107h-160v107h-90v120h90v60h-90zM327 552q-4 0 -70 -2v-143h73q94 0 94 69q0 43 -25 59.5t-72 16.5z" />
    <glyph glyph-name="uni20B6" unicode="&#x20c3;" 
d="M7 287v120h90v293q18 0 101.5 1t112.5 1q283 0 283 -212q0 -94 -69 -148.5t-190 -54.5h-78v-60h154v-120h-154v-107h-160v107h-90v120h90v60h-90zM327 552q-4 0 -70 -2v-143h73q94 0 94 69q0 43 -25 59.5t-72 16.5z" />
    <glyph glyph-name="uni20B6" unicode="&#x20c2;" 
d="M7 287v120h90v293q18 0 101.5 1t112.5 1q283 0 283 -212q0 -94 -69 -148.5t-190 -54.5h-78v-60h154v-120h-154v-107h-160v107h-90v120h90v60h-90zM327 552q-4 0 -70 -2v-143h73q94 0 94 69q0 43 -25 59.5t-72 16.5z" />
    <glyph glyph-name="uni20B6" unicode="&#x20c1;" 
d="M7 287v120h90v293q18 0 101.5 1t112.5 1q283 0 283 -212q0 -94 -69 -148.5t-190 -54.5h-78v-60h154v-120h-154v-107h-160v107h-90v120h90v60h-90zM327 552q-4 0 -70 -2v-143h73q94 0 94 69q0 43 -25 59.5t-72 16.5z" />
    <glyph glyph-name="uni20B6" unicode="&#x20c0;" 
d="M7 287v120h90v293q18 0 101.5 1t112.5 1q283 0 283 -212q0 -94 -69 -148.5t-190 -54.5h-78v-60h154v-120h-154v-107h-160v107h-90v120h90v60h-90zM327 552q-4 0 -70 -2v-143h73q94 0 94 69q0 43 -25 59.5t-72 16.5z" />
    <glyph glyph-name="uni20B6" unicode="&#x20bf;" 
d="M7 287v120h90v293q18 0 101.5 1t112.5 1q283 0 283 -212q0 -94 -69 -148.5t-190 -54.5h-78v-60h154v-120h-154v-107h-160v107h-90v120h90v60h-90zM327 552q-4 0 -70 -2v-143h73q94 0 94 69q0 43 -25 59.5t-72 16.5z" />
    <glyph glyph-name="uni20B6" unicode="&#x20be;" 
d="M7 287v120h90v293q18 0 101.5 1t112.5 1q283 0 283 -212q0 -94 -69 -148.5t-190 -54.5h-78v-60h154v-120h-154v-107h-160v107h-90v120h90v60h-90zM327 552q-4 0 -70 -2v-143h73q94 0 94 69q0 43 -25 59.5t-72 16.5z" />
    <glyph glyph-name="uni20B6" unicode="&#x20bd;" 
d="M7 287v120h90v293q18 0 101.5 1t112.5 1q283 0 283 -212q0 -94 -69 -148.5t-190 -54.5h-78v-60h154v-120h-154v-107h-160v107h-90v120h90v60h-90zM327 552q-4 0 -70 -2v-143h73q94 0 94 69q0 43 -25 59.5t-72 16.5z" />
    <glyph glyph-name="uni20B6" unicode="&#x20bc;" 
d="M7 287v120h90v293q18 0 101.5 1t112.5 1q283 0 283 -212q0 -94 -69 -148.5t-190 -54.5h-78v-60h154v-120h-154v-107h-160v107h-90v120h90v60h-90zM327 552q-4 0 -70 -2v-143h73q94 0 94 69q0 43 -25 59.5t-72 16.5z" />
    <glyph glyph-name="uni20B6" unicode="&#x20bb;" 
d="M7 287v120h90v293q18 0 101.5 1t112.5 1q283 0 283 -212q0 -94 -69 -148.5t-190 -54.5h-78v-60h154v-120h-154v-107h-160v107h-90v120h90v60h-90zM327 552q-4 0 -70 -2v-143h73q94 0 94 69q0 43 -25 59.5t-72 16.5z" />
    <glyph glyph-name="uni20B6" unicode="&#x20ba;" 
d="M7 287v120h90v293q18 0 101.5 1t112.5 1q283 0 283 -212q0 -94 -69 -148.5t-190 -54.5h-78v-60h154v-120h-154v-107h-160v107h-90v120h90v60h-90zM327 552q-4 0 -70 -2v-143h73q94 0 94 69q0 43 -25 59.5t-72 16.5z" />
    <glyph glyph-name="uni20B6" unicode="&#x20b9;" 
d="M7 287v120h90v293q18 0 101.5 1t112.5 1q283 0 283 -212q0 -94 -69 -148.5t-190 -54.5h-78v-60h154v-120h-154v-107h-160v107h-90v120h90v60h-90zM327 552q-4 0 -70 -2v-143h73q94 0 94 69q0 43 -25 59.5t-72 16.5z" />
    <glyph glyph-name="uni20B6" unicode="&#x20b7;" 
d="M7 287v120h90v293q18 0 101.5 1t112.5 1q283 0 283 -212q0 -94 -69 -148.5t-190 -54.5h-78v-60h154v-120h-154v-107h-160v107h-90v120h90v60h-90zM327 552q-4 0 -70 -2v-143h73q94 0 94 69q0 43 -25 59.5t-72 16.5z" />
    <glyph glyph-name="afii61352" unicode="&#x2116;" horiz-adv-x="1202" 
d="M680 0h-128l-312 420v-420h-150v700h128l312 -422v422h150v-700zM720 472q0 85 59 135.5t152 50.5t152 -50.5t59 -135.5t-59 -136.5t-152 -51.5t-152 51.5t-59 136.5zM860 472q0 -32 20 -50t51 -18q33 0 52 18t19 50q0 30 -19.5 48t-51.5 18t-51.5 -18t-19.5 -48z
M760 106v140h342v-140h-342z" />
    <glyph glyph-name="trademark" unicode="&#x2122;" horiz-adv-x="884" 
d="M377 385v315h126l106 -77l98 77h122v-315h-141v139l-82 -62h-2l-86 62v-139h-141zM20 565v135h328v-135h-94v-180h-140v180h-94z" />
    <glyph glyph-name="arrowleft" unicode="&#x2190;" horiz-adv-x="643" 
d="M323 556l106 -106l-102 -102h276v-150h-276l102 -102l-106 -106l-283 283z" />
    <glyph glyph-name="arrowup" unicode="&#x2191;" horiz-adv-x="646" 
d="M146 174l-106 106l283 283l283 -283l-106 -106l-102 102v-276h-150v276z" />
    <glyph glyph-name="arrowright" unicode="&#x2192;" horiz-adv-x="643" 
d="M214 450l106 106l283 -283l-283 -283l-106 106l102 102h-276v150h276z" />
    <glyph glyph-name="arrowdown" unicode="&#x2193;" horiz-adv-x="646" 
d="M40 263l106 106l102 -102v276h150v-276l102 102l106 -106l-283 -283z" />
    <glyph glyph-name="partialdiff" unicode="&#x2202;" horiz-adv-x="601" 
d="M30 200q0 109 70 185.5t186 76.5q83 0 125 -40q0 83 -55 118.5t-159 37.5l22 134q168 0 260 -76t92 -223q0 -189 -79 -307t-231 -118q-107 0 -169 61t-62 151zM190 213q0 -36 23.5 -60.5t64.5 -24.5q49 0 80 43t41 115q-44 36 -106 36q-45 0 -74 -31.5t-29 -77.5z" />
    <glyph glyph-name="product" unicode="&#x220f;" horiz-adv-x="885" 
d="M635 -200v750h-385v-750h-160v900h705v-900h-160z" />
    <glyph glyph-name="summation" unicode="&#x2211;" horiz-adv-x="650" 
d="M307 250l-267 338v112h570v-150h-347l228 -300l-238 -300h357v-150h-570v112z" />
    <glyph glyph-name="minus" unicode="&#x2212;" 
d="M63 295v130h474v-130h-474z" />
    <glyph glyph-name="uni2215" unicode="&#x2215;" horiz-adv-x="382" 
d="M-30 -165l327 877l115 -43l-326 -877z" />
    <glyph glyph-name="radical" unicode="&#x221a;" horiz-adv-x="643" 
d="M10 300v150h196l135 -197l114 447h308v-150h-177l-144 -550h-133l-206 300h-93z" />
    <glyph glyph-name="infinity" unicode="&#x221e;" horiz-adv-x="766" 
d="M557 153q-101 0 -175 83q-69 -83 -165 -83q-71 0 -124 52.5t-53 135.5q0 78 50 134t130 56q89 0 163 -89q67 89 173 89q76 0 123 -54.5t47 -139.5q0 -76 -48 -130t-121 -54zM234 283q43 0 78 49q-23 35 -40.5 52t-37.5 17q-26 0 -40 -16.5t-14 -43.5t14 -42.5t40 -15.5z
M530 401q-36 0 -76 -59q45 -59 84 -59q20 0 34 16.5t14 43.5q0 23 -15 40.5t-41 17.5z" />
    <glyph glyph-name="integral" unicode="&#x222b;" horiz-adv-x="320" 
d="M205 0q0 -105 -30 -156.5t-112 -51.5q-23 0 -50 5q-49 9 -70 29l39 119q23 -13 44 -13q6 0 10 1.5t7 4.5t5.5 6t3.5 8.5t2 9.5t1 11v11.5v13v12.5v513q0 92 43.5 140.5t120.5 48.5q27 0 53 -6q53 -11 78 -38l-50 -114q-10 10 -24 14q-13 4 -30 4t-29 -15t-12 -43v-514z
" />
    <glyph glyph-name="approxequal" unicode="&#x2248;" 
d="M97 169l-64 96q33 40 75 65t82 25q42 0 119 -33t115 -33q22 0 46 13.5t39 31.5l58 -103q-76 -72 -144 -72q-42 0 -116.5 33t-106.5 33q-47 0 -103 -56zM97 369l-64 96q33 40 75 65t82 25q42 0 119 -33t115 -33q22 0 46 13.5t39 31.5l58 -103q-76 -72 -144 -72
q-42 0 -116.5 33t-106.5 33q-47 0 -103 -56z" />
    <glyph glyph-name="notequal" unicode="&#x2260;" 
d="M63 395v130h234l70 187l115 -43l-54 -144h109v-130h-158l-26 -70h184v-130h-233l-77 -207l-116 43l61 164h-109v130h158l27 70h-185z" />
    <glyph glyph-name="lessequal" unicode="&#x2264;" 
d="M40 230v135l490 -269v-142zM530 154l-490 276v64l490 274v-162l-284 -144l284 -146v-162z" />
    <glyph glyph-name="greaterequal" unicode="&#x2265;" 
d="M560 365v-135l-490 -276v142zM560 430l-490 -276v162l284 146l-284 144v162l490 -274v-64z" />
    <glyph glyph-name="lozenge" unicode="&#x25ca;" horiz-adv-x="498" 
d="M187 0l-167 249l168 266h123l167 -255l-168 -260h-123zM171 250l78 -115l78 125l-78 111z" />
    <glyph glyph-name="spade" unicode="&#x2660;" horiz-adv-x="632" 
d="M316 510q88 -55 172 -151t84 -160q0 -42 -30 -73t-87 -31q-79 0 -131 72q28 -119 107 -167h-230q73 52 105 164q-51 -69 -129 -69q-58 0 -87.5 31t-29.5 74q0 63 84 159t172 151z" />
    <glyph glyph-name="club" unicode="&#x2663;" horiz-adv-x="612" 
d="M177 381q0 53 38 91t91 38t91 -38t38 -91q0 -7 -2 -19q50 -4 84.5 -41t34.5 -87q0 -53 -38 -91t-91 -38q-66 0 -104 53q31 -115 102 -158h-230q63 44 100 156q-40 -51 -102 -51q-53 0 -91 38t-38 91q0 50 34 87t84 41q-1 6 -1 19z" />
    <glyph glyph-name="heart" unicode="&#x2665;" horiz-adv-x="649" 
d="M325 0q-93 70 -179 181.5t-86 188.5q0 53 30.5 91.5t90.5 38.5q88 0 144 -104q54 104 143 104q59 0 90 -38t31 -91q0 -77 -85.5 -188.5t-178.5 -182.5z" />
    <glyph glyph-name="diamond" unicode="&#x2666;" horiz-adv-x="583" 
d="M523 249q-109 -109 -232 -268q-103 136 -231 268q108 113 231 269q120 -153 232 -269z" />
    <glyph glyph-name="uniF350" unicode="&#xf350;" horiz-adv-x="632" 
d="M0 0l244 525h144l244 -525h-171l-33 75h-234l-33 -75h-161zM312 340l-51 -115h101z" />
    <glyph glyph-name="uniF351" unicode="&#xf351;" horiz-adv-x="557" 
d="M72 0v525h397v-150h-237v-35q15 4 78 4q92 0 145.5 -43t53.5 -124q0 -182 -233 -182q-49 0 -121 2.5t-83 2.5zM290 195q-42 0 -58 -3v-44q32 -3 61 -3q34 0 45 6t11 18q0 14 -12.5 20t-46.5 6z" />
    <glyph glyph-name="uniF352" unicode="&#xf352;" horiz-adv-x="555" 
d="M72 2v521q99 6 217 6q101 0 152 -36.5t51 -94.5q0 -86 -66 -120v-1q81 -20 81 -112q0 -82 -63.5 -125.5t-166.5 -43.5q-153 0 -205 6zM298 192h-66v-40q10 -6 59 -6q56 0 56 23t-49 23zM287 379q-29 0 -55 -4v-43h56q44 0 44 23q0 24 -45 24z" />
    <glyph glyph-name="uniF353" unicode="&#xf353;" horiz-adv-x="455" 
d="M72 0v525h363v-150h-203v-375h-160z" />
    <glyph glyph-name="uniF354" unicode="&#xf354;" horiz-adv-x="655" 
d="M7 -85v235h64q23 26 49.5 102t31.5 168l5 105h403v-375h81v-235h-150v85h-334v-85h-150zM301 308q-8 -50 -24 -96t-30 -62h153v225h-88z" />
    <glyph glyph-name="uniF355" unicode="&#xf355;" horiz-adv-x="508" 
d="M72 0v525h379v-150h-219v-37h194v-150h-194v-38h228v-150h-388z" />
    <glyph glyph-name="uniF356" unicode="&#xf356;" horiz-adv-x="853" 
d="M198 274l-189 251h194l144 -209v209h160v-209l144 209h193l-188 -248l197 -277h-193l-153 230v-230h-160v230l-153 -230h-194z" />
    <glyph glyph-name="uniF357" unicode="&#xf357;" horiz-adv-x="537" 
d="M261 -12q-90 0 -149.5 31t-89.5 72l87 109q66 -62 154 -62q66 0 66 23q0 30 -83 30h-79v150h76q63 0 63 19q0 23 -49 23q-85 0 -124 -52l-92 109q30 41 88.5 67t134.5 26q87 0 144.5 -40.5t57.5 -113.5q0 -76 -60 -105v-3q83 -24 83 -126q0 -72 -62.5 -114.5
t-165.5 -42.5z" />
    <glyph glyph-name="uniF358" unicode="&#xf358;" horiz-adv-x="671" 
d="M212 0h-140v525h160v-270l227 270h140v-525h-160v270z" />
    <glyph glyph-name="uniF359" unicode="&#xf359;" horiz-adv-x="671" 
d="M212 0h-140v525h160v-270l227 270h140v-525h-160v270zM156 720h140q0 -40 42 -40q38 0 38 40h140q0 -70 -47 -110t-131 -40q-91 0 -136.5 39t-45.5 111z" />
    <glyph glyph-name="uniF35A" unicode="&#xf35a;" horiz-adv-x="617" 
d="M72 0v525h160v-211l159 211h207l-202 -239l221 -286h-217l-168 232v-232h-160z" />
    <glyph glyph-name="uniF35B" unicode="&#xf35b;" horiz-adv-x="625" 
d="M393 0v375h-102l-13 -99q-23 -174 -83 -235.5t-180 -40.5l3 154q16 -2 30 -1t27.5 16.5t24.5 43.5t20.5 80.5t15.5 126.5l9 105h408v-525h-160z" />
    <glyph glyph-name="uniF35C" unicode="&#xf35c;" horiz-adv-x="782" 
d="M72 0v525h161l168 -187l158 187h151v-525h-160v281l-149 -165h-22l-147 162v-278h-160z" />
    <glyph glyph-name="uniF35D" unicode="&#xf35d;" horiz-adv-x="659" 
d="M427 0v193h-195v-193h-160v525h160v-182h195v182h160v-525h-160z" />
    <glyph glyph-name="uniF35E" unicode="&#xf35e;" horiz-adv-x="664" 
d="M31 261q0 117 83 194.5t218 77.5q133 0 217 -73t84 -199q0 -121 -85 -197t-216 -76q-134 0 -217.5 73t-83.5 200zM201 261q0 -52 38 -87.5t93 -35.5q67 0 99 34t32 89q0 56 -37 89t-94 33q-59 0 -95 -32.5t-36 -89.5z" />
    <glyph glyph-name="uniF35F" unicode="&#xf35f;" horiz-adv-x="659" 
d="M427 0v375h-195v-375h-160v525h515v-525h-160z" />
    <glyph glyph-name="uniF360" unicode="&#xf360;" horiz-adv-x="543" 
d="M232 0h-160v525q15 0 90.5 1t101.5 1q131 0 189.5 -53.5t58.5 -143.5q0 -88 -61 -144t-161 -56q-40 0 -58 2v-132zM280 377q-12 0 -48 -2v-91q32 -4 53 -4q57 0 57 50q0 26 -15 36.5t-47 10.5z" />
    <glyph glyph-name="uniF361" unicode="&#xf361;" horiz-adv-x="557" 
d="M472 170l61 -120q-26 -27 -80.5 -44.5t-115.5 -17.5q-140 0 -223 74.5t-83 198.5q0 116 77.5 194t228.5 78q57 0 106 -16.5t77 -40.5l-71 -120q-3 1 -21.5 8.5t-26.5 10t-26.5 5.5t-37.5 3q-62 0 -99 -29.5t-37 -92.5q0 -55 40.5 -89t110.5 -34q68 0 120 32z" />
    <glyph glyph-name="uniF362" unicode="&#xf362;" horiz-adv-x="513" 
d="M9 375v150h495v-150h-168v-375h-160v375h-167z" />
    <glyph glyph-name="uniF363" unicode="&#xf363;" horiz-adv-x="587" 
d="M583 525l-197 -393q-65 -132 -188 -132q-48 0 -86 26l56 136q21 -12 39 -12q19 0 28 12l8 12l-236 351h201l117 -193l94 193h164z" />
    <glyph glyph-name="uniF364" unicode="&#xf364;" horiz-adv-x="720" 
d="M279 -6v52q-118 2 -187.5 61t-69.5 163q0 102 70 161t187 63v37h160v-37q117 -3 188 -60.5t71 -163.5q0 -103 -70.5 -162.5t-188.5 -61.5v-52h-160zM528 270q0 25 -20 50t-69 28v-156q89 4 89 78zM192 270q0 -31 20.5 -53.5t66.5 -24.5v156q-46 -3 -66.5 -28t-20.5 -50z
" />
    <glyph glyph-name="uniF365" unicode="&#xf365;" horiz-adv-x="577" 
d="M575 525l-183 -257l191 -268h-198l-98 146l-95 -146h-198l190 268l-181 257h198l91 -139l85 139h198z" />
    <glyph glyph-name="uniF366" unicode="&#xf366;" horiz-adv-x="668" 
d="M72 0v525h160v-375h181v375h160v-375h81v-235h-150v85h-432z" />
    <glyph glyph-name="uniF367" unicode="&#xf367;" horiz-adv-x="604" 
d="M532 525v-525h-160v181q-37 -24 -117 -24q-34 0 -65.5 8t-61.5 26t-48.5 52t-18.5 81v201h160v-141q0 -44 18 -60.5t50 -16.5q52 0 83 20v198h160z" />
    <glyph glyph-name="uniF368" unicode="&#xf368;" horiz-adv-x="852" 
d="M72 0v525h160v-375h114v375h160v-375h114v375h160v-525h-708z" />
    <glyph glyph-name="uniF369" unicode="&#xf369;" horiz-adv-x="875" 
d="M72 0v525h160v-375h114v375h160v-375h114v375h160v-375h81v-235h-150v85h-639z" />
    <glyph glyph-name="uniF36A" unicode="&#xf36a;" horiz-adv-x="578" 
d="M10 375v150h270v-142q17 2 41 2q114 0 170 -49.5t56 -138.5t-67.5 -144t-191.5 -55q-36 0 -95 1t-73 1v375h-110zM307 235q-3 0 -27 -2v-83q13 -2 38 -2q59 0 59 45q0 42 -70 42z" />
    <glyph glyph-name="uniF36B" unicode="&#xf36b;" horiz-adv-x="766" 
d="M534 0v525h160v-525h-160zM260 235q-16 0 -28 -1v-84q12 -2 28 -2q60 0 60 45q0 42 -60 42zM232 525v-142q17 2 43 2q106 0 160.5 -50t54.5 -138t-65.5 -143.5t-183.5 -55.5q-36 0 -95.5 1t-73.5 1v525h160z" />
    <glyph glyph-name="uniF36C" unicode="&#xf36c;" horiz-adv-x="530" 
d="M259 235q-3 0 -11.5 -0.5t-15.5 -0.5v-84q24 -2 26 -2q71 0 71 45q0 42 -70 42zM232 525v-142q17 2 41 2q113 0 169.5 -50t56.5 -138q0 -89 -68 -144t-192 -55q-36 0 -94.5 1t-72.5 1v525h160z" />
    <glyph glyph-name="uniF36D" unicode="&#xf36d;" horiz-adv-x="567" 
d="M150 193v150h201q-36 42 -122 42q-99 0 -154 -35l-61 120q87 65 222 65q129 0 214.5 -76.5t85.5 -197.5q0 -130 -86.5 -200.5t-236.5 -70.5q-63 0 -119.5 16.5t-81.5 38.5l68 135q56 -40 154 -40q100 0 128 53h-212z" />
    <glyph glyph-name="uniF36E" unicode="&#xf36e;" horiz-adv-x="884" 
d="M72 0v525h160v-182h56q23 87 93 139.5t179 52.5q139 0 216 -71.5t77 -200.5q0 -123 -78 -198t-215 -75q-107 0 -181 53.5t-94 149.5h-53v-193h-160zM448 263q0 -54 31.5 -88.5t85.5 -34.5q61 0 89.5 34t28.5 89q0 58 -31 90t-87 32q-53 0 -85 -32.5t-32 -89.5z" />
    <glyph glyph-name="uniF36F" unicode="&#xf36f;" horiz-adv-x="584" 
d="M352 0v140h-71l-88 -140h-189l123 179q-75 51 -75 144q0 86 62.5 146t191.5 60q44 0 119 -2t87 -2v-525h-160zM268 290h84v85q-10 4 -61 4q-69 0 -69 -45q0 -35 46 -44z" />
    <glyph glyph-name="uniF371" unicode="&#xf371;" horiz-adv-x="508" 
d="M72 0v525h379v-150h-219v-37h194v-150h-194v-38h228v-150h-388zM98 637q0 34 23.5 54.5t58.5 20.5q29 0 51.5 -20.5t22.5 -54.5q0 -36 -22.5 -57.5t-51.5 -21.5q-35 0 -58.5 21t-23.5 58zM279 637q0 34 23.5 54.5t56.5 20.5q31 0 53.5 -20.5t22.5 -54.5
q0 -36 -22.5 -57.5t-53.5 -21.5q-33 0 -56.5 21t-23.5 58z" />
    <glyph glyph-name="uniF372" unicode="&#xf372;" horiz-adv-x="654" 
d="M623 162q0 -84 -42 -128t-119 -44q-39 0 -73 13t-47 30l51 122q23 -15 47 -15q23 0 23 15q0 22 -51 22q-36 0 -76 -17v-160h-160v375h-167v150h495v-150h-168v-60q44 12 106 12q80 0 130.5 -40t50.5 -125z" />
    <glyph glyph-name="uniF373" unicode="&#xf373;" horiz-adv-x="455" 
d="M72 0v525h363v-150h-203v-375h-160zM398 671l-162 -110l-71 83l141 142z" />
    <glyph glyph-name="uniF374" unicode="&#xf374;" horiz-adv-x="567" 
d="M418 339v-150h-207q34 -49 137 -49q92 0 150 40l57 -135q-25 -22 -82.5 -38.5t-120.5 -16.5q-149 0 -235 72.5t-86 200.5q0 123 85 197.5t216 74.5q134 0 221 -65l-71 -120q-26 17 -68.5 26t-76.5 9q-106 0 -132 -46h213z" />
    <glyph glyph-name="uniF375" unicode="&#xf375;" horiz-adv-x="516" 
d="M315 160q0 11 -28 20.5t-68 21t-80 29t-68 54t-28 86.5q0 71 55 116.5t176 45.5q51 0 116 -24t95 -57l-72 -119q-30 20 -74 35t-71 15q-55 0 -55 -20q0 -8 20 -15.5t50.5 -13.5t65.5 -19.5t65.5 -32t50.5 -52.5t20 -79q0 -72 -62.5 -117.5t-164.5 -45.5q-66 0 -136.5 27
t-101.5 71l91 109q23 -21 73 -39t86 -18q45 0 45 22z" />
    <glyph glyph-name="uniF376" unicode="&#xf376;" horiz-adv-x="314" 
d="M77 0v525h160v-525h-160z" />
    <glyph glyph-name="uniF377" unicode="&#xf377;" horiz-adv-x="347" 
d="M20 636q0 32 21 51.5t53 19.5q27 0 47.5 -19.5t20.5 -51.5q0 -34 -20.5 -54.5t-47.5 -20.5q-32 0 -53 20t-21 55zM185 636q0 32 21.5 51.5t52.5 19.5q28 0 48 -19.5t20 -51.5q0 -34 -20 -54.5t-48 -20.5q-31 0 -52.5 20t-21.5 55zM94 0v525h160v-525h-160z" />
    <glyph glyph-name="uniF378" unicode="&#xf378;" horiz-adv-x="357" 
d="M285 525v-390q0 -72 -44 -108.5t-123 -36.5q-40 0 -74.5 13.5t-46.5 29.5l52 122q22 -15 46 -15q30 0 30 24v361h160z" />
    <glyph glyph-name="uniF379" unicode="&#xf379;" horiz-adv-x="841" 
d="M393 0v375h-98l-15 -99q-27 -175 -86.5 -235.5t-178.5 -40.5l3 160q23 -4 38 1t31.5 29t28.5 81t20 149l9 105h408v-142q16 2 42 2q106 0 160.5 -50t54.5 -138q0 -89 -65.5 -144t-183.5 -55q-36 0 -95.5 1t-72.5 1zM580 235q-5 0 -27 -2v-82q17 -3 27 -3q60 0 60 45
q0 42 -60 42z" />
    <glyph glyph-name="uniF37A" unicode="&#xf37a;" horiz-adv-x="868" 
d="M72 0v525h160v-167h187v167h160v-160q17 2 42 2q105 0 160.5 -49t55.5 -129q0 -82 -66 -136.5t-183 -54.5q-36 0 -95.5 1t-73.5 1v208h-187v-208h-160zM579 215v-64q18 -3 28 -3q29 0 44.5 10t15.5 26t-17 25t-43 9q-10 0 -28 -3z" />
    <glyph glyph-name="uniF37B" unicode="&#xf37b;" horiz-adv-x="654" 
d="M9 375v150h495v-150h-168v-74q43 16 101 16q34 0 64.5 -8t59 -25.5t45.5 -52t17 -81.5v-150h-160v101q0 39 -16 52.5t-44 13.5q-43 0 -67 -11v-156h-160v375h-167z" />
    <glyph glyph-name="uniF37C" unicode="&#xf37c;" horiz-adv-x="617" 
d="M72 0v525h160v-211l159 211h207l-202 -239l221 -286h-217l-168 232v-232h-160zM438 671l-162 -110l-71 83l141 142z" />
    <glyph glyph-name="uniF37E" unicode="&#xf37e;" horiz-adv-x="587" 
d="M583 525l-197 -393q-65 -132 -188 -132q-48 0 -86 26l56 136q21 -12 39 -12q19 0 28 12l8 12l-236 351h201l117 -193l94 193h164zM115 720h140q0 -40 42 -40q38 0 38 40h140q0 -70 -47 -110t-131 -40q-91 0 -136.5 39t-45.5 111z" />
    <glyph glyph-name="uniF37F" unicode="&#xf37f;" horiz-adv-x="651" 
d="M72 0v525h160v-375h187v375h160v-525h-179v-110h-150v110h-178z" />
    <glyph glyph-name="uniF381" unicode="&#xf381;" horiz-adv-x="540" 
d="M10 364v130h72v31h160v-31h115v-130h-115v-21q17 2 41 2q116 0 171 -41t55 -127t-66.5 -132.5t-193.5 -46.5q-36 0 -94.5 1t-72.5 1v364h-72zM269 205q-3 0 -12 -0.5t-15 -0.5v-64q24 -2 26 -2q71 0 71 35q0 32 -70 32z" />
    <glyph glyph-name="uniF389" unicode="&#xf389;" horiz-adv-x="664" 
d="M31 261q0 117 83 194.5t218 77.5q133 0 217 -73t84 -199q0 -121 -85 -197t-216 -76q-134 0 -217.5 73t-83.5 200zM261 227q-31 0 -50 -15q14 -33 47 -53.5t74 -20.5q43 0 69 13q-36 3 -79.5 39.5t-60.5 36.5zM422 291q18 0 35 10q-12 39 -45.5 60.5t-79.5 21.5
q-39 0 -71 -16q34 0 63.5 -19t53.5 -38t44 -19z" />
    <glyph glyph-name="uniF38A" unicode="&#xf38a;" horiz-adv-x="556" 
d="M482 340l-138 -338h-124l-233 523h181l120 -306l64 189q29 85 74.5 110.5t139.5 6.5v-130q-31 2 -50.5 -9t-33.5 -46z" />
    <glyph glyph-name="uniF393" unicode="&#xf393;" horiz-adv-x="465" 
d="M72 0v525h223v75h150v-225h-213v-375h-160z" />
    <glyph glyph-name="uniF3CF" unicode="&#xf3cf;" horiz-adv-x="1031" 
d="M582 0h-129l-231 266v-266h-150v525h128l232 -267v267h150v-525zM606 355q0 68 52 108.5t136 40.5t136.5 -40.5t52.5 -108.5t-52.5 -109.5t-136.5 -41.5q-83 0 -135.5 41.5t-52.5 109.5zM746 355q0 -31 48 -31q49 0 49 31q0 29 -49 29q-48 0 -48 -29zM642 37v140h305
v-140h-305z" />
    <glyph glyph-name="uniF3D0" unicode="&#xf3d0;" horiz-adv-x="480" 
d="M60 720h140q0 -40 42 -40q38 0 38 40h140q0 -70 -47 -110t-131 -40q-91 0 -136.5 39t-45.5 111z" />
    <glyph glyph-name="uniF400" unicode="&#xf400;" horiz-adv-x="0" 
d="M-123 649l-131 -146l-89 63l103 172z" />
    <glyph glyph-name="uniF401" unicode="&#xf401;" horiz-adv-x="0" 
d="M-220 806l-249 -78l-41 89l234 118z" />
    <glyph glyph-name="uniF406" unicode="&#xf406;" horiz-adv-x="522" 
d="M60 843l64 77q58 -60 143 -60q86 0 140 60l55 -78q-28 -47 -81.5 -79.5t-113.5 -32.5q-66 0 -122.5 34t-84.5 79z" />
    <glyph glyph-name="uniF407" unicode="&#xf407;" horiz-adv-x="424" 
d="M60 -157l48 74q13 -13 34.5 -25t39.5 -12q22 0 22 13q0 17 -25 17h-6v90h75v-26q116 -9 116 -90q0 -42 -38.5 -68t-106.5 -26q-100 0 -159 53z" />
    <glyph glyph-name="uniF408" unicode="&#xf408;" horiz-adv-x="486" 
d="M60 806l178 119h4l184 -117l-58 -85l-128 66l-128 -66z" />
    <glyph glyph-name="uniF409" unicode="&#xf409;" horiz-adv-x="311" 
d="M89 -50l149 29q13 -18 13 -48q0 -55 -46.5 -93.5t-100.5 -45.5l-44 64q41 18 41 58q0 21 -12 36z" />
    <glyph glyph-name="uniF40A" unicode="&#xf40a;" horiz-adv-x="303" 
d="M79 715l126 73q38 -40 38 -105q0 -71 -34.5 -119.5t-78.5 -74.5l-70 63q43 40 43 98q0 41 -24 65z" />
    <glyph glyph-name="uniF40B" unicode="&#xf40b;" horiz-adv-x="317" 
d="M60 845q0 41 29.5 65.5t71.5 24.5q39 0 67.5 -25t28.5 -65q0 -44 -28.5 -70t-67.5 -26q-43 0 -72 25.5t-29 70.5z" />
    <glyph glyph-name="uniF40C" unicode="&#xf40c;" horiz-adv-x="435" 
d="M60 809q0 59 43.5 88.5t111.5 29.5q71 0 115.5 -29.5t44.5 -88.5q0 -58 -45 -89.5t-115 -31.5q-67 0 -111 31.5t-44 89.5zM170 809q0 -41 47 -41q48 0 48 41q0 38 -48 38q-47 0 -47 -38z" />
    <glyph glyph-name="uniF40D" unicode="&#xf40d;" horiz-adv-x="496" 
d="M106 746l-46 94q23 28 57.5 45.5t67.5 17.5q31 0 70 -15t65 -15q50 0 78 30l38 -94q-41 -66 -126 -66q-24 0 -66.5 15t-71.5 15q-33 0 -66 -27z" />
    <glyph glyph-name="uniF40E" unicode="&#xf40e;" horiz-adv-x="385" 
d="M280 -70l45 -90q-13 -16 -47 -28t-73 -12q-63 0 -104 24t-41 71q0 44 40 74.5t94.5 42.5t114.5 11v-23q-41 0 -70 -17.5t-29 -36.5q0 -26 30 -26q19 0 40 10z" />
    <glyph glyph-name="uniF410" unicode="&#xf410;" horiz-adv-x="0" 
d="M-284 728l-249 78l56 129l234 -118z" />
    <glyph glyph-name="uniF416" unicode="&#xf416;" horiz-adv-x="311" 
d="M89 -50l149 29q13 -18 13 -48q0 -55 -46.5 -93.5t-100.5 -45.5l-44 64q41 18 41 58q0 21 -12 36z" />
    <glyph glyph-name="uniF418" unicode="&#xf418;" horiz-adv-x="303" 
d="M79 515l126 73q38 -40 38 -105q0 -71 -34.5 -119.5t-78.5 -74.5l-70 63q43 40 43 98q0 41 -24 65z" />
    <glyph glyph-name="uniF447" unicode="&#xf447;" horiz-adv-x="513" 
d="M114 -161l44 69q28 -28 68 -28q22 0 22 13q0 17 -25 17h-6v90h-41v375h-167v150h495v-150h-168v-375h-44v-26q106 -9 106 -90q0 -43 -38.5 -68.5t-112.5 -25.5q-79 0 -133 49z" />
    <glyph glyph-name="uniF44E" unicode="&#xf44e;" horiz-adv-x="626" 
d="M38 341h383q-29 42 -123 42q-44 0 -68.5 -7.5t-55.5 -27.5l-61 120q26 19 46 30.5t62 23t93 11.5q128 0 204.5 -75.5t76.5 -198.5q0 -128 -81 -199.5t-210 -71.5q-142 0 -218 92.5t-48 260.5zM302 138q58 0 86 12t39 41h-223q0 -20 27.5 -36.5t70.5 -16.5z" />
    <glyph glyph-name="uniF639" unicode="&#xf639;" 
d="M58 350q0 168 61.5 263t180.5 95t180.5 -95t61.5 -263t-60.5 -263t-179.5 -95q-120 0 -182 95.5t-62 262.5zM218 350q0 -218 84 -218q43 0 61.5 48.5t18.5 169.5t-19 169.5t-63 48.5q-43 0 -62.5 -50t-19.5 -168z" />
    <glyph glyph-name="uniF63A" unicode="&#xf63a;" 
d="M78 0v120q9 8 49.5 47.5t54.5 54.5l48 50.5t48 56.5l33.5 51.5t27 56.5t7.5 52q0 69 -64 69q-30 0 -47 -19.5t-30 -55.5l-125 57q17 77 73.5 122.5t146.5 45.5q97 0 151.5 -55t54.5 -134q0 -199 -234 -379h258v-140h-452z" />
    <glyph glyph-name="uniF63B" unicode="&#xf63b;" 
d="M295 -12q-83 0 -142 32.5t-89 83.5l83 111q67 -77 138 -77q43 0 65.5 19.5t22.5 48.5q0 77 -119 77h-44v150h40q42 0 69 18t27 52q0 25 -15.5 42t-48.5 17q-70 0 -121 -63l-82 108q65 105 217 105q93 0 151.5 -48.5t58.5 -130.5q0 -61 -25.5 -100.5t-78.5 -63.5v-3
q63 -12 97 -57t34 -109q0 -97 -67.5 -154.5t-170.5 -57.5z" />
    <glyph glyph-name="uniF63C" unicode="&#xf63c;" 
d="M338 0v150h-318v112l250 438h172l-229 -400h125v150h150v-150h82v-150h-82v-150h-150z" />
    <glyph glyph-name="uniF63D" unicode="&#xf63d;" 
d="M117 308l48 392h346v-150h-214l-14 -89h24q94 0 156.5 -62t62.5 -166q0 -114 -72 -179.5t-183 -65.5q-58 0 -117.5 25.5t-89.5 68.5l84 115q21 -25 57 -42t70 -17q40 0 65.5 24.5t25.5 63.5q0 44 -34 72t-95 28q-82 0 -120 -18z" />
    <glyph glyph-name="uniF63E" unicode="&#xf63e;" 
d="M40 248q0 92 32.5 174.5t85 139.5t112 95.5t118.5 54.5l61 -113q-79 -27 -140 -79t-91 -122q41 38 123 38q78 0 135.5 -60t57.5 -153q0 -110 -71 -172.5t-165 -62.5q-115 0 -186.5 75t-71.5 185zM200 247q0 -50 26 -79.5t73 -29.5q37 0 56 22t19 52q0 37 -22 60.5
t-63 23.5q-55 0 -89 -49z" />
    <glyph glyph-name="uniF63F" unicode="&#xf63f;" 
d="M80 550v150h460v-102l-237 -598h-164l222 550h-281z" />
    <glyph glyph-name="uniF640" unicode="&#xf640;" 
d="M295 435h13q33 0 50.5 19.5t17.5 45.5q0 62 -77 62q-37 0 -55.5 -17.5t-18.5 -44.5q0 -26 18 -45.5t52 -19.5zM308 285h-12q-36 0 -62 -19.5t-26 -54.5q0 -32 22.5 -52.5t69.5 -20.5q95 0 93 73q-1 36 -24 55t-61 19zM301 -12q-111 0 -182 52.5t-71 140.5q0 66 30 111.5
t77 65.5v3q-39 21 -64.5 63t-25.5 103q0 81 67.5 133t167.5 52t168 -52t68 -133q0 -52 -27 -97t-73 -68v-3q49 -13 83 -56.5t34 -108.5q0 -97 -70 -151.5t-182 -54.5z" />
    <glyph glyph-name="uniF641" unicode="&#xf641;" 
d="M555 442q0 -197 -104 -317t-264 -137l-49 119q189 41 239 185q-41 -38 -109 -38q-87 0 -149.5 62t-62.5 156q0 110 73.5 175t167.5 65q117 0 187.5 -74t70.5 -196zM395 443q0 51 -26.5 85t-72.5 34q-37 0 -58.5 -24.5t-21.5 -54.5q0 -37 24.5 -63t65.5 -26q55 0 89 49z
" />
    <glyph glyph-name="uniF643" unicode="&#xf643;" 
d="M30 250q0 107 72.5 184.5t197.5 77.5t197.5 -77.5t72.5 -184.5t-72.5 -184.5t-197.5 -77.5t-197.5 77.5t-72.5 184.5zM190 250q0 -49 30 -80.5t80 -31.5q54 0 82 31t28 81q0 53 -29.5 82.5t-80.5 29.5q-50 0 -80 -30t-30 -82z" />
    <glyph glyph-name="uniF644" unicode="&#xf644;" 
d="M105 424l178 84h105v-508h-160v319l-75 -31z" />
    <glyph glyph-name="uniF645" unicode="&#xf645;" 
d="M78 0v110q47 20 82.5 37t80.5 43.5t70 55.5t25 57q0 27 -13 43.5t-38 16.5q-31 0 -52.5 -15t-43.5 -47l-95 98q26 49 81 81.5t120 32.5q100 0 150.5 -49t50.5 -125q0 -64 -40.5 -115t-88.5 -74h163v-150h-452z" />
    <glyph glyph-name="uniF646" unicode="&#xf646;" 
d="M295 -212q-83 0 -142 32.5t-89 83.5l83 111q67 -77 138 -77q43 0 65.5 19.5t22.5 48.5q0 77 -119 77h-44v150h40q42 0 69 18t27 52q0 25 -15.5 42t-48.5 17q-70 0 -121 -63l-82 108q65 105 217 105q93 0 151.5 -48.5t58.5 -130.5q0 -61 -25.5 -100.5t-78.5 -63.5v-3
q63 -12 97 -57t34 -109q0 -97 -67.5 -154.5t-170.5 -57.5z" />
    <glyph glyph-name="uniF647" unicode="&#xf647;" 
d="M338 -200v200h-318v112l224 388h172l-203 -350h125v150h150v-150h82v-150h-82v-200h-150z" />
    <glyph glyph-name="uniF648" unicode="&#xf648;" 
d="M117 108l48 392h346v-150h-214l-14 -89h24q94 0 156.5 -62t62.5 -166q0 -114 -72 -179.5t-183 -65.5q-58 0 -117.5 25.5t-89.5 68.5l84 115q21 -25 57 -42t70 -17q40 0 65.5 24.5t25.5 63.5q0 44 -34 72t-95 28q-82 0 -120 -18z" />
    <glyph glyph-name="uniF649" unicode="&#xf649;" 
d="M40 248q0 92 32.5 174.5t85 139.5t112 95.5t118.5 54.5l61 -113q-79 -27 -140 -79t-91 -122q41 38 123 38q78 0 135.5 -60t57.5 -153q0 -110 -71 -172.5t-165 -62.5q-115 0 -186.5 75t-71.5 185zM200 247q0 -50 26 -79.5t73 -29.5q37 0 56 22t19 52q0 37 -22 60.5
t-63 23.5q-55 0 -89 -49z" />
    <glyph glyph-name="uniF64A" unicode="&#xf64a;" 
d="M80 350v150h460v-102l-237 -598h-164l222 550h-281z" />
    <glyph glyph-name="uniF64B" unicode="&#xf64b;" 
d="M295 435h13q33 0 50.5 19.5t17.5 45.5q0 62 -77 62q-37 0 -55.5 -17.5t-18.5 -44.5q0 -26 18 -45.5t52 -19.5zM308 285h-12q-36 0 -62 -19.5t-26 -54.5q0 -32 22.5 -52.5t69.5 -20.5q95 0 93 73q-1 36 -24 55t-61 19zM301 -12q-111 0 -182 52.5t-71 140.5q0 66 30 111.5
t77 65.5v3q-39 21 -64.5 63t-25.5 103q0 81 67.5 133t167.5 52t168 -52t68 -133q0 -52 -27 -97t-73 -68v-3q49 -13 83 -56.5t34 -108.5q0 -97 -70 -151.5t-182 -54.5z" />
    <glyph glyph-name="uniF64C" unicode="&#xf64c;" 
d="M555 242q0 -197 -104 -317t-264 -137l-49 119q189 41 239 185q-41 -38 -109 -38q-87 0 -149.5 62t-62.5 156q0 110 73.5 175t167.5 65q117 0 187.5 -74t70.5 -196zM395 243q0 51 -26.5 85t-72.5 34q-37 0 -58.5 -24.5t-21.5 -54.5q0 -37 24.5 -63t65.5 -26q55 0 89 49z
" />
    <glyph glyph-name="uniF66D" unicode="&#xf66d;" horiz-adv-x="632" 
d="M0 0l244 525h144l244 -525h-171l-33 75h-234l-33 -75h-161zM312 340l-51 -115h101zM150 657l66 75q47 -52 105 -52q68 0 110 50l51 -72q-65 -98 -167 -98q-61 0 -103 31t-62 66z" />
    <glyph glyph-name="uniF66E" unicode="&#xf66e;" horiz-adv-x="632" 
d="M0 0l244 525h144l244 -525h-171l-33 75h-234l-33 -75h-161zM312 340l-51 -115h101zM169 570v120h294v-120h-294z" />
    <glyph glyph-name="uniF66F" unicode="&#xf66f;" horiz-adv-x="632" 
d="M579 -70l45 -90q-13 -16 -47 -28t-73 -12q-63 0 -104 24t-41 71q0 73 101 106l-32 74h-234l-33 -75h-161l244 525h144l244 -525h-33q-38 -2 -64 -19t-26 -35q0 -26 30 -26q19 0 40 10zM312 340l-51 -115h101z" />
    <glyph glyph-name="uniF671" unicode="&#xf671;" horiz-adv-x="557" 
d="M472 170l61 -120q-26 -27 -80.5 -44.5t-115.5 -17.5q-140 0 -223 74.5t-83 198.5q0 116 77.5 194t228.5 78q57 0 106 -16.5t77 -40.5l-71 -120q-3 1 -21.5 8.5t-26.5 10t-26.5 5.5t-37.5 3q-62 0 -99 -29.5t-37 -92.5q0 -55 40.5 -89t110.5 -34q68 0 120 32zM458 671
l-162 -110l-71 83l141 142z" />
    <glyph glyph-name="uniF672" unicode="&#xf672;" horiz-adv-x="557" 
d="M472 170l61 -120q-26 -27 -80.5 -44.5t-115.5 -17.5q-140 0 -223 74.5t-83 198.5q0 116 77.5 194t228.5 78q57 0 106 -16.5t77 -40.5l-71 -120q-3 1 -21.5 8.5t-26.5 10t-26.5 5.5t-37.5 3q-62 0 -99 -29.5t-37 -92.5q0 -55 40.5 -89t110.5 -34q68 0 120 32zM314 548
l-165 126l70 88l98 -71l100 69l67 -87l-166 -125h-4z" />
    <glyph glyph-name="uniF673" unicode="&#xf673;" horiz-adv-x="557" 
d="M472 170l61 -120q-26 -27 -80.5 -44.5t-115.5 -17.5q-140 0 -223 74.5t-83 198.5q0 116 77.5 194t228.5 78q57 0 106 -16.5t77 -40.5l-71 -120q-3 1 -21.5 8.5t-26.5 10t-26.5 5.5t-37.5 3q-62 0 -99 -29.5t-37 -92.5q0 -55 40.5 -89t110.5 -34q68 0 120 32zM322 756
l165 -126l-70 -88l-98 71l-100 -69l-67 87l166 125h4z" />
    <glyph glyph-name="uniF674" unicode="&#xf674;" horiz-adv-x="557" 
d="M472 170l61 -120q-26 -27 -80.5 -44.5t-115.5 -17.5q-140 0 -223 74.5t-83 198.5q0 116 77.5 194t228.5 78q57 0 106 -16.5t77 -40.5l-71 -120q-3 1 -21.5 8.5t-26.5 10t-26.5 5.5t-37.5 3q-62 0 -99 -29.5t-37 -92.5q0 -55 40.5 -89t110.5 -34q68 0 120 32zM223 655
q0 39 26.5 62t64.5 23q34 0 59.5 -23.5t25.5 -61.5q0 -42 -25.5 -66.5t-59.5 -24.5q-39 0 -65 24t-26 67z" />
    <glyph glyph-name="uniF675" unicode="&#xf675;" horiz-adv-x="634" 
d="M72 0v525h13q13 0 89.5 1t94.5 1q171 0 252.5 -70t81.5 -192q0 -121 -87.5 -194t-252.5 -73q-11 0 -76 1t-99 1h-16zM268 377q-28 0 -36 -2v-225q10 -2 36 -2q165 0 165 117q0 112 -165 112zM284 548l-165 126l70 88l98 -71l100 69l67 -87l-166 -125h-4z" />
    <glyph glyph-name="uniF676" unicode="&#xf676;" horiz-adv-x="630" 
d="M9 194v140h58v191h13q10 0 92 1t114 1q155 0 234 -74t79 -188q0 -113 -83.5 -190t-225.5 -77q-30 0 -103.5 1t-102.5 1h-17v194h-58zM291 377q-48 0 -64 -4v-39h132v-140h-132v-44q20 -2 50 -2q152 0 152 117q0 59 -38.5 85.5t-99.5 26.5z" />
    <glyph glyph-name="uniF678" unicode="&#xf678;" horiz-adv-x="508" 
d="M72 0v525h379v-150h-219v-37h194v-150h-194v-38h228v-150h-388zM264 548l-165 126l70 88l98 -71l100 69l67 -87l-166 -125h-4z" />
    <glyph glyph-name="uniF679" unicode="&#xf679;" horiz-adv-x="508" 
d="M72 0v525h379v-150h-219v-37h194v-150h-194v-38h228v-150h-388zM173 655q0 39 26.5 62t64.5 23q34 0 59.5 -23.5t25.5 -61.5q0 -42 -25.5 -66.5t-59.5 -24.5q-39 0 -65 24t-26 67z" />
    <glyph glyph-name="uniF67A" unicode="&#xf67a;" horiz-adv-x="508" 
d="M72 0v525h379v-150h-219v-37h194v-150h-194v-38h228v-150h-388zM112 570v120h294v-120h-294z" />
    <glyph glyph-name="uniF67C" unicode="&#xf67c;" horiz-adv-x="508" 
d="M72 0v525h379v-150h-219v-37h194v-150h-194v-38h228v-150h-9q-38 -2 -64 -19t-26 -35q0 -26 30 -26q19 0 40 10l45 -90q-13 -16 -47 -28t-73 -12q-63 0 -104 24t-41 71q0 70 97 105h-236z" />
    <glyph glyph-name="uniF67D" unicode="&#xf67d;" horiz-adv-x="618" 
d="M315 180v140h264v-257q-39 -34 -102.5 -54.5t-120.5 -20.5q-155 0 -240 74t-85 199q0 116 83 194t222 78q113 0 198 -57l-67 -125q-55 32 -112 32q-154 0 -154 -122q0 -57 42.5 -90t114.5 -33q40 0 71 12v30h-114zM159 657l66 75q47 -52 105 -52q68 0 110 50l51 -72
q-65 -98 -167 -98q-61 0 -103 31t-62 66z" />
    <glyph glyph-name="uniF67E" unicode="&#xf67e;" horiz-adv-x="618" 
d="M315 180v140h264v-257q-39 -34 -102.5 -54.5t-120.5 -20.5q-155 0 -240 74t-85 199q0 116 83 194t222 78q113 0 198 -57l-67 -125q-55 32 -112 32q-154 0 -154 -122q0 -57 42.5 -90t114.5 -33q40 0 71 12v30h-114zM332 756l165 -126l-70 -88l-98 71l-100 -69l-67 87
l166 125h4z" />
    <glyph glyph-name="uniF67F" unicode="&#xf67f;" horiz-adv-x="618" 
d="M315 180v140h264v-257q-39 -34 -102.5 -54.5t-120.5 -20.5q-155 0 -240 74t-85 199q0 116 83 194t222 78q113 0 198 -57l-67 -125q-55 32 -112 32q-154 0 -154 -122q0 -57 42.5 -90t114.5 -33q40 0 71 12v30h-114zM256 -50l149 29q13 -18 13 -48q0 -55 -46.5 -93.5
t-100.5 -45.5l-44 64q41 18 41 58q0 21 -12 36z" />
    <glyph glyph-name="uniF680" unicode="&#xf680;" horiz-adv-x="618" 
d="M315 180v140h264v-257q-39 -34 -102.5 -54.5t-120.5 -20.5q-155 0 -240 74t-85 199q0 116 83 194t222 78q113 0 198 -57l-67 -125q-55 32 -112 32q-154 0 -154 -122q0 -57 42.5 -90t114.5 -33q40 0 71 12v30h-114zM243 655q0 39 26.5 62t64.5 23q34 0 59.5 -23.5
t25.5 -61.5q0 -42 -25.5 -66.5t-59.5 -24.5q-39 0 -65 24t-26 67z" />
    <glyph glyph-name="uniF681" unicode="&#xf681;" horiz-adv-x="659" 
d="M30 363v140h42v22h160v-22h195v22h160v-22h42v-140h-42v-363h-160v193h-195v-193h-160v363h-42zM232 343h195v20h-195v-20z" />
    <glyph glyph-name="uniF682" unicode="&#xf682;" horiz-adv-x="659" 
d="M427 0v193h-195v-193h-160v525h160v-182h195v182h160v-525h-160zM332 756l165 -126l-70 -88l-98 71l-100 -69l-67 87l166 125h4z" />
    <glyph glyph-name="uniF685" unicode="&#xf685;" horiz-adv-x="314" 
d="M77 0v525h160v-525h-160zM10 570v120h294v-120h-294z" />
    <glyph glyph-name="uniF686" unicode="&#xf686;" horiz-adv-x="314" 
d="M197 -70l45 -90q-13 -16 -47 -28t-73 -12q-63 0 -104 24t-41 71q0 71 100 106v524h160v-525h-20q-38 -2 -64 -19t-26 -35q0 -26 30 -26q19 0 40 10z" />
    <glyph glyph-name="uniF688" unicode="&#xf688;" horiz-adv-x="357" 
d="M285 525v-390q0 -72 -44 -108.5t-123 -36.5q-40 0 -74.5 13.5t-46.5 29.5l52 122q22 -15 46 -15q30 0 30 24v361h160zM202 756l165 -126l-70 -88l-98 71l-100 -69l-67 87l166 125h4z" />
    <glyph glyph-name="uniF689" unicode="&#xf689;" horiz-adv-x="617" 
d="M72 0v525h160v-211l159 211h207l-202 -239l221 -286h-217l-168 232v-232h-160zM206 -50l149 29q13 -18 13 -48q0 -55 -46.5 -93.5t-100.5 -45.5l-44 64q41 18 41 58q0 21 -12 36z" />
    <glyph glyph-name="uniF68A" unicode="&#xf68a;" horiz-adv-x="475" 
d="M72 0v525h160v-365h223v-160h-383zM378 671l-162 -110l-71 83l141 142z" />
    <glyph glyph-name="uniF68B" unicode="&#xf68b;" horiz-adv-x="475" 
d="M72 0v525h160v-365h223v-160h-383zM296 525h146q5 -13 5 -32q0 -131 -113 -194l-70 63q43 49 43 113q0 25 -11 50z" />
    <glyph glyph-name="uniF68C" unicode="&#xf68c;" horiz-adv-x="475" 
d="M72 0v525h160v-365h223v-160h-383zM196 -50l149 29q13 -18 13 -48q0 -55 -46.5 -93.5t-100.5 -45.5l-44 64q41 18 41 58q0 21 -12 36z" />
    <glyph glyph-name="uniF68D" unicode="&#xf68d;" horiz-adv-x="475" 
d="M72 0v525h160v-365h223v-160h-383zM291 316q0 36 28 65t74 29q40 0 67 -29t27 -65q0 -41 -26.5 -71.5t-67.5 -30.5q-46 0 -74 30t-28 72z" />
    <glyph glyph-name="uniF68E" unicode="&#xf68e;" horiz-adv-x="671" 
d="M599 0h-129l-248 266v-266h-150v525h128l249 -267v267h150v-525zM488 671l-162 -110l-71 83l141 142z" />
    <glyph glyph-name="uniF68F" unicode="&#xf68f;" horiz-adv-x="671" 
d="M599 0h-129l-248 266v-266h-150v525h128l249 -267v267h150v-525zM333 548l-165 126l70 88l98 -71l100 69l67 -87l-166 -125h-4z" />
    <glyph glyph-name="uniF690" unicode="&#xf690;" horiz-adv-x="671" 
d="M599 0h-129l-248 266v-266h-150v525h128l249 -267v267h150v-525zM256 -50l149 29q13 -18 13 -48q0 -55 -46.5 -93.5t-100.5 -45.5l-44 64q41 18 41 58q0 21 -12 36z" />
    <glyph glyph-name="uniF692" unicode="&#xf692;" horiz-adv-x="664" 
d="M31 261q0 117 83 194.5t218 77.5q133 0 217 -73t84 -199q0 -121 -85 -197t-216 -76q-134 0 -217.5 73t-83.5 200zM201 261q0 -52 38 -87.5t93 -35.5q67 0 99 34t32 89q0 56 -37 89t-94 33q-59 0 -95 -32.5t-36 -89.5zM573 692l-174 -127l-66 54l129 157zM379 710
l-129 -145l-76 51l97 174z" />
    <glyph glyph-name="uniF693" unicode="&#xf693;" horiz-adv-x="664" 
d="M31 261q0 117 83 194.5t218 77.5q133 0 217 -73t84 -199q0 -121 -85 -197t-216 -76q-134 0 -217.5 73t-83.5 200zM201 261q0 -52 38 -87.5t93 -35.5q67 0 99 34t32 89q0 56 -37 89t-94 33q-59 0 -95 -32.5t-36 -89.5zM185 570v120h294v-120h-294z" />
    <glyph glyph-name="uniF695" unicode="&#xf695;" horiz-adv-x="578" 
d="M232 0h-160v525q12 0 86 1t114 1q242 0 242 -187q0 -31 -7 -57t-13.5 -40.5t-21 -29.5t-18 -17.5l-16.5 -11.5l130 -184h-203l-90 145h-43v-145zM282 377q-30 0 -50 -2v-80h46q66 0 66 43q0 13 -14 26t-48 13zM428 671l-162 -110l-71 83l141 142z" />
    <glyph glyph-name="uniF696" unicode="&#xf696;" horiz-adv-x="578" 
d="M232 0h-160v525q12 0 86 1t114 1q242 0 242 -187q0 -31 -7 -57t-13.5 -40.5t-21 -29.5t-18 -17.5l-16.5 -11.5l130 -184h-203l-90 145h-43v-145zM282 377q-30 0 -50 -2v-80h46q66 0 66 43q0 13 -14 26t-48 13zM274 548l-165 126l70 88l98 -71l100 69l67 -87l-166 -125h-4
z" />
    <glyph glyph-name="uniF697" unicode="&#xf697;" horiz-adv-x="578" 
d="M232 0h-160v525q12 0 86 1t114 1q242 0 242 -187q0 -31 -7 -57t-13.5 -40.5t-21 -29.5t-18 -17.5l-16.5 -11.5l130 -184h-203l-90 145h-43v-145zM282 377q-30 0 -50 -2v-80h46q66 0 66 43q0 13 -14 26t-48 13zM196 -50l149 29q13 -18 13 -48q0 -55 -46.5 -93.5
t-100.5 -45.5l-44 64q41 18 41 58q0 21 -12 36z" />
    <glyph glyph-name="uniF698" unicode="&#xf698;" horiz-adv-x="516" 
d="M315 160q0 11 -28 20.5t-68 21t-80 29t-68 54t-28 86.5q0 71 55 116.5t176 45.5q51 0 116 -24t95 -57l-72 -119q-30 20 -74 35t-71 15q-55 0 -55 -20q0 -8 20 -15.5t50.5 -13.5t65.5 -19.5t65.5 -32t50.5 -52.5t20 -79q0 -72 -62.5 -117.5t-164.5 -45.5q-66 0 -136.5 27
t-101.5 71l91 109q23 -21 73 -39t86 -18q45 0 45 22zM418 671l-162 -110l-71 83l141 142z" />
    <glyph glyph-name="uniF699" unicode="&#xf699;" horiz-adv-x="516" 
d="M114 -161l44 69q28 -28 68 -28q22 0 22 13q0 17 -25 17h-6v81q-61 7 -116 32.5t-81 62.5l91 109q23 -21 73 -39t86 -18q45 0 45 22q0 11 -28 20.5t-68 21t-80 29t-68 54t-28 86.5q0 71 55 116.5t176 45.5q51 0 116 -24t95 -57l-72 -119q-30 20 -74 35t-71 15
q-55 0 -55 -20q0 -8 20 -15.5t50.5 -13.5t65.5 -19.5t65.5 -32t50.5 -52.5t20 -79q0 -66 -52.5 -109.5t-140.5 -51.5v-16q106 -9 106 -90q0 -43 -38.5 -68.5t-112.5 -25.5q-79 0 -133 49z" />
    <glyph glyph-name="uniF69A" unicode="&#xf69a;" horiz-adv-x="516" 
d="M315 160q0 11 -28 20.5t-68 21t-80 29t-68 54t-28 86.5q0 71 55 116.5t176 45.5q51 0 116 -24t95 -57l-72 -119q-30 20 -74 35t-71 15q-55 0 -55 -20q0 -8 20 -15.5t50.5 -13.5t65.5 -19.5t65.5 -32t50.5 -52.5t20 -79q0 -72 -62.5 -117.5t-164.5 -45.5q-66 0 -136.5 27
t-101.5 71l91 109q23 -21 73 -39t86 -18q45 0 45 22zM262 756l165 -126l-70 -88l-98 71l-100 -69l-67 87l166 125h4z" />
    <glyph glyph-name="uniF69B" unicode="&#xf69b;" horiz-adv-x="516" 
d="M315 160q0 11 -28 20.5t-68 21t-80 29t-68 54t-28 86.5q0 71 55 116.5t176 45.5q51 0 116 -24t95 -57l-72 -119q-30 20 -74 35t-71 15q-55 0 -55 -20q0 -8 20 -15.5t50.5 -13.5t65.5 -19.5t65.5 -32t50.5 -52.5t20 -79q0 -72 -62.5 -117.5t-164.5 -45.5q-66 0 -136.5 27
t-101.5 71l91 109q23 -21 73 -39t86 -18q45 0 45 22zM186 -50l149 29q13 -18 13 -48q0 -55 -46.5 -93.5t-100.5 -45.5l-44 64q41 18 41 58q0 21 -12 36z" />
    <glyph glyph-name="uniF69D" unicode="&#xf69d;" horiz-adv-x="513" 
d="M9 375v150h495v-150h-168v-375h-160v375h-167zM254 548l-165 126l70 88l98 -71l100 69l67 -87l-166 -125h-4z" />
    <glyph glyph-name="uniF69E" unicode="&#xf69e;" horiz-adv-x="513" 
d="M9 375v150h495v-150h-168v-375h-160v375h-167zM176 -50l149 29q13 -18 13 -48q0 -55 -46.5 -93.5t-100.5 -45.5l-44 64q41 18 41 58q0 21 -12 36z" />
    <glyph glyph-name="uniF69F" unicode="&#xf69f;" horiz-adv-x="638" 
d="M575 525v-310q0 -113 -71 -169.5t-177 -56.5q-121 0 -192.5 59.5t-71.5 171.5v305h160v-270q0 -24 4 -43t14.5 -36.5t32 -27t53.5 -9.5q53 0 70.5 28t17.5 80v278h160zM153 657l66 75q47 -52 105 -52q68 0 110 50l51 -72q-65 -98 -167 -98q-61 0 -103 31t-62 66z" />
    <glyph glyph-name="uniF6A0" unicode="&#xf6a0;" horiz-adv-x="638" 
d="M575 525v-310q0 -113 -71 -169.5t-177 -56.5q-121 0 -192.5 59.5t-71.5 171.5v305h160v-270q0 -24 4 -43t14.5 -36.5t32 -27t53.5 -9.5q53 0 70.5 28t17.5 80v278h160zM563 692l-174 -127l-66 54l129 157zM369 710l-129 -145l-76 51l97 174z" />
    <glyph glyph-name="uniF6A1" unicode="&#xf6a1;" horiz-adv-x="638" 
d="M575 525v-310q0 -113 -71 -169.5t-177 -56.5q-121 0 -192.5 59.5t-71.5 171.5v305h160v-270q0 -24 4 -43t14.5 -36.5t32 -27t53.5 -9.5q53 0 70.5 28t17.5 80v278h160zM172 570v120h294v-120h-294z" />
    <glyph glyph-name="uniF6A2" unicode="&#xf6a2;" horiz-adv-x="638" 
d="M575 525v-310q0 -151 -130 -205q-55 -35 -55 -64q0 -26 30 -26q19 0 40 10l45 -90q-13 -16 -47 -28t-73 -12q-63 0 -104 24t-41 71q0 33 22 54.5t64 39.5q-120 0 -191.5 59.5t-71.5 171.5v305h160v-270q0 -24 4 -43t14.5 -36.5t32 -27t53.5 -9.5q53 0 70.5 28t17.5 80
v278h160z" />
    <glyph glyph-name="uniF6A3" unicode="&#xf6a3;" horiz-adv-x="638" 
d="M575 525v-310q0 -113 -71 -169.5t-177 -56.5q-121 0 -192.5 59.5t-71.5 171.5v305h160v-270q0 -24 4 -43t14.5 -36.5t32 -27t53.5 -9.5q53 0 70.5 28t17.5 80v278h160zM181 652q0 54 39 91.5t98 37.5q60 0 99.5 -37.5t39.5 -91.5q0 -53 -39.5 -90t-99.5 -37q-59 0 -98 37
t-39 90zM276 654q0 -21 12 -35t32 -14q19 0 30.5 14t11.5 35q0 20 -11.5 33.5t-30.5 13.5q-20 0 -32 -13.5t-12 -33.5z" />
    <glyph glyph-name="uniF6AB" unicode="&#xf6ab;" horiz-adv-x="557" 
d="M51 375v150h464v-113l-249 -262h257v-150h-489v113l248 262h-231zM428 671l-162 -110l-71 83l141 142z" />
    <glyph glyph-name="uniF6AC" unicode="&#xf6ac;" horiz-adv-x="557" 
d="M51 375v150h464v-113l-249 -262h257v-150h-489v113l248 262h-231zM190 655q0 39 26.5 62t64.5 23q34 0 59.5 -23.5t25.5 -61.5q0 -42 -25.5 -66.5t-59.5 -24.5q-39 0 -65 24t-26 67z" />
    <glyph glyph-name="uniF6AD" unicode="&#xf6ad;" horiz-adv-x="314" 
d="M77 0v525h160v-525h-160zM69 655q0 39 26.5 62t64.5 23q34 0 59.5 -23.5t25.5 -61.5q0 -42 -25.5 -66.5t-59.5 -24.5q-39 0 -65 24t-26 67z" />
    <glyph glyph-name="uniF6BA" unicode="&#xf6ba;" horiz-adv-x="364" 
d="M50 284v140h264v-140h-264z" />
    <glyph glyph-name="uniF6BB" unicode="&#xf6bb;" horiz-adv-x="604" 
d="M80 289v130h444v-130h-444z" />
    <glyph glyph-name="uniF6BC" unicode="&#xf6bc;" horiz-adv-x="824" 
d="M80 289v130h664v-130h-664z" />
    <glyph glyph-name="uniF6C3" unicode="&#xf6c3;" horiz-adv-x="311" 
d="M89 -50l149 29q13 -18 13 -48q0 -55 -46.5 -93.5t-100.5 -45.5l-44 64q41 18 41 58q0 21 -12 36z" />
    <glyph glyph-name="uniF6C9" unicode="&#xf6c9;" horiz-adv-x="410" 
d="M350 806l-249 -78l-41 89l234 118z" />
    <glyph glyph-name="uniF6CA" unicode="&#xf6ca;" horiz-adv-x="486" 
d="M244 733l-184 117l58 85l128 -76l128 76l52 -83l-178 -119h-4z" />
    <glyph glyph-name="uniF6CB" unicode="&#xf6cb;" horiz-adv-x="540" 
d="M60 837q0 36 28 57t70 21q37 0 64 -21.5t27 -56.5q0 -39 -27 -61.5t-64 -22.5q-42 0 -70 22t-28 62zM291 837q0 36 28.5 57t69.5 21q37 0 64 -21.5t27 -56.5q0 -39 -26.5 -61.5t-64.5 -22.5q-42 0 -70 22t-28 62z" />
    <glyph glyph-name="uniF6CE" unicode="&#xf6ce;" horiz-adv-x="410" 
d="M309 728l-249 78l56 129l234 -118z" />
    <glyph glyph-name="uniF6CF" unicode="&#xf6cf;" horiz-adv-x="571" 
d="M511 841l-204 -113l-61 63l159 144zM291 870l-167 -142l-64 58l101 149z" />
    <glyph glyph-name="uniF6D0" unicode="&#xf6d0;" horiz-adv-x="434" 
d="M60 750v120h314v-120h-314z" />
    <glyph glyph-name="uniF6D1" unicode="&#xf6d1;" horiz-adv-x="541" 
d="M60 880h150q0 -28 14 -39t48 -11q31 0 44.5 10t13.5 40h150q1 -72 -56.5 -116t-151.5 -44q-100 0 -156 43.5t-56 116.5z" />
    <glyph glyph-name="uniF6D4" unicode="&#xf6d4;" horiz-adv-x="460" 
d="M60 670h130q0 -58 42 -58q38 0 38 58h130q0 -74 -43.5 -122t-124.5 -48q-88 0 -130 47t-42 123z" />
    <glyph glyph-name="uniF6DC" unicode="&#xf6dc;" 
d="M100 562l190 138h108v-700h-150v487l-70 -49z" />
    <glyph glyph-name="uniF6DE" unicode="&#xf6de;" horiz-adv-x="618" 
d="M60 205v130h498v-130h-498z" />
    <glyph glyph-name="uniF6F4" unicode="&#xf6f4;" horiz-adv-x="452" 
d="M60 657l66 75q47 -52 105 -52q68 0 110 50l51 -72q-65 -98 -167 -98q-61 0 -103 31t-62 66z" />
    <glyph glyph-name="uniF6F5" unicode="&#xf6f5;" horiz-adv-x="455" 
d="M225 548l-165 126l70 88l98 -71l100 69l67 -87l-166 -125h-4z" />
    <glyph glyph-name="uniF6F6" unicode="&#xf6f6;" horiz-adv-x="455" 
d="M230 756l165 -126l-70 -88l-98 71l-100 -69l-67 87l166 125h4z" />
    <glyph glyph-name="uniF6F7" unicode="&#xf6f7;" horiz-adv-x="296" 
d="M60 655q0 39 26.5 62t64.5 23q34 0 59.5 -23.5t25.5 -61.5q0 -42 -25.5 -66.5t-59.5 -24.5q-39 0 -65 24t-26 67z" />
    <glyph glyph-name="uniF6F8" unicode="&#xf6f8;" horiz-adv-x="519" 
d="M459 692l-174 -127l-66 54l129 157zM265 710l-129 -145l-76 51l97 174z" />
    <glyph glyph-name="uniF6F9" unicode="&#xf6f9;" horiz-adv-x="475" 
d="M20 129v154l52 23v219h160v-149l90 40v-153l-90 -40v-63h223v-160h-383v152z" />
    <glyph glyph-name="uniF6FA" unicode="&#xf6fa;" horiz-adv-x="875" 
d="M439 0v13q-59 -25 -120 -25q-127 0 -207.5 75.5t-80.5 197.5q0 119 75.5 195.5t218.5 76.5q59 0 114 -23v15h380v-150h-220v-37h194v-150h-194v-38h228v-150h-388zM332 138q58 0 107 34v178q-45 33 -102 33q-62 0 -99 -29.5t-37 -92.5q0 -53 37 -88t94 -35z" />
    <glyph glyph-name="uniF6FB" unicode="&#xf6fb;" horiz-adv-x="385" 
d="M280 -70l45 -90q-13 -16 -47 -28t-73 -12q-63 0 -104 24t-41 71q0 44 40 74.5t94.5 42.5t114.5 11v-23q-41 0 -70 -17.5t-29 -36.5q0 -26 30 -26q19 0 40 10z" />
    <glyph glyph-name="uniF6FC" unicode="&#xf6fc;" horiz-adv-x="396" 
d="M60 652q0 54 39 91.5t98 37.5q60 0 99.5 -37.5t39.5 -91.5q0 -53 -39.5 -90t-99.5 -37q-59 0 -98 37t-39 90zM155 654q0 -21 12 -35t32 -14q19 0 30.5 14t11.5 35q0 20 -11.5 33.5t-30.5 13.5q-20 0 -32 -13.5t-12 -33.5z" />
    <glyph glyph-name="uniF6FD" unicode="&#xf6fd;" horiz-adv-x="516" 
d="M315 160q0 11 -28 20.5t-68 21t-80 29t-68 54t-28 86.5q0 71 55 116.5t176 45.5q51 0 116 -24t95 -57l-72 -119q-30 20 -74 35t-71 15q-55 0 -55 -20q0 -8 20 -15.5t50.5 -13.5t65.5 -19.5t65.5 -32t50.5 -52.5t20 -79q0 -72 -62.5 -117.5t-164.5 -45.5q-66 0 -136.5 27
t-101.5 71l91 109q23 -21 73 -39t86 -18q45 0 45 22zM254 548l-165 126l70 88l98 -71l100 69l67 -87l-166 -125h-4z" />
    <glyph glyph-name="uniF6FE" unicode="&#xf6fe;" horiz-adv-x="485" 
d="M120 569l-60 67q55 78 132 78q24 0 61 -19.5t57 -19.5q10 0 17 1t14 4t10.5 5t12 8.5t12.5 8.5l49 -75q-60 -72 -127 -72q-22 0 -59 19.5t-60 19.5q-15 0 -59 -25z" />
    <glyph glyph-name="uniF6FF" unicode="&#xf6ff;" horiz-adv-x="557" 
d="M51 375v150h464v-113l-249 -262h257v-150h-489v113l248 262h-231zM274 548l-165 126l70 88l98 -71l100 69l67 -87l-166 -125h-4z" />
    <glyph glyph-name="uniF730" unicode="&#xf730;" horiz-adv-x="620" 
d="M40 250q0 107 72.5 184.5t197.5 77.5t197.5 -77.5t72.5 -184.5t-72.5 -184.5t-197.5 -77.5t-197.5 77.5t-72.5 184.5zM200 250q0 -49 30 -80.5t80 -31.5q54 0 82 31t28 81q0 53 -29.5 82.5t-80.5 29.5q-50 0 -80 -30t-30 -82z" />
    <glyph glyph-name="uniF731" unicode="&#xf731;" horiz-adv-x="383" 
d="M20 424l178 84h105v-508h-160v319l-75 -31z" />
    <glyph glyph-name="uniF732" unicode="&#xf732;" horiz-adv-x="512" 
d="M30 0v110q47 20 82.5 37t80.5 43.5t70 55.5t25 57q0 27 -13 43.5t-38 16.5q-31 0 -52.5 -15t-43.5 -47l-95 98q26 49 81 81.5t120 32.5q100 0 150.5 -49t50.5 -125q0 -64 -40.5 -115t-88.5 -74h163v-150h-452z" />
    <glyph glyph-name="uniF733" unicode="&#xf733;" horiz-adv-x="529" 
d="M241 -212q-83 0 -142 32.5t-89 83.5l83 111q67 -77 138 -77q43 0 65.5 19.5t22.5 48.5q0 77 -119 77h-44v150h40q42 0 69 18t27 52q0 25 -15.5 42t-48.5 17q-70 0 -121 -63l-82 108q65 105 217 105q93 0 151.5 -48.5t58.5 -130.5q0 -61 -25.5 -100.5t-78.5 -63.5v-3
q63 -12 97 -57t34 -109q0 -97 -67.5 -154.5t-170.5 -57.5z" />
    <glyph glyph-name="uniF734" unicode="&#xf734;" horiz-adv-x="580" 
d="M328 -200v200h-318v112l224 388h172l-203 -350h125v150h150v-150h82v-150h-82v-200h-150z" />
    <glyph glyph-name="uniF735" unicode="&#xf735;" horiz-adv-x="512" 
d="M63 108l48 392h346v-150h-214l-14 -89h24q94 0 156.5 -62t62.5 -166q0 -114 -72 -179.5t-183 -65.5q-58 0 -117.5 25.5t-89.5 68.5l84 115q21 -25 57 -42t70 -17q40 0 65.5 24.5t25.5 63.5q0 44 -34 72t-95 28q-82 0 -120 -18z" />
    <glyph glyph-name="uniF736" unicode="&#xf736;" horiz-adv-x="564" 
d="M40 248q0 92 32.5 174.5t85 139.5t112 95.5t118.5 54.5l61 -113q-79 -27 -140 -79t-91 -122q41 38 123 38q78 0 135.5 -60t57.5 -153q0 -110 -71 -172.5t-165 -62.5q-115 0 -186.5 75t-71.5 185zM200 247q0 -50 26 -79.5t73 -29.5q37 0 56 22t19 52q0 37 -22 60.5
t-63 23.5q-55 0 -89 -49z" />
    <glyph glyph-name="uniF737" unicode="&#xf737;" horiz-adv-x="510" 
d="M20 350v150h460v-102l-237 -598h-164l222 550h-281z" />
    <glyph glyph-name="uniF738" unicode="&#xf738;" horiz-adv-x="605" 
d="M297 435h13q33 0 50.5 19.5t17.5 45.5q0 62 -77 62q-37 0 -55.5 -17.5t-18.5 -44.5q0 -26 18 -45.5t52 -19.5zM310 285h-12q-36 0 -62 -19.5t-26 -54.5q0 -32 22.5 -52.5t69.5 -20.5q95 0 93 73q-1 36 -24 55t-61 19zM303 -12q-111 0 -182 52.5t-71 140.5q0 66 30 111.5
t77 65.5v3q-39 21 -64.5 63t-25.5 103q0 81 67.5 133t167.5 52t168 -52t68 -133q0 -52 -27 -97t-73 -68v-3q49 -13 83 -56.5t34 -108.5q0 -97 -70 -151.5t-182 -54.5z" />
    <glyph glyph-name="uniF739" unicode="&#xf739;" horiz-adv-x="559" 
d="M519 242q0 -197 -104 -317t-264 -137l-49 119q189 41 239 185q-41 -38 -109 -38q-87 0 -149.5 62t-62.5 156q0 110 73.5 175t167.5 65q117 0 187.5 -74t70.5 -196zM359 243q0 51 -26.5 85t-72.5 34q-37 0 -58.5 -24.5t-21.5 -54.5q0 -37 24.5 -63t65.5 -26q55 0 89 49z
" />
    <glyph glyph-name="uniF760" unicode="&#xf760;" horiz-adv-x="353" 
d="M222 561l-162 110l92 115l141 -142z" />
    <glyph glyph-name="uniF761" unicode="&#xf761;" horiz-adv-x="632" 
d="M0 0l244 525h144l244 -525h-171l-33 75h-234l-33 -75h-161zM312 340l-51 -115h101z" />
    <glyph glyph-name="uniF762" unicode="&#xf762;" horiz-adv-x="555" 
d="M72 2v521q99 6 217 6q101 0 152 -36.5t51 -94.5q0 -86 -66 -120v-1q81 -20 81 -112q0 -82 -63.5 -125.5t-166.5 -43.5q-153 0 -205 6zM298 192h-66v-40q10 -6 59 -6q56 0 56 23t-49 23zM287 379q-29 0 -55 -4v-43h56q44 0 44 23q0 24 -45 24z" />
    <glyph glyph-name="uniF763" unicode="&#xf763;" horiz-adv-x="557" 
d="M472 170l61 -120q-26 -27 -80.5 -44.5t-115.5 -17.5q-140 0 -223 74.5t-83 198.5q0 116 77.5 194t228.5 78q57 0 106 -16.5t77 -40.5l-71 -120q-3 1 -21.5 8.5t-26.5 10t-26.5 5.5t-37.5 3q-62 0 -99 -29.5t-37 -92.5q0 -55 40.5 -89t110.5 -34q68 0 120 32z" />
    <glyph glyph-name="uniF764" unicode="&#xf764;" horiz-adv-x="634" 
d="M72 0v525h13q13 0 89.5 1t94.5 1q171 0 252.5 -70t81.5 -192q0 -121 -87.5 -194t-252.5 -73q-11 0 -76 1t-99 1h-16zM268 377q-28 0 -36 -2v-225q10 -2 36 -2q165 0 165 117q0 112 -165 112z" />
    <glyph glyph-name="uniF765" unicode="&#xf765;" horiz-adv-x="508" 
d="M72 0v525h379v-150h-219v-37h194v-150h-194v-38h228v-150h-388z" />
    <glyph glyph-name="uniF766" unicode="&#xf766;" horiz-adv-x="473" 
d="M72 0v525h367v-150h-207v-57h182v-150h-182v-168h-160z" />
    <glyph glyph-name="uniF767" unicode="&#xf767;" horiz-adv-x="618" 
d="M315 180v140h264v-257q-39 -34 -102.5 -54.5t-120.5 -20.5q-155 0 -240 74t-85 199q0 116 83 194t222 78q113 0 198 -57l-67 -125q-55 32 -112 32q-154 0 -154 -122q0 -57 42.5 -90t114.5 -33q40 0 71 12v30h-114z" />
    <glyph glyph-name="uniF768" unicode="&#xf768;" horiz-adv-x="659" 
d="M427 0v193h-195v-193h-160v525h160v-182h195v182h160v-525h-160z" />
    <glyph glyph-name="uniF769" unicode="&#xf769;" horiz-adv-x="314" 
d="M77 0v525h160v-525h-160z" />
    <glyph glyph-name="uniF76A" unicode="&#xf76a;" horiz-adv-x="357" 
d="M285 525v-390q0 -72 -44 -108.5t-123 -36.5q-40 0 -74.5 13.5t-46.5 29.5l52 122q22 -15 46 -15q30 0 30 24v361h160z" />
    <glyph glyph-name="uniF76B" unicode="&#xf76b;" horiz-adv-x="617" 
d="M72 0v525h160v-211l159 211h207l-202 -239l221 -286h-217l-168 232v-232h-160z" />
    <glyph glyph-name="uniF76C" unicode="&#xf76c;" horiz-adv-x="475" 
d="M72 0v525h160v-365h223v-160h-383z" />
    <glyph glyph-name="uniF76D" unicode="&#xf76d;" horiz-adv-x="782" 
d="M72 0v525h161l168 -187l158 187h151v-525h-160v281l-149 -165h-22l-147 162v-278h-160z" />
    <glyph glyph-name="uniF76E" unicode="&#xf76e;" horiz-adv-x="671" 
d="M599 0h-129l-248 266v-266h-150v525h128l249 -267v267h150v-525z" />
    <glyph glyph-name="uniF76F" unicode="&#xf76f;" horiz-adv-x="664" 
d="M31 261q0 117 83 194.5t218 77.5q133 0 217 -73t84 -199q0 -121 -85 -197t-216 -76q-134 0 -217.5 73t-83.5 200zM201 261q0 -52 38 -87.5t93 -35.5q67 0 99 34t32 89q0 56 -37 89t-94 33q-59 0 -95 -32.5t-36 -89.5z" />
    <glyph glyph-name="uniF770" unicode="&#xf770;" horiz-adv-x="543" 
d="M232 0h-160v525q15 0 90.5 1t101.5 1q131 0 189.5 -53.5t58.5 -143.5q0 -88 -61 -144t-161 -56q-40 0 -58 2v-132zM280 377q-12 0 -48 -2v-91q32 -4 53 -4q57 0 57 50q0 26 -15 36.5t-47 10.5z" />
    <glyph glyph-name="uniF771" unicode="&#xf771;" horiz-adv-x="664" 
d="M31 261q0 117 83 194.5t218 77.5q133 0 217 -73t84 -199q0 -93 -53 -162l91 -99h-185l-15 15q-65 -27 -139 -27q-134 0 -217.5 73t-83.5 200zM201 261q0 -52 38 -87.5t93 -35.5q16 0 23 1l-33 36l105 94l33 -37q3 13 3 29q0 56 -37 89t-94 33q-59 0 -95 -32.5t-36 -89.5z
" />
    <glyph glyph-name="uniF772" unicode="&#xf772;" horiz-adv-x="578" 
d="M232 0h-160v525q12 0 86 1t114 1q242 0 242 -187q0 -31 -7 -57t-13.5 -40.5t-21 -29.5t-18 -17.5l-16.5 -11.5l130 -184h-203l-90 145h-43v-145zM282 377q-30 0 -50 -2v-80h46q66 0 66 43q0 13 -14 26t-48 13z" />
    <glyph glyph-name="uniF773" unicode="&#xf773;" horiz-adv-x="516" 
d="M315 160q0 11 -28 20.5t-68 21t-80 29t-68 54t-28 86.5q0 71 55 116.5t176 45.5q51 0 116 -24t95 -57l-72 -119q-30 20 -74 35t-71 15q-55 0 -55 -20q0 -8 20 -15.5t50.5 -13.5t65.5 -19.5t65.5 -32t50.5 -52.5t20 -79q0 -72 -62.5 -117.5t-164.5 -45.5q-66 0 -136.5 27
t-101.5 71l91 109q23 -21 73 -39t86 -18q45 0 45 22z" />
    <glyph glyph-name="uniF774" unicode="&#xf774;" horiz-adv-x="513" 
d="M9 375v150h495v-150h-168v-375h-160v375h-167z" />
    <glyph glyph-name="uniF775" unicode="&#xf775;" horiz-adv-x="638" 
d="M575 525v-310q0 -113 -71 -169.5t-177 -56.5q-121 0 -192.5 59.5t-71.5 171.5v305h160v-270q0 -24 4 -43t14.5 -36.5t32 -27t53.5 -9.5q53 0 70.5 28t17.5 80v278h160z" />
    <glyph glyph-name="uniF776" unicode="&#xf776;" horiz-adv-x="558" 
d="M571 525l-227 -523h-124l-233 523h181l120 -306l112 306h171z" />
    <glyph glyph-name="uniF777" unicode="&#xf777;" horiz-adv-x="860" 
d="M863 525l-166 -525h-154l-107 278l-106 -278h-159l-174 525h181l86 -290l95 290h162l99 -290l83 290h160z" />
    <glyph glyph-name="uniF778" unicode="&#xf778;" horiz-adv-x="577" 
d="M575 525l-183 -257l191 -268h-198l-98 146l-95 -146h-198l190 268l-181 257h198l91 -139l85 139h198z" />
    <glyph glyph-name="uniF779" unicode="&#xf779;" horiz-adv-x="572" 
d="M575 525l-210 -319v-206h-160v206l-208 319h193l102 -169l101 169h182z" />
    <glyph glyph-name="uniF77A" unicode="&#xf77a;" horiz-adv-x="557" 
d="M51 375v150h464v-113l-249 -262h257v-150h-489v113l248 262h-231z" />
    <glyph glyph-name="uniF7A8" unicode="&#xf7a8;" horiz-adv-x="457" 
d="M60 637q0 34 23.5 54.5t58.5 20.5q29 0 51.5 -20.5t22.5 -54.5q0 -36 -22.5 -57.5t-51.5 -21.5q-35 0 -58.5 21t-23.5 58zM241 637q0 34 23.5 54.5t56.5 20.5q31 0 53.5 -20.5t22.5 -54.5q0 -36 -22.5 -57.5t-53.5 -21.5q-33 0 -56.5 21t-23.5 58z" />
    <glyph glyph-name="uniF7AF" unicode="&#xf7af;" horiz-adv-x="414" 
d="M60 570v120h294v-120h-294z" />
    <glyph glyph-name="uniF7B4" unicode="&#xf7b4;" horiz-adv-x="353" 
d="M293 671l-162 -110l-71 83l141 142z" />
    <glyph glyph-name="uniF7B8" unicode="&#xf7b8;" horiz-adv-x="404" 
d="M60 -161l44 69q28 -28 68 -28q22 0 22 13q0 17 -25 17h-6v90h75v-26q106 -9 106 -90q0 -43 -38.5 -68.5t-112.5 -25.5q-79 0 -133 49z" />
    <glyph glyph-name="uniF7E0" unicode="&#xf7e0;" horiz-adv-x="632" 
d="M0 0l244 525h144l244 -525h-171l-33 75h-234l-33 -75h-161zM312 340l-51 -115h101zM342 561l-162 110l92 115l141 -142z" />
    <glyph glyph-name="uniF7E1" unicode="&#xf7e1;" horiz-adv-x="632" 
d="M0 0l244 525h144l244 -525h-171l-33 75h-234l-33 -75h-161zM312 340l-51 -115h101zM453 671l-162 -110l-71 83l141 142z" />
    <glyph glyph-name="uniF7E2" unicode="&#xf7e2;" horiz-adv-x="632" 
d="M0 0l244 525h144l244 -525h-171l-33 75h-234l-33 -75h-161zM312 340l-51 -115h101zM319 756l165 -126l-70 -88l-98 71l-100 -69l-67 87l166 125h4z" />
    <glyph glyph-name="uniF7E3" unicode="&#xf7e3;" horiz-adv-x="632" 
d="M0 0l244 525h144l244 -525h-171l-33 75h-234l-33 -75h-161zM312 340l-51 -115h101zM194 569l-60 67q55 78 132 78q24 0 61 -19.5t57 -19.5q10 0 17 1t14 4t10.5 5t12 8.5t12.5 8.5l49 -75q-60 -72 -127 -72q-22 0 -59 19.5t-60 19.5q-15 0 -59 -25z" />
    <glyph glyph-name="uniF7E4" unicode="&#xf7e4;" horiz-adv-x="632" 
d="M0 0l244 525h144l244 -525h-171l-33 75h-234l-33 -75h-161zM312 340l-51 -115h101zM148 637q0 34 23.5 54.5t58.5 20.5q29 0 51.5 -20.5t22.5 -54.5q0 -36 -22.5 -57.5t-51.5 -21.5q-35 0 -58.5 21t-23.5 58zM329 637q0 34 23.5 54.5t56.5 20.5q31 0 53.5 -20.5
t22.5 -54.5q0 -36 -22.5 -57.5t-53.5 -21.5q-33 0 -56.5 21t-23.5 58z" />
    <glyph glyph-name="uniF7E5" unicode="&#xf7e5;" horiz-adv-x="632" 
d="M0 0l244 525h144l244 -525h-171l-33 75h-234l-33 -75h-161zM312 340l-51 -115h101zM178 664q0 54 39 91.5t98 37.5q60 0 99.5 -37.5t39.5 -91.5q0 -53 -39.5 -90t-99.5 -37q-59 0 -98 37t-39 90zM273 666q0 -21 12 -35t32 -14q19 0 30.5 14t11.5 35q0 20 -11.5 33.5
t-30.5 13.5q-20 0 -32 -13.5t-12 -33.5z" />
    <glyph glyph-name="uniF7E6" unicode="&#xf7e6;" horiz-adv-x="800" 
d="M384 0v73h-183l-58 -73h-185l171 210l257 315h357v-150h-199v-37h174v-150h-174v-38h208v-150h-368zM384 301l-63 -78h63v78z" />
    <glyph glyph-name="uniF7E7" unicode="&#xf7e7;" horiz-adv-x="557" 
d="M174 -161l44 69q28 -28 68 -28q22 0 22 13q0 17 -25 17h-6v82q-114 16 -180 88t-66 181q0 116 77.5 194t228.5 78q57 0 106 -16.5t77 -40.5l-71 -120q-3 1 -21.5 8.5t-26.5 10t-26.5 5.5t-37.5 3q-62 0 -99 -29.5t-37 -92.5q0 -55 40.5 -89t110.5 -34q68 0 120 32
l61 -120q-24 -25 -74 -42.5t-107 -19.5v-14q106 -9 106 -90q0 -43 -38.5 -68.5t-112.5 -25.5q-79 0 -133 49z" />
    <glyph glyph-name="uniF7E8" unicode="&#xf7e8;" horiz-adv-x="508" 
d="M72 0v525h379v-150h-219v-37h194v-150h-194v-38h228v-150h-388zM297 561l-162 110l92 115l141 -142z" />
    <glyph glyph-name="uniF7E9" unicode="&#xf7e9;" horiz-adv-x="508" 
d="M72 0v525h379v-150h-219v-37h194v-150h-194v-38h228v-150h-388zM388 671l-162 -110l-71 83l141 142z" />
    <glyph glyph-name="uniF7EA" unicode="&#xf7ea;" horiz-adv-x="508" 
d="M72 0v525h379v-150h-219v-37h194v-150h-194v-38h228v-150h-388zM262 756l165 -126l-70 -88l-98 71l-100 -69l-67 87l166 125h4z" />
    <glyph glyph-name="uniF7EB" unicode="&#xf7eb;" horiz-adv-x="508" 
d="M72 0v525h379v-150h-219v-37h194v-150h-194v-38h228v-150h-388zM100 637q0 34 23.5 54.5t58.5 20.5q29 0 51.5 -20.5t22.5 -54.5q0 -36 -22.5 -57.5t-51.5 -21.5q-35 0 -58.5 21t-23.5 58zM281 637q0 34 23.5 54.5t56.5 20.5q31 0 53.5 -20.5t22.5 -54.5
q0 -36 -22.5 -57.5t-53.5 -21.5q-33 0 -56.5 21t-23.5 58z" />
    <glyph glyph-name="uniF7EC" unicode="&#xf7ec;" horiz-adv-x="314" 
d="M77 0v525h160v-525h-160zM187 561l-162 110l92 115l141 -142z" />
    <glyph glyph-name="uniF7ED" unicode="&#xf7ed;" horiz-adv-x="314" 
d="M77 0v525h160v-525h-160zM308 671l-162 -110l-71 83l141 142z" />
    <glyph glyph-name="uniF7EE" unicode="&#xf7ee;" horiz-adv-x="314" 
d="M77 0v525h160v-525h-160zM160 756l165 -126l-70 -88l-98 71l-100 -69l-67 87l166 125h4z" />
    <glyph glyph-name="uniF7EF" unicode="&#xf7ef;" horiz-adv-x="314" 
d="M77 0v525h160v-525h-160zM-11 637q0 34 23.5 54.5t58.5 20.5q29 0 51.5 -20.5t22.5 -54.5q0 -36 -22.5 -57.5t-51.5 -21.5q-35 0 -58.5 21t-23.5 58zM170 637q0 34 23.5 54.5t56.5 20.5q31 0 53.5 -20.5t22.5 -54.5q0 -36 -22.5 -57.5t-53.5 -21.5q-33 0 -56.5 21
t-23.5 58z" />
    <glyph glyph-name="uniF7F0" unicode="&#xf7f0;" horiz-adv-x="630" 
d="M9 194v140h58v191h13q10 0 92 1t114 1q155 0 234 -74t79 -188q0 -113 -83.5 -190t-225.5 -77q-30 0 -103.5 1t-102.5 1h-17v194h-58zM291 377q-48 0 -64 -4v-39h132v-140h-132v-44q20 -2 50 -2q152 0 152 117q0 59 -38.5 85.5t-99.5 26.5z" />
    <glyph glyph-name="uniF7F1" unicode="&#xf7f1;" horiz-adv-x="671" 
d="M599 0h-129l-248 266v-266h-150v525h128l249 -267v267h150v-525zM203 569l-60 67q55 78 132 78q24 0 61 -19.5t57 -19.5q10 0 17 1t14 4t10.5 5t12 8.5t12.5 8.5l49 -75q-60 -72 -127 -72q-22 0 -59 19.5t-60 19.5q-15 0 -59 -25z" />
    <glyph glyph-name="uniF7F2" unicode="&#xf7f2;" horiz-adv-x="664" 
d="M31 261q0 117 83 194.5t218 77.5q133 0 217 -73t84 -199q0 -121 -85 -197t-216 -76q-134 0 -217.5 73t-83.5 200zM201 261q0 -52 38 -87.5t93 -35.5q67 0 99 34t32 89q0 56 -37 89t-94 33q-59 0 -95 -32.5t-36 -89.5zM347 561l-162 110l92 115l141 -142z" />
    <glyph glyph-name="uniF7F3" unicode="&#xf7f3;" horiz-adv-x="664" 
d="M31 261q0 117 83 194.5t218 77.5q133 0 217 -73t84 -199q0 -121 -85 -197t-216 -76q-134 0 -217.5 73t-83.5 200zM201 261q0 -52 38 -87.5t93 -35.5q67 0 99 34t32 89q0 56 -37 89t-94 33q-59 0 -95 -32.5t-36 -89.5zM478 671l-162 -110l-71 83l141 142z" />
    <glyph glyph-name="uniF7F4" unicode="&#xf7f4;" horiz-adv-x="664" 
d="M31 261q0 117 83 194.5t218 77.5q133 0 217 -73t84 -199q0 -121 -85 -197t-216 -76q-134 0 -217.5 73t-83.5 200zM201 261q0 -52 38 -87.5t93 -35.5q67 0 99 34t32 89q0 56 -37 89t-94 33q-59 0 -95 -32.5t-36 -89.5zM335 756l165 -126l-70 -88l-98 71l-100 -69l-67 87
l166 125h4z" />
    <glyph glyph-name="uniF7F5" unicode="&#xf7f5;" horiz-adv-x="664" 
d="M31 261q0 117 83 194.5t218 77.5q133 0 217 -73t84 -199q0 -121 -85 -197t-216 -76q-134 0 -217.5 73t-83.5 200zM201 261q0 -52 38 -87.5t93 -35.5q67 0 99 34t32 89q0 56 -37 89t-94 33q-59 0 -95 -32.5t-36 -89.5zM210 569l-60 67q55 78 132 78q24 0 61 -19.5
t57 -19.5q10 0 17 1t14 4t10.5 5t12 8.5t12.5 8.5l49 -75q-60 -72 -127 -72q-22 0 -59 19.5t-60 19.5q-15 0 -59 -25z" />
    <glyph glyph-name="uniF7F6" unicode="&#xf7f6;" horiz-adv-x="664" 
d="M31 261q0 117 83 194.5t218 77.5q133 0 217 -73t84 -199q0 -121 -85 -197t-216 -76q-134 0 -217.5 73t-83.5 200zM201 261q0 -52 38 -87.5t93 -35.5q67 0 99 34t32 89q0 56 -37 89t-94 33q-59 0 -95 -32.5t-36 -89.5zM164 637q0 34 23.5 54.5t58.5 20.5q29 0 51.5 -20.5
t22.5 -54.5q0 -36 -22.5 -57.5t-51.5 -21.5q-35 0 -58.5 21t-23.5 58zM345 637q0 34 23.5 54.5t56.5 20.5q31 0 53.5 -20.5t22.5 -54.5q0 -36 -22.5 -57.5t-53.5 -21.5q-33 0 -56.5 21t-23.5 58z" />
    <glyph glyph-name="uniF7F8" unicode="&#xf7f8;" horiz-adv-x="664" 
d="M31 261q0 117 83 194.5t218 77.5q88 0 159 -34l47 46l86 -88l-39 -38q48 -67 48 -158q0 -121 -85 -197t-216 -76q-86 0 -155 32l-46 -45l-86 88l36 35q-50 67 -50 163zM201 261q0 -21 6 -40l161 158q-22 4 -36 4q-59 0 -95 -32.5t-36 -89.5zM463 261q0 14 -4 34
l-158 -154q15 -3 31 -3q67 0 99 34t32 89z" />
    <glyph glyph-name="uniF7F9" unicode="&#xf7f9;" horiz-adv-x="638" 
d="M575 525v-310q0 -113 -71 -169.5t-177 -56.5q-121 0 -192.5 59.5t-71.5 171.5v305h160v-270q0 -24 4 -43t14.5 -36.5t32 -27t53.5 -9.5q53 0 70.5 28t17.5 80v278h160zM327 561l-162 110l92 115l141 -142z" />
    <glyph glyph-name="uniF7FA" unicode="&#xf7fa;" horiz-adv-x="638" 
d="M575 525v-310q0 -113 -71 -169.5t-177 -56.5q-121 0 -192.5 59.5t-71.5 171.5v305h160v-270q0 -24 4 -43t14.5 -36.5t32 -27t53.5 -9.5q53 0 70.5 28t17.5 80v278h160zM468 671l-162 -110l-71 83l141 142z" />
    <glyph glyph-name="uniF7FB" unicode="&#xf7fb;" horiz-adv-x="638" 
d="M575 525v-310q0 -113 -71 -169.5t-177 -56.5q-121 0 -192.5 59.5t-71.5 171.5v305h160v-270q0 -24 4 -43t14.5 -36.5t32 -27t53.5 -9.5q53 0 70.5 28t17.5 80v278h160zM322 756l165 -126l-70 -88l-98 71l-100 -69l-67 87l166 125h4z" />
    <glyph glyph-name="uniF7FC" unicode="&#xf7fc;" horiz-adv-x="638" 
d="M575 525v-310q0 -113 -71 -169.5t-177 -56.5q-121 0 -192.5 59.5t-71.5 171.5v305h160v-270q0 -24 4 -43t14.5 -36.5t32 -27t53.5 -9.5q53 0 70.5 28t17.5 80v278h160zM151 637q0 34 23.5 54.5t58.5 20.5q29 0 51.5 -20.5t22.5 -54.5q0 -36 -22.5 -57.5t-51.5 -21.5
q-35 0 -58.5 21t-23.5 58zM332 637q0 34 23.5 54.5t56.5 20.5q31 0 53.5 -20.5t22.5 -54.5q0 -36 -22.5 -57.5t-53.5 -21.5q-33 0 -56.5 21t-23.5 58z" />
    <glyph glyph-name="uniF7FD" unicode="&#xf7fd;" horiz-adv-x="572" 
d="M575 525l-210 -319v-206h-160v206l-208 319h193l102 -169l101 169h182zM418 671l-162 -110l-71 83l141 142z" />
    <glyph glyph-name="uniF7FE" unicode="&#xf7fe;" horiz-adv-x="543" 
d="M232 0h-160v525h160v-52h3q3 0 8.5 0.5t11.5 0.5h14h16q114 0 170.5 -60t56.5 -142q0 -81 -58.5 -142.5t-159.5 -61.5q-38 0 -62 4v-72zM279 324q-33 0 -47 -3v-99q21 -4 45 -4q29 0 47 16t18 39q0 21 -15.5 36t-47.5 15z" />
    <glyph glyph-name="uniF7FF" unicode="&#xf7ff;" horiz-adv-x="572" 
d="M575 525l-210 -319v-206h-160v206l-208 319h193l102 -169l101 169h182zM118 637q0 34 23.5 54.5t58.5 20.5q29 0 51.5 -20.5t22.5 -54.5q0 -36 -22.5 -57.5t-51.5 -21.5q-35 0 -58.5 21t-23.5 58zM299 637q0 34 23.5 54.5t56.5 20.5q31 0 53.5 -20.5t22.5 -54.5
q0 -36 -22.5 -57.5t-53.5 -21.5q-33 0 -56.5 21t-23.5 58z" />
    <glyph glyph-name="uniF770.alt02" horiz-adv-x="493" 
d="M232 0h-160v525h108q72 0 124.5 -17t81.5 -46t42.5 -62.5t13.5 -72.5q0 -76 -57.5 -133.5t-152.5 -73.5v-120zM232 375v-105q16 5 28 20.5t12 37.5q0 18 -11.5 32.5t-28.5 14.5z" />
    <glyph glyph-name="uniF68C.alt02" horiz-adv-x="397" 
d="M72 0v525h160v-375h141v-150h-301zM136 -50l149 29q13 -18 13 -48q0 -55 -46.5 -93.5t-100.5 -45.5l-44 64q41 18 41 58q0 21 -12 36z" />
    <glyph glyph-name="Q.alt01" horiz-adv-x="758" 
d="M83 -6l-63 128q46 42 97.5 63t95.5 21q22 0 52 -5q63 10 120.5 36t101 75t43.5 109t-38.5 100.5t-120.5 40.5q-62 0 -99.5 -29.5t-37.5 -70.5q0 -72 74 -114l-119 -101q-48 23 -86.5 75.5t-38.5 127.5q0 114 86.5 188t227.5 74q60 0 115 -16.5t102.5 -49t76 -89.5
t28.5 -131q0 -103 -61 -176t-164 -109q38 -8 71 -8q85 0 126 51l66 -119q-41 -39 -85.5 -58.5t-106.5 -23.5q-59 -4 -171.5 34.5t-163.5 38.5q-85 0 -128 -62z" />
    </font>
</defs>
</svg>
